<svg width="43" height="54" viewBox="0 0 43 54" fill="none" xmlns="http://www.w3.org/2000/svg">
<path d="M20.3028 53.7566C17.0068 53.6046 14.4304 52.2 12.6871 49.3465C12.4216 48.9136 12.3985 48.6904 12.9661 48.421C15.0153 47.4493 15.9428 45.7927 15.6657 43.5183C15.5714 42.7506 16.1294 43.1701 16.3468 43.1682C18.7597 43.1508 20.6569 41.5827 21.0744 39.2141C21.1956 38.531 22.1558 37.5439 22.8311 37.3804C24.5128 36.9724 25.7289 35.9796 26.233 34.3191C26.7525 32.6066 26.4504 30.998 25.1112 29.7204C19.106 23.9961 13.0931 18.2795 7.06674 12.5764C6.03155 11.597 5.28499 10.5233 5.66597 9.03407C6.29901 6.55578 9.1448 5.73418 11.0535 7.49476C13.4318 9.68827 15.7638 11.9337 18.1151 14.1561C20.4895 16.4016 22.86 18.6489 25.2325 20.8944C25.9579 21.5813 26.7467 22.1797 27.6723 22.5723C29.5406 23.365 30.9183 23.0687 32.2055 21.4909C33.5639 19.8227 34.4702 17.8562 35.6266 16.0552C37.241 13.5442 40.9083 13.6039 42.3187 16.1918C43.0268 17.4925 43.0018 18.8394 42.2322 20.1248C40.1464 23.6132 38.078 27.1132 35.9249 30.5612C35.3919 31.4136 35.4207 32.0582 35.8498 32.9164C36.7638 34.7424 37.824 36.5126 38.305 38.5271C39.1882 42.2292 37.4276 46.3622 34.0565 48.0997C30.645 49.8564 27.1604 51.4746 23.6816 53.0928C22.6368 53.5758 21.4939 53.824 20.3028 53.7566Z" fill="url(#paint0_linear_1469_5)"/>
<path d="M7.21878 26.5743C8.06732 26.5147 8.80427 26.8745 9.42961 27.4613C12.5101 30.3494 15.5868 33.2414 18.6481 36.1488C20.0681 37.4976 20.1528 39.4121 18.904 40.7782C17.6861 42.1097 15.683 42.1655 14.2746 40.8514C11.1652 37.9517 8.07117 35.0328 4.98679 32.1062C3.97085 31.1422 3.71109 29.7472 4.23638 28.4965C4.74435 27.2901 5.84111 26.5743 7.21878 26.5743Z" fill="url(#paint1_linear_1469_5)"/>
<path d="M9.39146 24.4079C9.44149 22.6877 10.0803 21.7275 11.2963 21.1676C12.6125 20.5615 13.817 20.8444 14.8368 21.7968C17.621 24.3963 20.3744 27.0266 23.1394 29.6473C23.4646 29.9551 23.7917 30.263 24.1053 30.5824C25.4426 31.9447 25.5003 33.8361 24.2477 35.1387C22.997 36.4414 20.992 36.4741 19.5913 35.1657C17.2304 32.9568 14.8964 30.7209 12.5509 28.4966C11.8774 27.8578 11.2001 27.2229 10.5228 26.586C9.79168 25.8952 9.34913 25.0775 9.39146 24.4079Z" fill="url(#paint2_linear_1469_5)"/>
<path d="M11.0307 47.4474C10.2322 47.4955 9.50876 47.1107 8.88534 46.5219C6.28007 44.0648 3.67094 41.6096 1.09068 39.1275C-0.310083 37.7806 -0.356262 35.8276 0.92136 34.4961C2.18359 33.1819 4.12696 33.1723 5.55274 34.5076C8.14262 36.934 10.7229 39.3719 13.2954 41.8174C14.3787 42.8468 14.6654 44.0975 14.1555 45.4983C13.7207 46.6912 12.4989 47.4513 11.0307 47.4474Z" fill="url(#paint3_linear_1469_5)"/>
<path d="M26.1525 5.89193C26.1563 6.62887 25.6484 7.31194 24.9576 7.31386C24.1937 7.31771 23.6703 6.90402 23.5741 6.12283C23.3817 4.56813 23.2143 3.00958 23.0758 1.44911C23.0065 0.68331 23.3394 0.117615 24.1533 0.0156362C24.9903 -0.0882669 25.5194 0.329269 25.6253 1.16049C25.8215 2.71519 25.9735 4.27566 26.1525 5.89193Z" fill="url(#paint4_linear_1469_5)"/>
<path d="M29.1885 8.1854C28.2861 8.18156 27.6858 7.43307 28.0263 6.54797C28.6324 4.97403 29.3116 3.4251 30.0524 1.91081C30.3353 1.33357 30.9491 1.09691 31.6187 1.38553C32.2729 1.66645 32.5596 2.22252 32.3479 2.86518C31.8015 4.53148 31.0164 6.10349 30.2583 7.68128C30.0582 8.09497 29.6195 8.16809 29.1885 8.1854Z" fill="url(#paint5_linear_1469_5)"/>
<path d="M21.9119 7.40251C21.883 7.96436 21.6232 8.37419 21.0922 8.582C20.5169 8.80712 19.98 8.67244 19.6241 8.20295C18.6389 6.90801 17.6768 5.59575 16.7552 4.25271C16.3126 3.60812 16.4319 2.92891 17.0958 2.49405C17.6884 2.1073 18.3561 2.14194 18.814 2.73457C19.7876 3.99872 20.717 5.29751 21.6502 6.59245C21.8176 6.82335 21.9292 7.0985 21.9119 7.40251Z" fill="url(#paint6_linear_1469_5)"/>
<path d="M32.5463 11.2084C31.9825 11.1545 31.5919 10.9352 31.3591 10.4522C31.0993 9.9173 31.1898 9.38046 31.6073 9.05144C32.9869 7.96623 34.3915 6.90411 35.8481 5.92665C36.358 5.58415 36.9737 5.79196 37.3797 6.31917C37.7818 6.84446 37.8434 7.48135 37.3624 7.89119C35.9828 9.07453 34.5166 10.1559 32.96 11.1045C32.831 11.1815 32.656 11.1815 32.5463 11.2084Z" fill="url(#paint7_linear_1469_5)"/>
<defs>
<linearGradient id="paint0_linear_1469_5" x1="8.81927" y1="15.3966" x2="55.5003" y2="55.8997" gradientUnits="userSpaceOnUse">
<stop stop-color="#EA1F25"/>
<stop offset="1" stop-color="#EA1F25" stop-opacity="0"/>
</linearGradient>
<linearGradient id="paint1_linear_1469_5" x1="5.35228" y1="29.4221" x2="20.4418" y2="46.6297" gradientUnits="userSpaceOnUse">
<stop stop-color="#EA1F25"/>
<stop offset="1" stop-color="#EA1F25" stop-opacity="0"/>
</linearGradient>
<linearGradient id="paint2_linear_1469_5" x1="10.765" y1="23.7108" x2="25.909" y2="40.8782" gradientUnits="userSpaceOnUse">
<stop stop-color="#EA1F25"/>
<stop offset="1" stop-color="#EA1F25" stop-opacity="0"/>
</linearGradient>
<linearGradient id="paint3_linear_1469_5" x1="1.25756" y1="36.1197" x2="15.0712" y2="51.8026" gradientUnits="userSpaceOnUse">
<stop stop-color="#EA1F25"/>
<stop offset="1" stop-color="#EA1F25" stop-opacity="0"/>
</linearGradient>
<linearGradient id="paint4_linear_1469_5" x1="23.3364" y1="1.36982" x2="28.9122" y2="3.9557" gradientUnits="userSpaceOnUse">
<stop stop-color="#EA1F25"/>
<stop offset="1" stop-color="#EA1F25" stop-opacity="0"/>
</linearGradient>
<linearGradient id="paint5_linear_1469_5" x1="28.3215" y1="2.55905" x2="34.8564" y2="7.21495" gradientUnits="userSpaceOnUse">
<stop stop-color="#EA1F25"/>
<stop offset="1" stop-color="#EA1F25" stop-opacity="0"/>
</linearGradient>
<linearGradient id="paint6_linear_1469_5" x1="16.9661" y1="3.44752" x2="23.3863" y2="9.38041" gradientUnits="userSpaceOnUse">
<stop stop-color="#EA1F25"/>
<stop offset="1" stop-color="#EA1F25" stop-opacity="0"/>
</linearGradient>
<linearGradient id="paint7_linear_1469_5" x1="31.7801" y1="6.77964" x2="37.0308" y2="13.653" gradientUnits="userSpaceOnUse">
<stop stop-color="#EA1F25"/>
<stop offset="1" stop-color="#EA1F25" stop-opacity="0"/>
</linearGradient>
</defs>
</svg>
