<svg width="77" height="43" viewBox="0 0 77 43" fill="none" xmlns="http://www.w3.org/2000/svg">
<g filter="url(#filter0_d_1014_1701)">
<path d="M52.782 0.000631008C47.7869 1.33332 43.7384 3.97851 40.914 8.3577C38.6878 11.8081 37.87 15.6143 38.1981 19.6729C38.7004 25.8947 43.3169 33.7116 53.2641 35.9555C52.7113 35.9555 52.1611 35.9555 51.6083 35.9555C44.4148 35.9555 37.2213 35.958 30.0278 35.958C29.6063 35.958 29.1823 35.9782 28.7683 35.9227C27.4104 35.7384 26.3907 34.59 26.4563 33.3582C26.5245 32.0584 27.5492 30.9932 28.9299 30.9528C30.9895 30.8948 33.0516 30.9301 35.1138 30.9251C35.7902 30.9226 36.4742 30.9074 37.0573 30.5111C38.0543 29.8322 38.5464 28.8806 38.2436 27.6867C37.9483 26.5181 37.1153 25.8392 35.924 25.6625C35.5126 25.6019 35.0835 25.6398 34.6645 25.6398C28.0187 25.6398 21.3729 25.6347 14.7246 25.6448C13.5636 25.6473 12.6675 25.2182 12.1779 24.143C11.7286 23.1612 11.9507 22.25 12.6448 21.4499C13.1421 20.8769 13.768 20.6497 14.5454 20.6523C18.4955 20.6624 22.4431 20.6295 26.3932 20.6245C27.3145 20.622 28.1575 20.4402 28.7709 19.6957C30.1111 18.0702 29.1899 15.7001 27.0848 15.3695C26.6734 15.3038 26.2443 15.3316 25.8253 15.3316C19.5582 15.3291 13.291 15.3341 7.02128 15.3291C5.18379 15.3291 4.00506 14.3472 4.00002 12.8505C3.99497 11.3335 5.1636 10.3264 6.98595 10.3264C16.1558 10.3189 25.3256 10.3239 34.4979 10.3214C34.9598 10.3214 35.4267 10.3466 35.8861 10.3012C37.2617 10.17 38.3041 9.03667 38.3168 7.69641C38.3294 6.38896 37.4056 5.31877 36.0376 5.10927C35.5832 5.0386 35.1163 5.04365 34.6544 5.04365C30.8254 5.0386 26.999 5.0487 23.17 5.03608C21.272 5.03103 20.0529 3.99365 20.0882 2.46156C20.1235 1.00015 21.3452 0.00567907 23.165 0.00315504C33.039 -0.00189302 42.9105 0.000631008 52.782 0.000631008Z" fill="#6145DF"/>
<path d="M56.5759 2.12104C65.5766 2.16395 72.7827 9.27668 72.7095 18.0426C72.6338 26.8389 65.3797 33.8254 56.3816 33.7699C47.5273 33.7144 40.3943 26.5587 40.4574 17.7877C40.5155 9.11009 47.7494 2.07814 56.5759 2.12104ZM57.6512 10.6296C58.2443 10.8895 58.6027 11.1091 58.7138 11.4701C59.0924 12.7018 59.9304 12.7548 60.9652 12.4645C61.2858 12.3762 61.629 12.3409 61.9622 12.3383C62.6942 12.3333 62.8078 11.9698 62.6084 11.359C61.9723 9.41045 60.7027 8.13582 58.6911 7.64363C58.1307 7.50481 57.53 7.48966 57.6158 6.60878C57.6789 5.97524 57.0984 6.04844 56.7021 6.06863C56.2882 6.09135 55.5815 5.85157 55.6092 6.53305C55.6471 7.47452 55.0413 7.48966 54.4406 7.6512C52.1589 8.25949 50.5914 10.0238 50.3491 12.2374C50.0765 14.7235 51.066 17.2451 53.2442 17.9972C55.5209 18.7847 55.8238 20.1881 55.5613 22.1492C55.5335 22.3562 55.5815 22.5733 55.5512 22.7777C55.4754 23.2926 55.8414 24.1104 55.319 24.2593C54.751 24.4234 54.481 23.5728 54.0822 23.1639C53.9964 23.0756 53.903 22.9595 53.8878 22.8459C53.6884 21.4577 52.7697 21.546 51.75 21.7605C51.3436 21.8464 50.917 21.859 50.498 21.8817C49.867 21.917 49.7307 22.2224 49.8872 22.8055C50.5561 25.2942 51.914 27.1292 54.5516 27.7349C55.2584 27.8965 55.69 28.164 55.5663 28.9818C55.4351 29.8475 56.0585 29.7617 56.6163 29.7743C57.2069 29.787 57.7597 29.7769 57.6411 28.9465C57.5199 28.0984 57.9212 27.8308 58.7213 27.6365C61.5003 26.9651 63.1611 24.855 63.358 21.9347C63.5322 19.34 62.3433 17.5404 59.683 16.4096C59.2211 16.2127 58.7441 16.0411 58.2569 15.9149C57.8253 15.8038 57.6335 15.6019 57.6411 15.1375C57.6663 13.6862 57.6512 12.2298 57.6512 10.6296Z" fill="#6145DF"/>
<path d="M57.6739 22.1997C57.6739 21.7403 57.6638 21.2809 57.6765 20.8215C57.6865 20.501 57.4821 20.0492 57.7951 19.8927C58.1888 19.6958 58.6103 19.981 58.9359 20.2385C59.6932 20.8367 59.9355 21.657 59.8143 22.5884C59.6906 23.5424 59.1126 24.1709 58.2772 24.5823C57.896 24.7691 57.631 24.7186 57.6386 24.2063C57.6462 23.5374 57.6411 22.8685 57.6411 22.1997C57.6512 22.1997 57.6613 22.1997 57.6739 22.1997Z" fill="#6145DF"/>
<path d="M55.5588 10.5713C55.5588 11.9065 55.5487 13.0777 55.5639 14.2488C55.5714 14.9606 55.2812 14.9252 54.8142 14.5971C53.3503 13.5724 53.633 11.5885 55.5588 10.5713Z" fill="#6145DF"/>
</g>
<defs>
<filter id="filter0_d_1014_1701" x="0.548204" y="0" width="75.6136" height="42.8653" filterUnits="userSpaceOnUse" color-interpolation-filters="sRGB">
<feFlood flood-opacity="0" result="BackgroundImageFix"/>
<feColorMatrix in="SourceAlpha" type="matrix" values="0 0 0 0 0 0 0 0 0 0 0 0 0 0 0 0 0 0 127 0" result="hardAlpha"/>
<feOffset dy="3.4518"/>
<feGaussianBlur stdDeviation="1.7259"/>
<feComposite in2="hardAlpha" operator="out"/>
<feColorMatrix type="matrix" values="0 0 0 0 0.380392 0 0 0 0 0.270588 0 0 0 0 0.87451 0 0 0 0.25 0"/>
<feBlend mode="normal" in2="BackgroundImageFix" result="effect1_dropShadow_1014_1701"/>
<feBlend mode="normal" in="SourceGraphic" in2="effect1_dropShadow_1014_1701" result="shape"/>
</filter>
</defs>
</svg>
