<svg width="26" height="25" viewBox="0 0 26 25" fill="none" xmlns="http://www.w3.org/2000/svg">
<g clip-path="url(#clip0_1014_642)">
<path d="M7.57614 12.2629C7.57614 11.1068 7.57512 9.95014 7.57665 8.794C7.57767 7.57613 8.33023 6.82051 9.54657 6.82C11.8594 6.81846 14.1716 6.81846 16.4844 6.82C17.7028 6.82102 18.4574 7.5746 18.4579 8.79145C18.4594 11.1042 18.4594 13.4165 18.4579 15.7293C18.4569 16.9467 17.7028 17.7028 16.487 17.7038C14.1742 17.7058 11.8619 17.7058 9.54912 17.7038C8.33074 17.7028 7.57767 16.9487 7.57614 15.7318C7.57512 14.5757 7.57614 13.4191 7.57614 12.2629ZM13.0288 8.0297C11.8476 8.0297 10.6665 8.02868 9.48534 8.03021C9.03177 8.03073 8.78636 8.27052 8.78534 8.71747C8.78329 10.1027 8.7884 11.4874 8.77972 12.8726C8.7787 13.0675 8.8384 13.1155 9.02462 13.114C10.1629 13.1063 11.3017 13.1078 12.4405 13.1129C12.5874 13.1134 12.6696 13.0691 12.7339 12.9328C12.9446 12.4889 13.1767 12.0558 13.3859 11.6114C13.5293 11.3068 13.7476 11.1721 14.0885 11.1767C15.0568 11.1884 16.0257 11.1762 16.9941 11.1848C17.1885 11.1864 17.2579 11.1425 17.2538 10.9333C17.2405 10.2114 17.2492 9.48891 17.2482 8.76696C17.2477 8.2644 17.0166 8.03073 16.5201 8.03021C15.3568 8.02919 14.1931 8.0297 13.0288 8.0297Z" fill="#828284"/>
<path d="M10.0793 9.71201C10.4354 9.70946 10.6104 9.90742 10.7716 10.1013C10.9206 10.2804 11.0135 10.26 11.1609 10.0982C11.4354 9.79722 11.7313 9.51456 12.0227 9.22935C12.3181 8.94006 12.6691 8.92629 12.9247 9.18752C13.1737 9.44211 13.1523 9.80283 12.865 10.0926C12.3921 10.5692 11.9176 11.0447 11.4405 11.5176C11.1313 11.8238 10.8078 11.8309 10.5017 11.534C10.2267 11.2676 9.95529 10.9977 9.69304 10.7197C9.51191 10.5278 9.48947 10.2947 9.5961 10.0569C9.70069 9.82375 9.89712 9.72324 10.0793 9.71201Z" fill="#828284"/>
</g>
<path d="M25 12.5C25 18.964 19.5946 24.2424 12.8788 24.2424C6.16295 24.2424 0.757576 18.964 0.757576 12.5C0.757576 6.036 6.16295 0.757576 12.8788 0.757576C19.5946 0.757576 25 6.036 25 12.5Z" stroke="#828284" stroke-width="1.51515"/>
<defs>
<clipPath id="clip0_1014_642">
<rect width="10.8838" height="10.8864" fill="white" transform="translate(7.57568 6.81836)"/>
</clipPath>
</defs>
</svg>
