<svg width="107" height="107" viewBox="0 0 107 107" fill="none" xmlns="http://www.w3.org/2000/svg">
<circle cx="53.5" cy="53.5" r="53.5" transform="rotate(-180 53.5 53.5)" fill="url(#paint0_linear_1334_8)"/>
<path d="M62.8875 33.1073C64.2157 32.2701 65.5541 31.4454 66.8099 30.5012C68.6307 29.1321 70.3036 27.6134 71.5673 25.6927C72.3132 24.5589 72.8506 23.3337 73.1347 22C73.1685 22.0024 73.2024 22.0039 73.2362 22.0063C73.2362 22.4753 73.2433 22.9442 73.2346 23.4124C73.226 23.8837 73.215 24.3559 73.1819 24.8264C73.0104 27.2704 72.4887 29.642 71.6153 31.9294C70.3996 35.1122 68.6339 37.9496 66.2033 40.3566C65.9877 40.1866 65.8995 39.9364 65.802 39.6956C65.1268 38.0228 64.3416 36.4003 63.5579 34.7762C63.2966 34.2356 63.0543 33.6864 62.8875 33.1073Z" fill="#E3C422"/>
<path d="M44.0262 74.1244C42.635 75.082 41.2344 76.027 39.9416 77.1176C38.1578 78.6221 36.5526 80.2839 35.425 82.3542C34.8703 83.3724 34.491 84.4535 34.3211 85.6574C34.1692 85.2246 34.1873 84.8296 34.1802 84.4378C34.1731 84.0451 34.1661 83.6517 34.1724 83.2583C34.2644 77.2711 36.2316 71.9826 40.0935 67.4031C40.2107 67.2638 40.3468 67.1411 40.4743 67.0112C40.6883 67.1001 40.7654 67.3047 40.8559 67.4873C41.8623 69.5229 42.8915 71.5467 43.9034 73.5799C43.986 73.7475 44.1395 73.9088 44.0262 74.1244Z" fill="#E3C422"/>
<path d="M62.581 49.876C63.0122 49.9492 63.4434 50.0247 63.8573 50.171C63.7196 50.485 63.3985 50.6093 63.1428 50.7486C62.2962 51.2105 61.4157 51.611 60.5674 52.069C59.9136 52.4222 59.2723 52.8015 58.6066 53.1328C58.0369 53.4168 57.4656 53.7009 56.9109 54.0109C55.8848 54.5845 54.8053 55.0551 53.7981 55.6617C53.315 55.9521 52.7799 56.1433 52.3023 56.4415C51.2715 57.0852 50.1439 57.5455 49.0872 58.1403C48.5301 58.4535 47.9675 58.7604 47.3978 59.0515C46.8706 58.9382 46.3363 58.854 45.8225 58.6817C47.2947 58.0349 48.6749 57.2087 50.1014 56.4746C52.1001 55.4454 54.0806 54.3792 56.0721 53.335C57.948 52.3522 59.794 51.3128 61.6919 50.3717C61.9948 50.223 62.2733 50.0239 62.581 49.876Z" fill="#E92627"/>
<path d="M45.1126 58.5251C44.7593 58.4913 44.417 58.4095 44.0818 58.2946C44.5563 57.8469 45.1582 57.6037 45.7224 57.311C48.9878 55.6208 52.2226 53.8732 55.4834 52.1736C57.0492 51.3577 58.6127 50.5346 60.1636 49.6895C60.3013 49.6148 60.4461 49.5495 60.5389 49.4133C60.8796 49.4904 61.2203 49.5676 61.561 49.6447C61.7782 49.8917 61.5099 49.9578 61.3903 50.0357C60.9292 50.3347 60.4303 50.5708 59.9425 50.8226C56.8273 52.4309 53.7436 54.0983 50.6395 55.7263C48.9139 56.6312 47.182 57.525 45.4777 58.4708C45.362 58.5346 45.2495 58.6046 45.1126 58.5251Z" fill="#DE2327"/>
<path d="M42.2776 44.1059C42.6364 43.7597 43.0141 43.4379 43.4351 43.1696C43.6066 43.0972 43.6649 43.2066 43.7239 43.3372C44.421 44.9022 45.1575 46.4492 45.8626 48.0111C46.1852 48.7256 46.4747 49.4566 46.8556 50.1451C46.9885 50.3851 47.1019 50.6384 47.057 50.928C47.0413 50.9634 47.0177 50.9933 46.987 51.0169C46.839 51.0869 46.6864 51.1499 46.555 51.2514C46.4779 51.297 46.3953 51.3316 46.3087 51.356C46.1474 51.3757 46.0168 51.4575 45.9027 51.5685C45.8169 51.6149 45.7304 51.6574 45.6336 51.5968C45.4982 51.4631 45.4589 51.2789 45.381 51.1145C44.5839 49.4377 43.8309 47.7396 43.0527 46.0542C42.8009 45.5081 42.5727 44.951 42.317 44.4065C42.2721 44.3113 42.2288 44.2137 42.2776 44.1059Z" fill="#F15A25"/>
<path d="M64.396 62.3121C64.0655 62.663 63.7012 62.9746 63.3062 63.2508C63.0033 63.2311 62.9655 62.9573 62.8687 62.7645C61.9733 60.9886 61.0912 59.2064 60.191 57.4328C59.896 56.8505 59.6048 56.2635 59.2618 55.7064C59.2586 55.501 59.4561 55.4822 59.5647 55.3807C59.9345 55.206 60.2532 54.9038 60.7017 54.9219C60.8654 54.9864 60.9197 55.1415 60.9889 55.2799C62.1094 57.5154 63.2236 59.7532 64.3543 61.9832C64.4078 62.0878 64.4747 62.1901 64.396 62.3121Z" fill="#F15A25"/>
<path d="M47.3969 59.053C47.3072 58.8885 47.4677 58.8862 47.5425 58.8453C48.3214 58.418 49.0815 57.9459 49.892 57.5879C50.5254 57.3085 51.1628 57.0135 51.7395 56.6602C52.5437 56.1676 53.4093 55.8041 54.2166 55.3241C54.9326 54.8992 55.688 54.5364 56.4363 54.1666C56.7235 54.025 57.0524 53.9085 57.3199 53.6772C57.5174 53.5057 57.7936 53.3381 58.0399 53.2838C58.3649 53.2122 58.6041 53.0162 58.874 52.8785C59.7765 52.419 60.6295 51.8572 61.5517 51.4464C62.0765 51.2128 62.5415 50.8728 63.0892 50.6738C63.3473 50.5801 63.6077 50.3519 63.8564 50.1702C64.2278 50.2134 64.5929 50.285 64.9462 50.4133C64.4733 50.817 63.8989 51.0483 63.3567 51.3292C61.7295 52.1727 60.1275 53.065 58.4987 53.9038C56.7998 54.7788 55.1293 55.7081 53.4211 56.565C53.3038 56.624 53.1952 56.6979 53.0819 56.7625C51.9095 57.3455 50.7654 57.9844 49.604 58.5903C49.165 58.8193 48.7495 59.0963 48.2648 59.2285C47.965 59.2214 47.6849 59.1175 47.3969 59.053Z" fill="#E22327"/>
<path d="M45.113 58.525C45.6662 58.2449 46.2351 57.9931 46.7678 57.6783C47.8261 57.0528 48.9458 56.5445 50.023 55.9559C51.5692 55.1108 53.128 54.2878 54.6867 53.4647C56.8301 52.334 58.9798 51.2167 61.1193 50.0797C61.2932 49.9876 61.6079 49.9829 61.5607 49.6445C61.9006 49.7216 62.2406 49.7995 62.5805 49.8767C62.4019 50.1985 62.0525 50.3102 61.7629 50.4495C60.8612 50.883 59.9791 51.3528 59.0931 51.8163C57.4053 52.6991 55.7333 53.6119 54.0502 54.5034C52.9737 55.0738 51.8714 55.5963 50.8138 56.1998C49.8224 56.7648 48.7719 57.2149 47.8025 57.8223C47.3092 58.1316 46.7631 58.3582 46.2438 58.6265C46.1068 58.6973 45.9621 58.669 45.8204 58.684C45.5757 58.6737 45.3404 58.6171 45.113 58.525Z" fill="#E32427"/>
<path d="M59.825 34.8335C60.1987 34.5998 60.5772 34.3755 60.9832 34.2C61.191 34.1639 61.2091 34.3433 61.2594 34.4613C62.018 36.2144 62.8457 37.936 63.646 39.6703C63.9308 40.2872 64.1621 40.9285 64.4682 41.5367C64.5257 41.6508 64.5949 41.7704 64.543 41.9097C64.2251 42.204 63.9033 42.4943 63.5303 42.7194C63.3359 42.6706 63.2903 42.4927 63.2124 42.3472C62.5955 41.1936 62.1439 39.9646 61.5718 38.7914C60.9888 37.5946 60.4623 36.3718 59.9076 35.1616C59.8596 35.0585 59.7668 34.9633 59.825 34.8335Z" fill="#E4B923"/>
<path d="M60.5385 49.4133C60.629 49.5652 60.5157 49.6321 60.4126 49.6864C59.4023 50.2191 58.3872 50.7439 57.3777 51.2774C55.7434 52.1406 54.1122 53.0101 52.4779 53.8748C50.9428 54.6876 49.4021 55.4895 47.8717 56.3109C46.7063 56.9365 45.4961 57.4778 44.3717 58.1805C44.2852 58.2348 44.1789 58.2568 44.0822 58.2938C43.7281 58.26 43.385 58.1789 43.0498 58.0633C44.3568 57.4055 45.6386 56.6996 46.9345 56.0222C49.5437 54.657 52.1427 53.2729 54.7488 51.9022C56.3359 51.0673 57.9175 50.2238 59.5038 49.3882C59.6092 49.3331 59.7335 49.3307 59.828 49.2544C60.0648 49.3079 60.3017 49.3606 60.5385 49.4133Z" fill="#D72227"/>
<path d="M62.503 43.4764C62.1733 43.67 61.9175 43.9721 61.5579 44.1224C61.2503 43.8895 61.1645 43.5189 61.0087 43.1986C60.2463 41.6367 59.5703 40.0355 58.8275 38.4641C58.4318 37.6269 58.0415 36.7857 57.6819 35.932C58.0179 35.7243 58.368 35.5464 58.7331 35.3954C58.9653 35.3017 59.0345 35.4827 59.0982 35.6306C59.9504 37.6064 60.8915 39.5421 61.7633 41.5093C61.9907 42.0215 62.2197 42.5337 62.4558 43.0428C62.5211 43.1813 62.6289 43.3167 62.503 43.4764Z" fill="#E6AE23"/>
<path d="M56.6798 48.5491C56.9174 48.6018 57.1558 48.6553 57.3934 48.708C57.5823 48.8072 57.5154 48.911 57.3911 49.0023C57.2424 49.1101 57.07 49.1778 56.9087 49.2643C52.9508 51.3763 48.9701 53.4465 45.0115 55.5576C43.7997 56.2036 42.5801 56.8331 41.3612 57.4657C41.2282 57.535 41.1031 57.6601 40.9277 57.5869C40.6633 57.5751 40.4091 57.5145 40.1628 57.4193C40.1636 57.1502 40.3965 57.0967 40.5689 57.0031C41.7956 56.3319 43.053 55.7189 44.2836 55.0532C45.3522 54.4757 46.4278 53.9076 47.5176 53.3678C48.4193 52.9209 49.288 52.407 50.1827 51.9444C51.8548 51.0796 53.5158 50.1944 55.1745 49.3052C55.6694 49.0385 56.1738 48.7946 56.6798 48.5491Z" fill="#BC2226"/>
<path d="M50.9487 70.1062C50.6324 70.3375 50.2697 70.4815 49.9219 70.6538C49.6898 70.4603 49.6174 70.1731 49.4852 69.9197C48.2781 67.6095 47.1333 65.2678 45.9624 62.9395C45.8837 62.7821 45.7421 62.635 45.8153 62.4304C46.1599 62.2108 46.5046 61.9905 46.85 61.771C47.1356 62.1188 47.2686 62.55 47.47 62.9418C48.5716 65.0782 49.6197 67.2404 50.7119 69.3815C50.8252 69.6049 51.0054 69.8213 50.9487 70.1062Z" fill="#E9A623"/>
<path d="M41.2644 66.1561C41.5626 65.7926 41.9191 65.4928 42.2826 65.1985C42.4722 65.3519 42.5714 65.5699 42.676 65.7784C43.8319 68.0863 44.9807 70.398 46.15 72.6988C46.1618 72.7216 46.165 72.7484 46.1673 72.7751C45.8447 73.0128 45.5071 73.2252 45.146 73.3999C44.9752 73.4762 44.8753 73.3818 44.7911 73.2512C44.7274 73.152 44.6778 73.0458 44.6251 72.9404C43.684 71.0637 42.7453 69.1847 41.7814 67.3199C41.5878 66.9445 41.3816 66.5684 41.2644 66.1561Z" fill="#E4BC23"/>
<path d="M46.1679 72.775C45.9987 72.7128 45.9586 72.5507 45.8902 72.413C45.012 70.6599 44.1339 68.906 43.2573 67.1521C42.9316 66.5014 42.6082 65.8498 42.2832 65.1991C42.572 64.8899 42.8836 64.6066 43.2314 64.3643C43.4037 64.4642 43.4533 64.6507 43.5335 64.8112C44.4722 66.6808 45.4023 68.5543 46.3402 70.4246C46.5566 70.8566 46.7596 71.2965 47.0138 71.7096C47.1082 71.8638 47.2097 72.029 47.0885 72.2202C46.7809 72.4052 46.4748 72.5901 46.1679 72.775Z" fill="#E4B923"/>
<path d="M39.6555 46.7851C39.9978 46.3319 40.3621 45.8975 40.7799 45.512C41.1222 45.9314 41.3394 46.4271 41.5251 46.9212C41.8068 47.668 42.1695 48.3785 42.5039 49.0969C42.9713 50.1009 43.3396 51.1529 43.9132 52.1074C43.947 52.1641 43.9667 52.2262 43.9604 52.2939C43.7897 52.5118 43.5615 52.6275 43.2939 52.6763C43.1539 52.6495 43.0783 52.7542 42.9879 52.8297C42.8384 52.9139 42.6896 53.0005 42.5071 52.9493C42.478 52.9226 42.4544 52.8911 42.4355 52.8573C41.5337 50.8217 40.6202 48.7924 39.6555 46.7851Z" fill="#EF4924"/>
<path d="M62.5025 43.4763C62.2727 42.9271 62.0469 42.3763 61.8124 41.8294C61.2309 40.4768 60.5448 39.173 59.9814 37.8109C59.6682 37.0547 59.2488 36.3434 58.9695 35.5692C58.931 35.4621 58.8523 35.3968 58.7327 35.3953C59.0812 35.1781 59.4385 34.9782 59.8248 34.8342C60.1923 35.5629 60.5472 36.297 60.8674 37.0477C61.1625 37.7385 61.4851 38.4184 61.8006 39.1006C62.2696 40.114 62.7425 41.1259 63.2178 42.1363C63.3114 42.3353 63.4255 42.525 63.5301 42.7185C63.2067 42.9971 62.8865 43.2796 62.5025 43.4763Z" fill="#E5B423"/>
<path d="M55.9604 36.7796C56.2586 36.6025 56.5639 36.4412 56.8913 36.324C57.0841 36.2862 57.0935 36.4569 57.1423 36.5616C58.3297 39.1228 59.4793 41.7013 60.6737 44.2594C60.7343 44.3885 60.8067 44.5222 60.6934 44.6623C60.4148 44.8409 60.1654 45.0722 59.827 45.1415C59.6406 45.0896 59.569 44.9306 59.4981 44.7764C58.3265 42.2411 57.1242 39.72 56.032 37.1486C55.9809 37.0313 55.8943 36.9196 55.9604 36.7796Z" fill="#E9A523"/>
<path d="M38.4308 57.0291C38.1334 57.0173 37.8541 56.922 37.5684 56.8512C37.5464 56.6569 37.7085 56.623 37.8297 56.5554C38.7778 56.025 39.7425 55.5254 40.708 55.0281C41.9174 54.4057 43.1 53.7313 44.315 53.1184C45.4716 52.5345 46.6055 51.9074 47.7543 51.3094C49.0542 50.6327 50.3439 49.9363 51.6382 49.2486C52.4196 48.8339 53.2088 48.4318 53.9972 48.0298C54.3104 47.9102 54.5811 48.1069 54.8722 48.1486C54.9407 48.4499 54.6731 48.4783 54.5095 48.5617C53.1797 49.2384 51.8656 49.9434 50.5492 50.6437C48.4121 51.7807 46.2656 52.8988 44.1285 54.0366C42.3384 54.9895 40.5278 55.9038 38.7511 56.8803C38.6472 56.9386 38.5418 56.9897 38.4308 57.0291Z" fill="#A72023"/>
<path d="M48.5052 60.8244C48.8341 60.6371 49.1623 60.449 49.5187 60.3176C49.8689 60.7488 50.0514 61.2721 50.2977 61.7584C51.2073 63.5563 52.1098 65.3574 53.0108 67.1594C53.1973 67.5331 53.4176 67.8911 53.5946 68.2704C53.6544 68.3987 53.752 68.5175 53.6946 68.6741C53.3995 68.87 53.0855 69.0297 52.7574 69.1627C52.3758 68.9518 52.3215 68.5261 52.1476 68.1901C51.3324 66.6109 50.5416 65.0199 49.7367 63.4352C49.3582 62.69 48.9868 61.9409 48.617 61.191C48.5611 61.0762 48.4706 60.9676 48.5052 60.8244Z" fill="#ED9722"/>
<path d="M66.9123 59.5463C66.6212 59.9791 66.2899 60.3765 65.9138 60.7376C65.7084 60.7801 65.6833 60.5976 65.6266 60.4851C65.1191 59.4795 64.6123 58.4731 64.0985 57.4706C63.7956 56.8781 63.4816 56.2903 63.1551 55.7096C62.9371 55.3225 62.8175 54.8866 62.5649 54.5152C62.476 54.3846 62.4375 54.2272 62.48 54.0635C62.8191 53.7433 63.2314 53.5828 63.6846 53.5088C63.8562 53.5631 63.9081 53.7212 63.9766 53.8597C64.8201 55.5617 65.6951 57.2479 66.5291 58.9546C66.633 59.1687 66.7951 59.3426 66.9123 59.5463Z" fill="#EF4924"/>
<path d="M50.2192 39.4776C50.5458 39.2809 50.8912 39.1266 51.2508 39.0007C51.5774 39.3281 51.6655 39.7813 51.8528 40.1787C52.8536 42.2985 53.7632 44.4599 54.7838 46.5711C54.9152 46.8426 55.1347 47.1014 55.0356 47.4445C54.7083 47.6286 54.3652 47.7758 54.0087 47.893C53.2722 46.2139 52.5224 44.5418 51.7457 42.8807C51.2185 41.7547 50.7102 40.6201 50.2192 39.4776Z" fill="#EE8523"/>
<path d="M45.2786 41.9239C45.5957 41.6988 45.934 41.5115 46.2889 41.3518C46.4148 41.3927 46.4604 41.5021 46.51 41.6099C47.6108 44.0051 48.6967 46.4074 49.792 48.8057C49.9053 49.0544 50.0351 49.2983 50.065 49.5776C50.065 49.6185 50.0579 49.6579 50.0438 49.6964C50.0343 49.7137 50.0241 49.7318 50.0147 49.7491C49.7416 49.9459 49.4599 50.1205 49.1035 50.1032C48.5149 49.1826 48.1419 48.1558 47.684 47.1714C46.872 45.4269 46.1111 43.6589 45.2786 41.9239Z" fill="#F16A24"/>
<path d="M48.505 60.8242C48.9433 61.5324 49.262 62.3019 49.6499 63.0361C50.1551 63.9929 50.6453 64.9584 51.1316 65.9246C51.4998 66.6556 51.8476 67.3968 52.2119 68.1294C52.385 68.478 52.5747 68.8179 52.7564 69.1618C52.4826 69.3427 52.1938 69.497 51.887 69.6158C51.6863 69.6402 51.6627 69.4623 51.6053 69.3475C50.4989 67.123 49.3462 64.9214 48.2462 62.6946C48.0841 62.3665 47.9039 62.047 47.7481 61.7149C47.682 61.5741 47.5954 61.4317 47.7135 61.2751C47.9566 61.0878 48.221 60.9383 48.505 60.8242Z" fill="#EB9D23"/>
<path d="M47.7133 61.2751C47.7589 61.693 48.017 62.0211 48.1933 62.3807C48.8755 63.7687 49.5412 65.1662 50.2753 66.5266C50.8277 67.5495 51.2738 68.626 51.886 69.6158C51.5902 69.8126 51.2754 69.9715 50.9465 70.106C49.9661 68.1224 48.988 66.1371 48.0029 64.1558C47.6724 63.4909 47.3222 62.8347 46.9831 62.1737C46.9178 62.0471 46.8336 61.9251 46.8478 61.7709C47.1373 61.6056 47.4253 61.4404 47.7133 61.2751Z" fill="#EAA023"/>
<path d="M61.3299 64.6752C61.0931 64.8625 60.8382 65.0198 60.562 65.1418C60.3259 65.1796 60.2921 64.975 60.2213 64.8381C59.7248 63.8899 59.2613 62.9244 58.7695 61.9739C57.9905 60.4694 57.2391 58.9516 56.4861 57.4345C56.427 57.3157 56.3318 57.2244 56.2712 57.108C56.4876 56.746 56.8582 56.6579 57.2296 56.5706C57.472 56.6398 57.5656 56.8546 57.6632 57.0482C58.8773 59.4497 60.0749 61.8598 61.2764 64.2684C61.3386 64.3966 61.4149 64.5265 61.3299 64.6752Z" fill="#F16A24"/>
<path d="M55.9616 36.7795C56.6737 38.3737 57.3575 39.9813 58.1058 41.5581C58.6747 42.7549 59.1523 43.9966 59.8275 45.1423C59.5237 45.3398 59.2295 45.553 58.8848 45.6781C58.4292 45.0612 58.1648 44.3467 57.8627 43.6527C57.47 42.7526 57.0522 41.8658 56.6265 40.9814C56.241 40.1811 55.927 39.3471 55.554 38.5397C55.3565 38.1125 55.1315 37.6986 54.9316 37.2729C55.2558 37.0699 55.606 36.9188 55.9616 36.7795Z" fill="#EAA023"/>
<path d="M38.4314 57.0292C38.7092 56.6759 39.1372 56.5468 39.5086 56.3509C41.3813 55.3642 43.2485 54.3672 45.126 53.3899C46.5305 52.6589 47.9201 51.902 49.3294 51.1789C51.0967 50.2724 52.8254 49.2912 54.6084 48.4139C54.7146 48.3611 54.857 48.3084 54.8736 48.1487C55.1096 48.2014 55.3457 48.2541 55.5817 48.3068C55.6683 48.5397 55.4496 48.5586 55.3378 48.6224C54.4133 49.1472 53.4588 49.6177 52.5185 50.1135C52.3005 50.2283 52.0771 50.3346 51.8827 50.4888C51.8544 50.5132 51.8229 50.5336 51.7891 50.551C51.5593 50.6218 51.3697 50.7705 51.1588 50.8799C49.8597 51.5802 48.5685 52.2946 47.2497 52.9595C45.9215 53.6291 44.6271 54.3609 43.3068 55.0439C42.2067 55.6128 41.1201 56.2069 40.0295 56.7931C39.7297 56.9544 39.422 57.144 39.0625 57.1763C38.8445 57.1558 38.6313 57.122 38.4314 57.0292Z" fill="#AD2024"/>
<path d="M58.0972 46.0749C57.8202 46.2338 57.5361 46.3762 57.2324 46.4769C57.0963 46.4038 57.0357 46.2739 56.9743 46.1425C55.8507 43.7536 54.7585 41.3506 53.6963 38.9349C53.5649 38.6359 53.3792 38.3636 53.2729 38.0536C53.5822 37.8711 53.9016 37.7113 54.2416 37.5957C54.4336 37.5736 54.4359 37.746 54.4816 37.8506C55.3825 39.9145 56.3826 41.9328 57.2631 44.0054C57.4834 44.524 57.7659 45.0134 58.0004 45.5256C58.0783 45.6948 58.2168 45.8648 58.0972 46.0749Z" fill="#EC9722"/>
<path d="M64.5427 41.9091C63.951 40.6203 63.3577 39.3322 62.7691 38.0409C62.2089 36.8119 61.6172 35.5962 61.1073 34.3435C61.0845 34.2876 61.0247 34.2475 60.9822 34.1995C61.2355 34.0107 61.5125 33.8643 61.8037 33.7431C62.0822 33.5999 62.1404 33.8415 62.2278 33.9996C62.5889 34.6519 62.8565 35.3475 63.1594 36.0266C63.8566 37.5877 64.5679 39.141 65.2997 40.6856C65.365 40.8241 65.4681 40.9563 65.4106 41.127C65.162 41.4339 64.8496 41.6684 64.5427 41.9091Z" fill="#E4BC23"/>
<path d="M41.2642 66.1562C41.6978 66.7031 41.9173 67.368 42.2368 67.9763C43.1393 69.694 43.9868 71.4416 44.8531 73.1782C44.9168 73.3056 44.9963 73.3946 45.1458 73.4001C44.772 73.6416 44.3991 73.8832 44.0253 74.1248C43.8152 73.5173 43.48 72.9704 43.1983 72.3968C42.7349 71.4534 42.2635 70.5131 41.7883 69.5751C41.3547 68.7183 40.9117 67.8661 40.4727 67.0116C40.737 66.7267 41.0006 66.4419 41.2642 66.1562Z" fill="#E3C023"/>
<path d="M65.4112 41.1274C64.4496 39.1548 63.5424 37.1577 62.6666 35.1457C62.4896 34.7397 62.2858 34.3455 62.0969 33.945C62.0371 33.8183 61.9679 33.7152 61.8042 33.7428C62.1654 33.5303 62.5265 33.3187 62.8877 33.1062C63.1639 33.3092 63.1781 33.6523 63.289 33.9308C63.5494 34.5839 63.9004 35.1898 64.1813 35.8311C64.751 37.131 65.4167 38.3884 65.9163 39.719C65.9989 39.9393 66.1854 40.1092 66.2027 40.3555C65.9667 40.6411 65.7007 40.8969 65.4112 41.1274Z" fill="#E3BF23"/>
<path d="M42.2777 44.106C43.1716 46.0644 44.0671 48.0221 44.9586 49.9814C45.2009 50.5141 45.4928 51.0248 45.6675 51.5874C45.6479 51.6149 45.6219 51.633 45.5888 51.6401C45.507 51.6559 45.437 51.696 45.3732 51.7495C45.278 51.8313 45.175 51.8982 45.0561 51.9407C44.8815 51.9777 44.7406 52.1705 44.5321 52.0579C43.5776 49.8185 42.5366 47.6177 41.5326 45.4003C41.4578 45.2351 41.343 45.0801 41.4083 44.8818C41.6711 44.593 41.9669 44.3412 42.2777 44.106Z" fill="#F05324"/>
<path d="M64.3961 62.3123C64.0948 61.708 63.7934 61.1029 63.4912 60.4994C62.6328 58.7809 61.7751 57.0632 60.9135 55.3462C60.8505 55.2203 60.8136 55.0748 60.6924 54.9819C60.919 54.5877 61.325 54.5491 61.7106 54.4705C61.8719 54.5554 61.9474 54.712 62.023 54.8631C63.0789 56.9695 64.1412 59.0728 65.1861 61.1839C65.227 61.2665 65.2617 61.3507 65.2774 61.442C65.0201 61.7686 64.7124 62.0447 64.3961 62.3123Z" fill="#F05324"/>
<path d="M56.6056 67.1836C56.3711 67.3693 56.0831 67.4487 55.8195 67.577C55.5622 67.4448 55.4961 67.171 55.382 66.9459C54.1805 64.5767 52.9758 62.2083 51.7971 59.8272C51.7169 59.6644 51.6075 59.5109 51.5996 59.3189C51.7239 59.0246 52.0324 58.9987 52.2661 58.8625C52.3046 58.8507 52.3448 58.8452 52.3849 58.846C52.6697 58.8862 52.7508 59.1348 52.846 59.3378C53.2449 60.1931 53.6989 61.0201 54.1215 61.8636C54.9194 63.4562 55.7227 65.0457 56.5159 66.6406C56.5993 66.809 56.7512 66.9735 56.6056 67.1836Z" fill="#EE8423"/>
<path d="M50.22 39.4778C50.571 39.905 50.7598 40.4236 50.9731 40.9177C51.4475 42.0193 51.9661 43.0997 52.4657 44.1895C52.9858 45.3249 53.4973 46.4651 54.0182 47.6005C54.0678 47.7091 54.0717 47.7964 54.0095 47.8924C53.9608 47.9341 53.8687 47.8846 53.8404 47.9711C53.7452 48.1112 53.5925 48.1757 53.4556 48.263C53.4194 48.2764 53.3816 48.2827 53.3431 48.2851C53.2825 48.2835 53.2274 48.267 53.177 48.2331C52.7931 47.6674 52.5893 47.0143 52.3005 46.4029C51.4963 44.7033 50.7504 42.9769 49.9533 41.2742C49.7385 40.8154 49.4938 40.3685 49.3616 39.8744C49.6315 39.7083 49.9171 39.5754 50.22 39.4778Z" fill="#EF8022"/>
<path d="M60.6935 44.6623C60.4763 43.936 60.1049 43.275 59.7949 42.5889C58.9797 40.7846 58.1488 38.9874 57.3131 37.1918C57.1778 36.9007 57.0983 36.5804 56.8914 36.3247C57.1384 36.1618 57.402 36.0304 57.6814 35.9329C57.849 35.9974 57.8922 36.1587 57.956 36.2987C58.971 38.5059 59.9829 40.7138 60.9964 42.9209C61.1813 43.323 61.3702 43.7228 61.5574 44.124C61.2993 44.3491 60.9995 44.5104 60.6935 44.6623Z" fill="#E8A923"/>
<path d="M58.5696 49.0008C58.8285 48.9504 59.0386 49.118 59.2778 49.159C59.3219 49.3486 59.1724 49.4084 59.0527 49.48C58.0849 50.0568 57.0628 50.5336 56.0761 51.075C55.0311 51.6486 53.9634 52.1758 52.9145 52.74C51.4501 53.5276 49.9748 54.2932 48.5065 55.073C46.9572 55.896 45.3992 56.7034 43.857 57.5406C43.5241 57.7208 43.1826 57.8844 42.8364 58.0371C42.6271 57.9859 42.4178 57.9348 42.2085 57.8836C42.1888 57.6248 42.4123 57.5713 42.5704 57.48C43.5406 56.9205 44.5604 56.4531 45.5369 55.9039C45.7863 55.7631 46.0287 55.6096 46.2876 55.4861C46.9816 55.2422 47.5725 54.7976 48.2311 54.4836C48.4774 54.3664 48.726 54.2476 48.9519 54.0894C49.0675 54.0296 49.1942 53.9934 49.3004 53.9147C50.295 53.4041 51.2849 52.8832 52.2685 52.3512C52.9546 51.994 53.6596 51.6722 54.3033 51.2386C54.7825 50.9262 55.3183 50.724 55.8235 50.4596C56.549 50.0812 57.2406 49.6421 57.9818 49.2912C58.177 49.1991 58.4028 49.155 58.5696 49.0008Z" fill="#CE2227"/>
<path d="M40.9265 57.5864C43.6782 56.1267 46.4266 54.6593 49.1838 53.2091C51.3319 52.0792 53.4926 50.9728 55.6447 49.85C56.1963 49.562 56.7305 49.2394 57.2821 48.9514C57.4096 48.8845 57.493 48.8538 57.3931 48.7083C57.6276 48.761 57.8628 48.8129 58.0973 48.8656C58.2366 49.1418 57.9982 49.2111 57.8408 49.2945C56.5834 49.9633 55.3142 50.6093 54.0678 51.2978C54.0356 51.3198 54.0017 51.3379 53.9655 51.3529C53.1755 51.7259 52.4178 52.1618 51.6412 52.5607C50.3893 53.2044 49.1555 53.8834 47.8981 54.5192C47.2473 54.8481 46.6084 55.2045 45.9813 55.5791C44.657 56.2283 43.3618 56.9317 42.0619 57.6257C41.925 57.6989 41.8031 57.8098 41.63 57.7445C41.386 57.7374 41.1516 57.6816 40.9265 57.5864Z" fill="#C42227"/>
<path d="M68.5116 57.1174C68.2425 57.6352 67.9261 58.1238 67.5902 58.5998C67.2967 58.6526 67.2644 58.3945 67.1786 58.23C66.5334 56.9907 65.9197 55.7357 65.2941 54.4862C65.0604 54.0195 64.8133 53.56 64.6001 53.0832C64.9581 52.6701 65.4515 52.5324 65.9566 52.4207C66.1266 52.4946 66.1943 52.6528 66.273 52.8039C66.9213 54.0589 67.5437 55.3265 68.1716 56.5918C68.2661 56.783 68.3951 56.9451 68.5116 57.1174Z" fill="#EF3E24"/>
<path d="M47.0095 40.9797C47.2676 40.7987 47.5509 40.6681 47.8515 40.5753C48.0678 40.5532 48.0954 40.7397 48.1513 40.8696C49.1962 43.2805 50.3741 45.6308 51.4057 48.0473C51.5214 48.3187 51.7543 48.5485 51.7055 48.879C51.6433 49.0647 51.445 49.082 51.3199 49.1898C51.2593 49.2323 51.1948 49.2669 51.1209 49.2795C51.0107 49.2881 50.8974 49.3141 50.7982 49.237C50.5339 48.9348 50.4253 48.5477 50.2608 48.1968C49.7273 47.0613 49.2198 45.9141 48.6958 44.7747C48.1992 43.6944 47.7067 42.6124 47.2141 41.5297C47.1315 41.3511 47.0465 41.1741 47.0095 40.9797Z" fill="#F27324"/>
<path d="M49.3607 39.8743C49.7761 40.4943 50.0256 41.1993 50.3466 41.8658C50.9273 43.0744 51.4474 44.3121 51.9998 45.5341C52.4019 46.4249 52.8134 47.3101 53.2202 48.1984C53.1887 48.366 53.0156 48.3865 52.9204 48.4888C52.8889 48.5092 52.8551 48.5258 52.8205 48.5399C52.6568 48.5761 52.5042 48.7004 52.3248 48.6021C51.8149 47.587 51.3593 46.546 50.8935 45.5097C50.1058 43.759 49.2843 42.024 48.5022 40.2701C48.7737 40.108 49.0593 39.9742 49.3607 39.8743Z" fill="#F07B22"/>
<path d="M56.6058 67.1836C56.5924 66.7973 56.3359 66.5101 56.1777 66.1898C55.3224 64.4572 54.4356 62.7395 53.5622 61.0155C53.2506 60.4001 52.9453 59.7817 52.6369 59.1656C52.5787 59.0491 52.5315 58.9193 52.3662 58.9193C52.5983 58.6203 52.9398 58.5392 53.2829 58.4629C53.5032 58.5282 53.5504 58.7359 53.6354 58.9059C54.7402 61.1138 55.8512 63.3178 56.9473 65.5297C57.144 65.9262 57.4037 66.2898 57.5563 66.7092C57.2573 66.9004 56.941 67.0601 56.6058 67.1836Z" fill="#EF8022"/>
<path d="M56.2806 57.1015C56.4805 57.107 56.5253 57.2683 56.5922 57.4099C56.9691 58.2039 57.4019 58.9718 57.7788 59.7634C58.2131 60.6754 58.6884 61.5645 59.1353 62.4686C59.5626 63.3326 60.0001 64.1926 60.4368 65.0519C60.4572 65.0928 60.5194 65.1125 60.5619 65.1424C60.3172 65.3438 60.0347 65.4784 59.7451 65.5995C59.5437 65.605 59.4902 65.4359 59.4257 65.3053C58.4279 63.2917 57.3972 61.2939 56.4002 59.2803C56.1681 58.8121 55.9194 58.3518 55.6881 57.8828C55.6134 57.7302 55.5174 57.587 55.537 57.4052C55.7243 57.1558 55.9659 57.0385 56.2806 57.1015Z" fill="#F16E24"/>
<path d="M57.5578 66.7084C57.2517 66.4771 57.1447 66.1144 56.9834 65.7957C55.8259 63.5059 54.6834 61.2091 53.5338 58.9154C53.4646 58.7777 53.4268 58.618 53.2922 58.5188C53.4842 58.1773 53.7911 58.0703 54.1609 58.0924C54.574 58.607 54.7967 59.2278 55.0847 59.8085C56.1163 61.8897 57.1974 63.9458 58.2274 66.0278C58.273 66.1207 58.3407 66.2049 58.3447 66.315C58.0999 66.4803 57.8371 66.6109 57.5578 66.7084Z" fill="#F07B22"/>
<path d="M51.645 59.3011C53.0361 62.0598 54.4281 64.8185 55.8192 67.5773C55.5785 67.7441 55.3164 67.8684 55.0426 67.9691C54.7853 67.9825 54.7806 67.7464 54.7082 67.6032C53.9268 66.0618 53.1628 64.5109 52.3799 62.9702C51.9416 62.107 51.5356 61.2273 51.0595 60.3822C50.9407 60.1714 50.7944 59.9573 50.8077 59.6922C51.0241 59.4286 51.2791 59.246 51.645 59.3011Z" fill="#ED8A23"/>
<path d="M68.3285 51.1453C68.7354 51.0485 69.0454 50.7558 69.4254 50.6055C69.4608 50.622 69.5033 50.6409 69.5167 50.6747C69.7984 51.3711 70.254 51.9825 70.4995 52.6961C70.1934 53.701 69.8133 54.6759 69.3294 55.6091C69.0721 55.6162 69.0202 55.3974 68.9352 55.2322C68.5229 54.4296 68.1279 53.6183 67.7219 52.8126C67.5574 52.4861 67.4001 52.1556 67.2002 51.8479C67.2962 51.5135 67.6306 51.4844 67.8667 51.3294C68.0075 51.2373 68.1743 51.2058 68.3285 51.1453Z" fill="#EC2F26"/>
<path d="M35.781 53.5647C36.1587 52.5213 36.6009 51.5071 37.1549 50.5439C37.2989 50.5786 37.3571 50.6966 37.4153 50.8146C37.9984 52.0075 38.5326 53.2232 39.0858 54.4302C39.0787 54.553 38.989 54.6136 38.8946 54.6529C38.251 54.9252 37.6364 55.2564 37.014 55.572C36.9668 55.5956 36.9133 55.5932 36.8621 55.5869C36.5616 55.3335 36.5088 54.9441 36.3483 54.6167C36.1729 54.2571 36.0202 53.8889 35.781 53.5647Z" fill="#EC2F26"/>
<path d="M58.0967 46.0745C57.8653 45.2767 57.3901 44.589 57.073 43.8281C56.5363 42.5376 55.9202 41.281 55.3222 40.0173C54.9445 39.2194 54.6455 38.3822 54.2395 37.5946C54.4527 37.4506 54.6856 37.3499 54.9296 37.272C55.1523 37.2924 55.168 37.5096 55.2309 37.6418C55.7078 38.6498 56.1508 39.6735 56.5993 40.6948C56.9911 41.5871 57.4475 42.4534 57.8409 43.3481C58.1832 44.1271 58.5357 44.9013 58.8843 45.6772C58.6199 45.8054 58.3855 45.9943 58.0967 46.0745Z" fill="#EB9D23"/>
<path d="M47.0093 40.9795C47.2729 41.2675 47.3783 41.6428 47.5396 41.9835C47.9732 42.9002 48.3611 43.8389 48.7836 44.7611C49.469 46.2546 50.1669 47.7417 50.8602 49.2313C50.8507 49.3328 50.7831 49.3926 50.7067 49.4477C50.6131 49.5051 50.5116 49.5405 50.4054 49.5649C50.2677 49.5751 50.1481 49.6987 49.997 49.6341C49.7727 48.8386 49.395 48.1006 49.0378 47.3672C48.2879 45.8265 47.6695 44.2284 46.9007 42.6988C46.678 42.2558 46.4978 41.7986 46.2893 41.3517C46.5104 41.1912 46.752 41.07 47.0093 40.9795Z" fill="#F26E24"/>
<path d="M38.0103 49.0709C38.2801 48.6106 38.5532 48.1527 38.897 47.7419C39.137 47.6388 39.1898 47.8348 39.259 47.9803C39.7618 49.0434 40.2512 50.1135 40.7186 51.1923C40.9578 51.7447 41.2749 52.2593 41.4842 52.825C41.5527 53.0091 41.6377 53.1901 41.5425 53.3908C41.5078 53.4419 41.4567 53.4695 41.4008 53.4876C41.2757 53.5167 41.1545 53.556 41.0538 53.6426C40.9358 53.7441 40.8012 53.8102 40.6447 53.8267C40.5298 53.8377 40.4149 53.8865 40.2984 53.8306C39.9381 53.3144 39.7146 52.7267 39.4478 52.1625C38.9624 51.1341 38.5721 50.0624 38.0103 49.0709Z" fill="#EF3E24"/>
<path d="M45.8147 62.4302C46.7227 64.2258 47.6543 66.0096 48.5285 67.8209C48.9857 68.7683 49.5404 69.6685 49.9213 70.6528C49.6986 70.8078 49.4665 70.9432 49.21 71.0329C49.018 70.9865 48.955 70.8181 48.8811 70.6686C47.6528 68.1994 46.4103 65.7381 45.182 63.269C45.1254 63.1549 45.0412 63.0416 45.1065 62.9007C45.3166 62.7056 45.5629 62.5647 45.8147 62.4302Z" fill="#E8AA23"/>
<path d="M56.3682 46.8718C56.1683 46.9804 55.9755 47.1055 55.7395 47.1228C55.5782 47.0536 55.5286 46.8986 55.4641 46.7569C54.6151 44.9039 53.7653 43.0516 52.9217 41.1962C52.5503 40.3787 52.245 39.5241 51.7273 38.7766C51.998 38.6137 52.2812 38.4768 52.5818 38.3777C52.8848 38.4548 52.9154 38.7546 53.0146 38.9663C54.0477 41.1687 55.0116 43.4033 56.0676 45.5955C56.2092 45.8898 56.2934 46.2085 56.4406 46.502C56.5067 46.6342 56.5476 46.779 56.3682 46.8718Z" fill="#ED8E23"/>
<path d="M56.3684 46.8718C56.429 46.7758 56.4275 46.6885 56.3779 46.5791C56.0419 45.8426 55.7295 45.0943 55.3817 44.3633C54.7302 42.9942 54.1306 41.6022 53.498 40.2252C53.2116 39.6021 52.9558 38.9584 52.5813 38.3769C52.7938 38.2314 53.0259 38.1267 53.2722 38.0527C53.5806 38.2707 53.6609 38.6326 53.8064 38.9442C54.1802 39.7461 54.5099 40.5683 54.8766 41.3733C55.6099 42.9855 56.3566 44.5915 57.0979 46.1999C57.1411 46.2927 57.2371 46.3596 57.2324 46.476C56.9578 46.6374 56.6769 46.7837 56.3684 46.8718Z" fill="#ED9323"/>
<path d="M45.106 62.9023C46.0415 64.753 46.9881 66.5974 47.9072 68.456C48.3337 69.3192 48.7287 70.1973 49.2094 71.0337C48.9742 71.1643 48.7381 71.2942 48.5028 71.4248C48.3022 71.4476 48.2794 71.2698 48.2219 71.1549C47.5051 69.726 46.7954 68.2923 46.062 66.872C45.5812 65.9412 45.1115 65.0048 44.6425 64.0677C44.5402 63.8623 44.3663 63.6766 44.4127 63.4169C44.6441 63.2454 44.8746 63.0739 45.106 62.9023Z" fill="#E6AE23"/>
<path d="M49.5237 59.5269C49.3388 59.486 49.1428 59.4876 48.9729 59.3869C48.954 59.1437 49.1617 59.0926 49.3104 59.0115C51.2083 57.9808 53.133 57.0019 55.0388 55.9861C58.2271 54.288 61.4281 52.6152 64.6156 50.9164C64.88 50.7755 65.1538 50.6543 65.4135 50.5056C65.6047 50.5308 65.7959 50.552 65.9714 50.6425C65.9942 50.951 65.7353 51.0202 65.5417 51.1296C64.6306 51.645 63.669 52.0644 62.7539 52.5719C61.5547 53.2368 60.3131 53.8214 59.1296 54.5147C58.689 54.7727 58.2192 54.9734 57.766 55.2055C56.5472 55.8311 55.3299 56.4637 54.1323 57.1239C53.011 57.7423 51.8386 58.2609 50.7362 58.9108C50.3436 59.1437 49.9486 59.3625 49.5237 59.5269Z" fill="#D62227"/>
<path d="M50.8551 59.68C51.2612 60.4959 51.6656 61.3119 52.0732 62.1271C52.986 63.955 53.8995 65.7828 54.8154 67.6091C54.8784 67.735 54.9122 67.8838 55.0428 67.9687C54.7965 68.1411 54.5282 68.2701 54.252 68.3858C54.0152 68.1308 53.9207 67.7964 53.7705 67.4958C52.9978 65.9497 52.2015 64.4161 51.4351 62.8667C51.0227 62.0335 50.5994 61.2049 50.191 60.3693C50.1344 60.2544 50.0502 60.1395 50.1478 60.0042C50.2674 59.9302 50.387 59.857 50.5066 59.7831C50.5923 59.6485 50.7025 59.5942 50.8551 59.68Z" fill="#ED8E23"/>
<path d="M67.2173 51.8321C67.4014 51.9132 67.4667 52.0871 67.5478 52.2492C68.0411 53.2367 68.536 54.2242 69.0294 55.2125C69.1049 55.3636 69.1726 55.5201 69.33 55.6091C69.0853 56.1268 68.8445 56.6469 68.5117 57.1175C68.3181 57.1135 68.2536 56.9672 68.182 56.8248C67.5045 55.469 66.827 54.1132 66.1471 52.7583C66.0944 52.6536 66.0252 52.5584 65.963 52.4593C65.9544 52.2893 66.0968 52.2405 66.2062 52.2028C66.5469 52.0871 66.8042 51.7432 67.2173 51.8321Z" fill="#ED3925"/>
<path d="M38.0098 49.071C38.2821 49.1403 38.3395 49.396 38.4245 49.5982C39.0233 51.0185 39.6811 52.412 40.3232 53.8126C40.342 53.8473 40.342 53.8827 40.3255 53.9181C40.1894 54.081 40.0171 54.1801 39.8062 54.2092C39.6827 54.221 39.5733 54.2698 39.4726 54.3414C39.3459 54.4099 39.2223 54.4925 39.0666 54.4343C38.9052 54.3603 38.884 54.1982 38.8155 54.0597C38.2411 52.8983 37.7793 51.6834 37.1553 50.5448C37.4008 50.0302 37.6675 49.5282 38.0098 49.071Z" fill="#ED3925"/>
<path d="M55.5801 57.4195C56.5047 59.2608 57.4158 61.1091 58.3601 62.9401C58.7173 63.6333 59.073 64.3297 59.4113 65.0332C59.5081 65.2346 59.597 65.4313 59.7442 65.5989C59.5057 65.7744 59.2453 65.9081 58.9652 66.0026C58.6961 65.7508 58.6292 65.3888 58.4631 65.0812C57.4717 63.2368 56.57 61.3475 55.6202 59.4827C55.3362 58.924 55.0679 58.3575 54.7681 57.8059C54.9648 57.5226 55.2181 57.3582 55.5801 57.4195Z" fill="#F27324"/>
<path d="M64.6252 53.0927C64.788 53.1643 64.8211 53.3303 64.8895 53.4665C65.6914 55.0638 66.4892 56.6627 67.2934 58.2584C67.3611 58.3922 67.4209 58.5472 67.59 58.5999C67.3957 58.9383 67.1714 59.2546 66.9118 59.5465C66.6285 59.4993 66.5663 59.2412 66.4664 59.0437C65.5993 57.3292 64.744 55.6083 63.8832 53.8914C63.8257 53.7765 63.7935 53.6427 63.677 53.564C63.9028 53.2241 64.2168 53.0636 64.6252 53.0927Z" fill="#EE4424"/>
<path d="M41.4976 53.3947C41.5417 53.0752 41.3859 52.803 41.2545 52.541C40.5014 51.0333 39.8594 49.4754 39.1449 47.9504C39.0882 47.8293 39.0316 47.7498 38.8962 47.7419C39.1268 47.4051 39.3707 47.0794 39.6556 46.7859C40.0065 47.0542 40.1096 47.4775 40.2811 47.8466C41.0271 49.451 41.7439 51.068 42.4686 52.6818C42.4945 52.7393 42.5008 52.8061 42.5158 52.8691C42.4284 52.9415 42.3828 53.0516 42.2923 53.1217C42.2459 53.1461 42.1971 53.1516 42.146 53.1492C42.0106 53.1382 41.9319 53.2373 41.8391 53.3082C41.7336 53.3672 41.64 53.4781 41.4976 53.3947Z" fill="#EE4324"/>
<path d="M59.2689 55.6852C59.5632 55.7773 59.6057 56.0771 59.7151 56.2903C60.8214 58.4558 61.9033 60.633 62.9931 62.8071C63.0749 62.97 63.1631 63.1297 63.3063 63.2501C63.0938 63.4712 62.853 63.6561 62.5863 63.8072C62.3463 63.5593 62.2133 63.243 62.0638 62.9432C60.9001 60.6204 59.7339 58.2992 58.5474 55.9882C58.722 55.7301 58.9384 55.5711 59.2689 55.6852Z" fill="#F15F24"/>
<path d="M51.7263 38.7755C51.9955 38.733 52.0151 38.9856 52.0773 39.1217C53.1498 41.4571 54.2065 43.7996 55.2688 46.1397C55.4191 46.4702 55.5819 46.7944 55.7385 47.1217C55.5269 47.2791 55.2885 47.3782 55.0343 47.4435C54.7416 46.5481 54.2482 45.7431 53.869 44.8862C53.0152 42.9569 52.1371 41.0393 51.2708 39.1154C51.255 39.0808 51.2558 39.0391 51.2495 39.0005C51.3919 38.8904 51.5525 38.8188 51.7263 38.7755Z" fill="#ED8A23"/>
<path d="M44.4141 63.4177C45.6975 65.9546 46.9793 68.4914 48.2642 71.0266C48.3343 71.1643 48.3728 71.3233 48.5034 71.4256C48.2839 71.5877 48.0486 71.7222 47.7953 71.8229C47.6229 71.7663 47.5781 71.6042 47.5096 71.4673C46.3168 69.0886 45.127 66.7092 43.9397 64.3281C43.8649 64.1778 43.7626 64.0291 43.85 63.8474C44.0136 63.6703 44.208 63.5365 44.4141 63.4177Z" fill="#E6B123"/>
<path d="M43.8485 63.8467C43.9067 63.9915 43.9539 64.141 44.0239 64.2802C45.279 66.795 46.5371 69.309 47.7938 71.8231C47.5585 71.9552 47.3224 72.0882 47.0872 72.2204C47.0856 71.9411 46.8959 71.7459 46.7803 71.5154C45.5968 69.1595 44.4213 66.7998 43.2449 64.4408C43.2339 64.4187 43.2347 64.3896 43.23 64.3644C43.4361 64.1913 43.6423 64.019 43.8485 63.8467Z" fill="#E5B423"/>
<path d="M50.1476 60.0051C50.5032 60.7393 50.8542 61.4766 51.2153 62.2083C51.5655 62.9173 51.9243 63.6215 52.2807 64.3265C52.6852 65.1252 53.0998 65.9184 53.4941 66.7217C53.7624 67.2686 54.0984 67.7871 54.251 68.3867C54.0653 68.4827 53.8788 68.5787 53.6931 68.6747C52.7867 66.9098 51.8487 65.1606 50.9871 63.3737C50.4961 62.3563 49.9052 61.3853 49.5181 60.3175C49.7101 60.1767 49.9186 60.0696 50.1476 60.0051Z" fill="#ED9223"/>
<path d="M65.2782 61.4418C64.9005 61.0366 64.7408 60.5047 64.4969 60.0278C63.7903 58.6414 63.1254 57.2345 62.3944 55.8598C62.1568 55.4137 61.9412 54.9557 61.7153 54.5033C61.8908 54.198 62.1513 54.0666 62.5014 54.1162C62.8264 54.7543 63.1277 55.4042 63.4606 56.04C63.8225 56.7309 64.1971 57.417 64.5441 58.1173C64.9816 59.001 65.3703 59.9106 65.914 60.7391C65.7456 61.0114 65.5135 61.2286 65.2782 61.4418Z" fill="#F04F24"/>
<path d="M58.5665 56.0031C58.7703 56.0228 58.7868 56.2109 58.8529 56.3415C59.5831 57.7909 60.3023 59.245 61.0333 60.6944C61.4794 61.5796 61.9413 62.4562 62.3922 63.339C62.4685 63.4893 62.5708 63.6309 62.5858 63.808C62.4268 63.9646 62.2537 64.103 62.0483 64.1959C61.7619 64.2116 61.7328 63.9591 61.647 63.7883C60.5966 61.6921 59.5406 59.5983 58.4996 57.4974C58.3029 57.1 58.0078 56.7514 57.9087 56.3061C58.0676 56.07 58.2659 55.9252 58.5665 56.0031Z" fill="#F06224"/>
<path d="M57.9335 56.3156C58.142 56.676 58.3694 57.027 58.5567 57.3976C59.6347 59.5386 60.7033 61.6844 61.7765 63.8278C61.845 63.9655 61.8827 64.1299 62.0503 64.1952C61.8418 64.403 61.5712 64.5171 61.3304 64.676C61.2777 64.5438 61.2344 64.4061 61.1714 64.2794C59.999 61.9307 58.825 59.5827 57.6502 57.2347C57.5401 57.0144 57.4386 56.787 57.2324 56.6343C57.3725 56.3227 57.6321 56.2724 57.9335 56.3156Z" fill="#F06623"/>
<path d="M56.6792 48.5494C56.5305 48.7406 56.3298 48.8405 56.1087 48.9342C55.7641 49.0797 55.4383 49.2709 55.107 49.4472C53.5113 50.2931 51.9155 51.1389 50.3214 51.988C48.5423 52.9345 46.7695 53.8929 44.9857 54.8309C43.8149 55.4462 42.6188 56.0143 41.4582 56.6469C41.0191 56.8861 40.514 57.0294 40.1623 57.4188C39.9341 57.4267 39.7248 57.3543 39.5178 57.2717C39.5879 57.1316 39.7256 57.0781 39.8514 57.012C41.9146 55.9333 43.9667 54.8332 46.0243 53.745C47.7814 52.8157 49.5424 51.8951 51.2971 50.9611C52.7504 50.1876 54.2124 49.4315 55.6641 48.6548C55.8152 48.5738 55.9828 48.5392 56.1307 48.455C56.3251 48.418 56.4966 48.5163 56.6792 48.5494Z" fill="#B62125"/>
<path d="M41.4073 44.8818C42.2477 46.7223 43.1077 48.5541 43.9182 50.4072C44.1543 50.9461 44.5367 51.4371 44.5658 52.0596C44.5257 52.1296 44.4541 52.1453 44.384 52.1626C44.2503 52.1658 44.1818 52.2822 44.0795 52.3412C44.0236 52.3538 43.9741 52.3468 43.9371 52.298C43.5901 51.7196 43.2415 51.1429 43.0566 50.4858C43.0354 50.4111 42.9929 50.3426 42.959 50.2718C42.5019 49.3063 42.0006 48.3582 41.6041 47.3683C41.3515 46.7372 40.9856 46.1613 40.781 45.5129C40.9636 45.2761 41.176 45.0691 41.4073 44.8818Z" fill="#F04F24"/>
<path d="M44.0769 42.7013C44.2925 42.5046 44.5317 42.3425 44.7945 42.2158C45.1525 42.5809 45.269 43.0766 45.4704 43.5204C45.8859 44.4371 46.3588 45.3271 46.742 46.2587C47.2999 47.6121 48.0151 48.8947 48.5321 50.2669C48.3724 50.573 48.1166 50.6981 47.7775 50.6651C47.2558 49.6107 46.8034 48.5241 46.2966 47.4618C45.9307 46.6946 45.6341 45.8944 45.2352 45.1437C44.8118 44.3466 44.5592 43.4693 44.0769 42.7013Z" fill="#F06224"/>
<path d="M48.51 50.2669C48.2251 49.9608 48.1457 49.5493 47.9702 49.1881C47.1165 47.4287 46.3807 45.6134 45.5058 43.8634C45.2382 43.3292 45.0297 42.7658 44.7944 42.2158C44.9447 42.0985 45.0911 41.9758 45.2799 41.9238C45.6655 42.1984 45.7764 42.6501 45.9377 43.0443C46.5877 44.629 47.373 46.1508 48.0544 47.7198C48.3817 48.4728 48.698 49.2298 49.1127 49.9403C49.1363 49.9812 49.1245 50.0426 49.1284 50.0953C48.9608 50.2905 48.7563 50.3534 48.51 50.2669Z" fill="#F06623"/>
<path d="M57.9334 56.3156C57.6918 56.4045 57.4353 56.4604 57.2315 56.6335C56.8916 56.7429 56.5752 56.9018 56.2802 57.1017C56.0394 57.1906 55.7837 57.248 55.5807 57.4196C55.2935 57.5038 55.0299 57.6375 54.7851 57.8083C54.7246 57.9255 54.6018 57.9578 54.5011 58.0191C54.3925 58.0656 54.291 58.1388 54.1627 58.1191C53.837 58.1749 53.5616 58.3402 53.2925 58.5188C52.984 58.6518 52.6764 58.7855 52.3679 58.9185C52.3427 58.9225 52.3176 58.9248 52.2916 58.9248C52.1869 58.9681 52.1704 58.8965 52.1562 58.8217C52.161 58.7871 52.1751 58.7564 52.1995 58.7297C52.2814 58.6738 52.3868 58.6636 52.4616 58.5936C52.4875 58.5731 52.5158 58.5558 52.5457 58.5408C52.6221 58.5078 52.6976 58.474 52.7661 58.4267C52.7944 58.4079 52.8251 58.3937 52.8558 58.3795C52.9345 58.3488 53.0124 58.3166 53.0808 58.2662C53.1091 58.2458 53.139 58.2285 53.1697 58.2119C53.2822 58.1584 53.3916 58.1002 53.4994 58.0372C55.2958 57.071 57.1009 56.1197 58.9067 55.1723C61.6056 53.7567 64.2975 52.3294 66.994 50.9115C67.0168 50.8997 67.0428 50.8934 67.068 50.8855C67.2954 50.891 67.5126 50.9382 67.7211 51.0295C67.6668 51.2349 67.4787 51.301 67.3221 51.382C65.5777 52.2806 63.8521 53.2154 62.1155 54.1305C61.3877 54.5145 60.6409 54.8599 59.9084 55.2337C59.7935 55.2919 59.6597 55.3257 59.5928 55.4532C59.485 55.5303 59.3772 55.6066 59.2694 55.6838C59.0003 55.7121 58.7777 55.8443 58.5668 56.0016C58.3339 56.063 58.1222 56.1661 57.9334 56.3156Z" fill="#C32227"/>
<path d="M50.3797 49.4902C50.4859 49.4548 50.5914 49.4202 50.6976 49.3848C50.8227 49.3045 50.9659 49.2731 51.1068 49.2361C51.1532 49.207 51.1996 49.1787 51.2468 49.1495C51.3609 49.0677 51.5057 49.0575 51.6245 48.9867C51.6812 48.9473 51.7213 48.8867 51.7858 48.8568C51.9109 48.8017 52.0463 48.7734 52.1651 48.7042C52.2265 48.6711 52.2871 48.6365 52.361 48.646C52.5247 48.5924 52.6947 48.5539 52.841 48.4571C52.8599 48.4555 52.878 48.4508 52.8953 48.4422C53.0432 48.3281 53.236 48.3131 53.3934 48.2203C53.4115 48.2195 53.428 48.2148 53.4437 48.2061C53.5767 48.1479 53.6979 48.0566 53.8513 48.055C53.9009 48.0464 53.9497 48.0377 53.9993 48.0291C53.7852 48.3517 53.4075 48.4288 53.0999 48.598C52.1651 49.1133 51.1988 49.5689 50.2688 50.0953C49.6094 50.4683 48.9162 50.7815 48.2458 51.1356C47.3613 51.603 46.4887 52.0916 45.6043 52.5582C44.5027 53.1397 43.3908 53.7023 42.2885 54.283C41.3938 54.7535 40.5086 55.2414 39.6147 55.7143C39.0025 56.0385 38.3841 56.3516 37.7664 56.6656C37.6798 56.7097 37.62 56.7718 37.5697 56.8497C37.4068 56.8135 37.2439 56.7773 37.081 56.7411C37.0267 56.5476 37.2069 56.5318 37.3029 56.4768C38.0859 56.0267 38.89 55.6167 39.6958 55.2091C39.9074 55.1021 40.0994 54.9676 40.304 54.8503C41.2836 54.3814 42.2279 53.8471 43.1839 53.334C43.8519 52.9752 44.5334 52.644 45.2014 52.286C46.6296 51.5203 48.0538 50.7484 49.5055 50.0277C49.6763 49.9427 49.8903 49.9175 49.991 49.72L49.9879 49.6956C50.1216 49.635 50.2522 49.5658 50.3797 49.4902Z" fill="#A11F23"/>
<path d="M42.8357 58.0372C43.0898 57.6965 43.5069 57.6202 43.8507 57.4345C45.1648 56.7247 46.4985 56.0512 47.8189 55.3525C49.1723 54.6356 50.5162 53.8999 51.8696 53.1815C53.0294 52.5662 54.1979 51.9682 55.3593 51.3544C56.6081 50.695 57.8529 50.0278 59.0961 49.3582C59.1709 49.318 59.2181 49.226 59.2779 49.1583C59.473 49.1221 59.6461 49.2158 59.8287 49.2543C59.366 49.6808 58.7743 49.8846 58.2337 50.1741C56.5034 51.0995 54.7668 52.013 53.0318 52.9289C51.4903 53.7433 49.9465 54.5538 48.4051 55.3682C46.8597 56.1849 45.3159 57.0056 43.7689 57.8193C43.5447 57.9373 43.3251 58.0868 43.0505 58.0624C42.9789 58.0553 42.9073 58.0459 42.8357 58.0372Z" fill="#D22227"/>
<path d="M56.1306 48.4543C55.6766 48.8249 55.14 49.0531 54.6285 49.3245C53.667 49.8336 52.7039 50.3404 51.7431 50.851C50.0419 51.7567 48.3455 52.671 46.6411 53.5696C45.0407 54.4131 43.4252 55.2299 41.8287 56.0821C41.0639 56.4904 40.3101 56.9185 39.5169 57.271C39.3556 57.2836 39.2069 57.2372 39.0605 57.1774C39.9473 56.6675 40.8585 56.1977 41.761 55.7209C42.8485 55.1473 43.9343 54.5697 45.0234 53.9985C45.545 53.7246 46.0628 53.4469 46.5766 53.1597C47.0605 52.8898 47.5712 52.6702 48.063 52.4129C48.9734 51.9369 49.8791 51.4506 50.7855 50.9651C50.9098 50.8982 51.0137 50.7834 51.1742 50.8117C51.3906 50.7204 51.6054 50.6252 51.8037 50.4969C52.9958 49.8006 54.2618 49.2435 55.4531 48.5463C55.5539 48.4873 55.6326 48.3968 55.7435 48.3567C55.8733 48.3897 56.0024 48.422 56.1306 48.4543Z" fill="#B32125"/>
<path d="M67.0675 50.887C66.7433 51.2726 66.261 51.4126 65.8431 51.64C64.1042 52.5858 62.3542 53.5135 60.5901 54.4129C59.0895 55.1777 57.6213 56.0039 56.1089 56.7483C55.3449 57.1244 54.6092 57.5682 53.853 57.9671C53.7271 58.0332 53.5886 58.0749 53.4564 58.1284C53.3557 58.1898 53.2188 58.1772 53.1417 58.2858C53.0528 58.3692 52.9072 58.3409 52.8269 58.4432C52.7349 58.5211 52.6019 58.5172 52.5122 58.6006C52.4319 58.7021 52.2832 58.6674 52.1975 58.7579C51.6569 59.1506 51.0361 59.4 50.4561 59.7218C50.3806 59.71 50.3058 59.6974 50.2303 59.6856C50.1485 59.4063 50.3908 59.3662 50.5451 59.282C51.8324 58.5801 53.1338 57.9034 54.4321 57.2212C57.1901 55.7718 59.9401 54.3067 62.6973 52.8557C63.8547 52.2467 65.024 51.6573 66.1657 51.0176C66.3019 50.9413 66.438 50.8595 66.5922 50.8201C66.7622 50.7635 66.918 50.8036 67.0675 50.887Z" fill="#CA2227"/>
<path d="M65.4134 50.5061C65.2922 50.8516 64.9239 50.8618 64.6745 50.9971C62.7058 52.0665 60.7237 53.1106 58.7408 54.1532C56.9303 55.1053 55.1276 56.0708 53.3131 57.0142C51.9841 57.7051 50.6574 58.3999 49.3339 59.101C49.201 59.171 49.0452 59.2324 48.972 59.3874C48.8351 59.3898 48.6926 59.4165 48.5801 59.3032C48.5723 59.1175 48.7281 59.075 48.8477 59.0097C50.2184 58.2661 51.6056 57.554 52.9763 56.8112C54.0456 56.2927 55.0764 55.7025 56.1316 55.158C58.3694 54.0037 60.575 52.7872 62.8159 51.6392C63.4887 51.2946 64.1505 50.9279 64.8216 50.5785C64.9113 50.5321 64.9908 50.4503 65.1073 50.4935C65.2104 50.4802 65.3134 50.4542 65.4134 50.5061Z" fill="#DC2327"/>
<path d="M47.0051 50.958C46.9752 50.6833 46.8934 50.426 46.769 50.1774C46.267 49.1765 45.8279 48.1465 45.37 47.1244C44.7901 45.8316 44.1441 44.5679 43.5948 43.2601C43.576 43.2153 43.4894 43.1988 43.4343 43.1689C43.5413 43.0256 43.6767 42.9202 43.8459 42.8596C44.1118 42.8793 44.1551 43.1185 44.2338 43.2916C44.7279 44.3759 45.2055 45.4673 45.7217 46.5405C46.3008 47.7444 46.7958 48.9861 47.3899 50.1821C47.4764 50.356 47.5905 50.5252 47.5417 50.7368C47.5291 50.7723 47.5079 50.8029 47.4803 50.8281C47.3348 50.8384 47.2246 50.9328 47.0987 50.9902C47.0617 50.9973 47.0311 50.9863 47.0051 50.958Z" fill="#F15F24"/>
<path d="M49.5242 59.5269C49.6595 59.3081 49.9121 59.2413 50.112 59.1335C51.2584 58.5142 52.4418 57.9634 53.5765 57.3253C54.047 57.0609 54.5176 56.7949 55.0007 56.5596C55.5444 56.2953 56.0921 56.0277 56.6098 55.7279C57.1244 55.4305 57.6563 55.1756 58.178 54.897C59.1671 54.3682 60.1428 53.8127 61.1358 53.2926C62.6096 52.5199 64.0936 51.7677 65.5745 51.0092C65.7429 50.9234 65.8806 50.8109 65.9719 50.644C66.1174 50.6031 66.2205 50.7416 66.3582 50.7361C66.3779 50.9832 66.1568 51.0328 66.0136 51.1051C64.1581 52.0344 62.3437 53.0424 60.5032 53.9984C58.9051 54.8286 57.3172 55.6799 55.7278 56.5282C54.047 57.4252 52.36 58.3104 50.6746 59.1972C50.4196 59.331 50.1686 59.4718 49.9176 59.6119C49.7862 59.5828 49.6548 59.5552 49.5242 59.5269Z" fill="#CF2227"/>
<path d="M54.1621 58.1191C54.2416 58.0231 54.3478 57.9798 54.4674 57.9641C54.7381 57.942 54.7664 58.1812 54.8475 58.3394C55.6265 59.8777 56.3897 61.4247 57.164 62.9653C57.6392 63.9103 58.1161 64.8546 58.5905 65.8004C58.6472 65.9137 58.7463 66.0207 58.6511 66.1608C58.5654 66.2465 58.4615 66.2945 58.3435 66.3158C58.1908 66.256 58.1546 66.1065 58.0909 65.9806C57.1057 64.0394 56.1182 62.0998 55.1394 60.1555C54.8018 59.4819 54.4879 58.7981 54.1621 58.1191Z" fill="#F17723"/>
<path d="M49.9163 59.6108C49.9249 59.47 50.0256 59.4338 50.1374 59.3748C51.7795 58.51 53.4138 57.6311 55.0552 56.7663C56.7068 55.8953 58.3655 55.0384 60.0187 54.1705C62.0244 53.1184 64.0285 52.0633 66.0287 51.0018C66.1483 50.9381 66.2963 50.883 66.3569 50.7351C66.4647 50.6808 66.5119 50.7964 66.5929 50.8185C66.5182 50.9979 66.3388 51.0262 66.1908 51.1049C64.6431 51.9256 63.0961 52.7478 61.5484 53.5693C60.2634 54.2515 58.9809 54.9369 57.6936 55.6128C56.278 56.3556 54.8554 57.085 53.4406 57.8301C52.4389 58.3573 51.4467 58.9003 50.449 59.4346C50.3419 59.492 50.2365 59.5424 50.231 59.6848C50.1256 59.6604 50.0209 59.6352 49.9163 59.6108Z" fill="#CE2227"/>
<path d="M51.7949 48.9145C51.75 48.9428 51.7052 48.9719 51.6595 49.0003C51.628 48.9877 51.6155 48.9727 51.6218 48.9538C51.6288 48.9334 51.6367 48.9232 51.6461 48.9232C51.547 48.3495 51.233 47.8577 50.9993 47.3416C50.0197 45.1793 48.9952 43.0375 48.0447 40.861C47.9983 40.7556 47.9636 40.6375 47.8503 40.5746C47.988 40.5069 48.1265 40.4393 48.2642 40.3716C48.6348 40.9279 48.9118 41.5346 49.1691 42.1459C49.6263 43.2294 50.1283 44.2917 50.6287 45.3548C51.1457 46.4532 51.5738 47.5918 52.1434 48.6666C52.1238 48.8838 51.8846 48.7941 51.7949 48.9145Z" fill="#F17723"/>
<path d="M52.1135 48.6868C51.7798 48.3383 51.6154 47.8882 51.4415 47.4593C50.9757 46.3113 50.4288 45.2018 49.9111 44.0782C49.3713 42.9074 48.896 41.7058 48.2964 40.5617C48.2681 40.5074 48.2736 40.4351 48.2642 40.3705C48.3303 40.3076 48.3971 40.2462 48.501 40.2698C48.6104 40.2722 48.6592 40.3469 48.6985 40.4343C49.6419 42.5281 50.583 44.6219 51.5288 46.7142C51.7492 47.202 51.9836 47.6836 52.2126 48.1675C52.2795 48.3084 52.3723 48.4405 52.355 48.6081C52.3834 48.6286 52.3904 48.6459 52.3779 48.6593C52.3668 48.6711 52.355 48.6774 52.3432 48.6774C52.3 48.7057 52.2559 48.7348 52.2126 48.7632C52.1567 48.7679 52.1386 48.723 52.1135 48.6868Z" fill="#F17723"/>
<path d="M32.1243 79.8395C32.0811 80.3935 32.037 80.9466 31.989 81.5549C31.7663 81.1449 31.6593 80.742 31.5814 80.3281C31.4964 78.025 31.5539 75.7211 31.5452 73.4172C31.5444 73.2268 31.62 73.0607 31.6554 72.8829C31.7041 72.624 31.8222 72.3958 31.9662 72.1794C32.1739 72.314 32.1802 72.5327 32.177 72.7397C32.1424 74.9901 32.2793 77.2429 32.0992 79.4917C32.0905 79.6066 32.0637 79.727 32.1243 79.8395Z" fill="#E4B723"/>
<path d="M58.6517 66.1599C58.3134 65.484 57.9758 64.808 57.6375 64.1321C56.6712 62.1996 55.7057 60.2663 54.7379 58.3346C54.6695 58.1969 54.6325 58.0324 54.468 57.9632C54.5554 57.8743 54.6632 57.8255 54.7851 57.8074C55.1376 57.9742 55.1581 58.3645 55.31 58.6493C55.9025 59.7572 56.4218 60.9044 57.0025 62.0194C57.5187 63.0109 57.975 64.0322 58.5345 65.0016C58.7147 65.314 58.8241 65.6673 58.9665 66.0025C58.861 66.0552 58.7564 66.1079 58.6517 66.1599Z" fill="#F17623"/>
<path d="M35.7813 53.5647C36.1614 53.6953 36.1897 54.0817 36.3423 54.3673C36.5422 54.7418 36.6901 55.1431 36.8609 55.5334C36.8758 55.7073 36.7208 55.7364 36.6201 55.8017C36.2833 56.0197 35.9662 56.2738 35.5751 56.3958C35.3155 56.4792 35.1581 56.7468 34.8418 56.8018C35.1109 55.6931 35.3595 54.6049 35.7813 53.5647Z" fill="#EB2627"/>
<path d="M47.0056 50.9578C47.0323 50.9546 47.0591 50.9507 47.0858 50.9475C47.1944 50.9145 47.2857 50.8201 47.4132 50.8555C47.6005 51.0081 47.3967 51.0561 47.329 51.1018C47.0678 51.2764 46.7845 51.4149 46.5067 51.5613C44.4255 52.6621 42.3584 53.7881 40.2575 54.8519C40.119 54.922 39.9931 55.0211 39.8672 55.1155C38.9844 55.5365 38.1172 55.9858 37.2667 56.4697C37.0928 56.5681 36.9157 56.7026 36.6883 56.6381C36.5789 56.6436 36.4696 56.646 36.3775 56.5696C36.3681 56.343 36.5774 56.3139 36.7064 56.2407C37.4319 55.8245 38.1818 55.4531 38.9269 55.0738C39.207 54.9314 39.488 54.7953 39.7492 54.6198C40.5982 54.246 41.3937 53.7684 42.2191 53.349C43.043 52.9304 43.8361 52.4512 44.6938 52.0963C44.8221 52.0436 44.959 51.9791 45.0377 51.8477C45.1722 51.8493 45.2422 51.7383 45.339 51.6746C45.4358 51.6801 45.5106 51.6093 45.6026 51.5991C45.6247 51.5991 45.6467 51.5951 45.6671 51.5873C45.7474 51.555 45.8277 51.5219 45.9087 51.4897C46.0228 51.3748 46.1794 51.3433 46.3202 51.2827C46.3895 51.2513 46.4587 51.2198 46.528 51.1883C46.6633 51.1356 46.7845 51.053 46.9159 50.9932C46.9466 50.9814 46.9765 50.9696 47.0056 50.9578Z" fill="#8E1C20"/>
<path d="M47.478 50.8022C47.4843 50.67 47.4614 50.5464 47.404 50.4229C46.544 48.5793 45.6847 46.7365 44.8333 44.8889C44.5186 44.2059 44.3014 43.4757 43.8474 42.8604C43.9237 42.8077 44.0008 42.7542 44.0772 42.7007C44.5013 42.995 44.576 43.4978 44.7877 43.9164C44.8483 44.0368 44.875 44.1855 44.9388 44.3145C45.9271 46.31 46.8021 48.3574 47.7313 50.3804C47.7683 50.4607 47.7738 50.5551 47.7943 50.6432C47.7195 50.7581 47.6393 50.8596 47.478 50.8022Z" fill="#F15F24"/>
<path d="M70.4998 52.6961C70.0694 52.0367 69.6917 51.3498 69.4258 50.6054C70.0427 50.179 70.6596 49.7525 71.3142 49.3C71.1466 50.4866 70.8775 51.604 70.4998 52.6961Z" fill="#EB2727"/>
<path d="M65.1075 50.4935C64.3954 50.9782 63.5967 51.3047 62.8508 51.7297C62.0261 52.1994 61.163 52.6007 60.3226 53.0437C59.1942 53.6386 58.073 54.2484 56.9462 54.8464C55.7132 55.5011 54.477 56.1486 53.2456 56.8049C53.1591 56.8505 53.0764 56.8694 52.9844 56.8686C52.9419 56.7821 53.0158 56.753 53.0631 56.7112C53.5422 56.2981 54.1442 56.1006 54.6863 55.7985C55.725 55.2202 56.7904 54.6898 57.8416 54.1343C59.1431 53.4458 60.4398 52.7502 61.7405 52.0601C62.6879 51.5573 63.6368 51.0577 64.5874 50.5596C64.7015 50.4998 64.8274 50.4612 64.9478 50.4132C65.0201 50.3999 65.0839 50.4069 65.1075 50.4935Z" fill="#DC2327"/>
<path d="M59.5925 55.455C59.7924 55.0914 60.2 55.0269 60.5171 54.857C62.068 54.0245 63.6323 53.2156 65.18 52.3744C66.0204 51.918 66.8891 51.5081 67.7208 51.0312C67.923 51.069 68.126 51.1068 68.3282 51.1453C68.008 51.4562 67.5327 51.5152 67.2172 51.8323C66.7773 51.9975 66.3587 52.206 65.9629 52.4594C65.5042 52.6443 65.0336 52.804 64.6245 53.0936C64.2846 53.2022 63.9698 53.3611 63.6763 53.5634C63.2648 53.7066 62.858 53.8584 62.5 54.1157C62.2151 54.1984 61.9539 54.3298 61.7139 54.5037C61.3685 54.6524 60.9979 54.7476 60.6918 54.9821C60.2818 55.0364 59.9616 55.3023 59.5925 55.455Z" fill="#BD2226"/>
<path d="M32.3626 71.4656C32.4634 71.2453 32.5987 71.0493 32.7679 70.8762C32.9158 71.0548 32.8843 71.2712 32.8827 71.4766C32.8765 72.9559 32.9056 74.4352 32.8662 75.9145C32.8646 75.9688 32.8859 76.0168 32.9111 76.0632C32.76 76.6942 32.6097 77.3253 32.4586 77.9572C32.184 77.8675 32.2517 77.6267 32.2493 77.437C32.2375 76.433 32.2446 75.429 32.2438 74.425C32.2438 73.6947 32.247 72.9645 32.2422 72.2343C32.2407 71.9692 32.2714 71.7134 32.3626 71.4656Z" fill="#E8A824"/>
<path d="M75.3329 34.9341C75.2825 35.2213 75.1787 35.4888 75.0244 35.7367C74.8246 35.6478 74.849 35.4652 74.8474 35.2984C74.8324 33.458 74.8293 31.6167 74.8403 29.7762C74.8442 29.0893 74.8049 28.4 74.9206 27.7163C74.9387 27.6077 74.904 27.4841 74.8679 27.3716C74.8679 27.1828 74.8679 26.9939 74.8679 26.8043C74.9033 26.798 74.9379 26.7917 74.9733 26.7854C75.1252 27.1757 75.2471 27.5762 75.3274 27.9917C75.3809 28.3402 75.3699 28.6927 75.3707 29.0437C75.3746 30.5371 75.3722 32.0298 75.373 33.5233C75.3738 33.9946 75.3801 34.4651 75.3329 34.9341Z" fill="#E4B923"/>
<path d="M31.655 72.8828C31.6582 75.1458 31.6598 77.4088 31.6676 79.671C31.6684 79.8961 31.6479 80.114 31.5811 80.3281C31.4127 79.8717 31.3065 79.4019 31.2647 78.9172C31.1113 77.3537 31.0901 75.7895 31.2632 74.226C31.3167 73.7562 31.452 73.3101 31.655 72.8828Z" fill="#E4BD23"/>
<path d="M32.3626 71.4658C32.3666 73.4817 32.3689 75.4977 32.376 77.5144C32.3768 77.6639 32.3146 77.8323 32.4594 77.9574C32.4043 78.5947 32.1588 79.1983 32.1242 79.8396C32.0676 79.8041 32.0211 79.7664 32.0243 79.6869C32.1022 77.3633 32.0361 75.0389 32.0621 72.7154C32.0644 72.5265 32.0078 72.3565 31.9661 72.1795C32.0479 71.9135 32.188 71.6798 32.3626 71.4658Z" fill="#E6B023"/>
<path d="M74.8685 27.3726C75.1266 27.681 74.9834 28.0658 74.9724 28.3805C74.9197 29.8299 74.9559 31.2769 74.9621 32.7248C74.9661 33.6045 74.9606 34.4842 74.9448 35.3631C74.9425 35.5024 74.9692 35.6188 75.0251 35.7376C74.8795 35.8549 74.9739 36.087 74.8071 36.194C74.5632 36.2168 74.5758 36.0359 74.5719 35.884C74.5648 35.5441 74.5687 35.2042 74.5687 34.8634C74.5703 33.2024 74.5742 31.5405 74.5719 29.8795C74.5719 29.8032 74.5931 29.7221 74.5459 29.6505C74.6254 29.1776 74.7056 28.7047 74.7851 28.2318C74.8599 28.1028 74.7772 27.9493 74.8481 27.8195C74.8551 27.67 74.8622 27.5213 74.8685 27.3726Z" fill="#E6B223"/>
<path d="M74.4693 36.7551C74.4008 36.9353 74.2985 37.0919 74.1522 37.2185C73.9932 37.1178 74.0027 36.9557 74.0043 36.7999C74.0137 35.5921 74.009 34.3851 74.0058 33.1772C74.005 32.8413 74.057 32.5029 73.9885 32.1677C74.0719 31.554 74.2348 30.9583 74.3914 30.3611C74.6424 30.4492 74.5425 30.668 74.5433 30.8269C74.5519 32.4825 74.5488 34.1388 74.5488 35.7943C74.548 36.1162 74.629 36.4459 74.4693 36.7551Z" fill="#E9A724"/>
<path d="M32.9116 76.0634C32.7676 75.9894 32.7943 75.873 32.7943 75.7329C32.7943 74.1143 32.7794 72.4958 32.7676 70.8772C32.8707 70.6978 32.9997 70.5404 33.1626 70.4114C33.3239 70.5695 33.2845 70.7741 33.2869 70.9661C33.3003 72.2455 33.268 73.5258 33.3058 74.8052C33.1736 75.2238 33.043 75.644 32.9116 76.0634Z" fill="#EB9F23"/>
<path d="M75.3329 34.9341C75.2377 34.7815 75.2472 34.6115 75.2472 34.4408C75.2479 32.509 75.2511 30.5781 75.2424 28.6464C75.2417 28.4197 75.318 28.212 75.3282 27.9917C75.4572 28.3379 75.5454 28.6944 75.5713 29.0642C75.7523 30.3908 75.6721 31.7238 75.6713 33.0551C75.6713 33.2873 75.7327 33.5249 75.6461 33.7546C75.6099 34.1662 75.5139 34.562 75.3329 34.9341Z" fill="#E4BD23"/>
<path d="M73.9879 32.1677C74.0768 32.2102 74.1421 32.2747 74.1405 32.3778C74.1295 33.3063 74.0894 34.2364 74.1122 35.1641C74.1287 35.8486 74.0422 36.5364 74.1515 37.2186C74.0618 37.4082 73.936 37.5664 73.7518 37.6726C73.5811 37.5333 73.6283 37.3374 73.6283 37.1595C73.6251 36.032 73.6275 34.9044 73.6228 33.7768C73.622 33.6344 73.6472 33.4889 73.5984 33.3488C73.7282 32.9546 73.8581 32.5612 73.9879 32.1677Z" fill="#EB9F23"/>
<path d="M39.7681 54.6674C39.4557 55.0671 38.9459 55.1261 38.543 55.3716C37.838 55.8004 37.0519 56.0853 36.3783 56.5708C36.243 56.5661 36.1061 56.57 35.9889 56.4827C35.955 56.271 36.1313 56.2238 36.2603 56.1593C37.7852 55.3905 39.2606 54.5265 40.8021 53.7877C40.9303 53.7263 41.0499 53.6452 41.1656 53.5611C41.2183 53.5091 41.2639 53.4477 41.3403 53.4273C41.393 53.4163 41.4457 53.4053 41.4976 53.3942C41.5999 53.3407 41.7022 53.2864 41.8045 53.2329C41.9186 53.1944 42.0162 53.1157 42.1381 53.0937C42.183 53.0882 42.2271 53.0826 42.2719 53.0771C42.353 53.0197 42.412 52.9229 42.5308 52.9363C42.6819 52.8773 42.8337 52.819 42.9848 52.76C43.0572 52.6884 43.1375 52.6381 43.246 52.6656C43.4144 52.8308 43.2161 52.8545 43.143 52.8914C42.4041 53.2691 41.6881 53.6901 40.9437 54.056C40.5479 54.2511 40.1726 54.488 39.7681 54.6674Z" fill="#801A1F"/>
<path d="M41.2591 53.5482C41.0411 53.8188 40.713 53.9306 40.425 54.0848C39.0197 54.8394 37.6002 55.5664 36.1847 56.3014C36.1012 56.3446 36.0257 56.3911 35.9895 56.4823C35.8447 56.4879 35.7 56.4902 35.5764 56.3958C35.962 56.0441 36.4538 55.8513 36.8621 55.5334C37.5979 55.1667 38.3328 54.8 39.0685 54.4334C39.1944 54.3799 39.3211 54.3256 39.447 54.2721C39.5752 54.2626 39.6689 54.1729 39.7814 54.1265C40.0017 54.1367 40.1284 53.9463 40.3125 53.8794C40.44 53.8692 40.5328 53.7803 40.6446 53.7346C40.8027 53.7512 40.9066 53.6489 41.0183 53.5647C41.0986 53.5686 41.1741 53.4899 41.2591 53.5482Z" fill="#74191E"/>
<path d="M73.5989 33.3479C73.7869 33.425 73.7067 33.5871 73.7074 33.7169C73.713 34.8823 73.7122 36.0476 73.7169 37.2137C73.7177 37.3664 73.7397 37.5198 73.7523 37.6725C73.6476 37.8464 73.5351 38.0124 73.3581 38.1233C73.2416 38.0132 73.2377 37.866 73.2393 37.7236C73.2495 36.526 73.1936 35.3276 73.2723 34.1308C73.3423 33.8538 73.4698 33.6005 73.5989 33.3479Z" fill="#ED9623"/>
<path d="M33.3053 74.8043C33.1385 74.7311 33.2054 74.5863 33.2046 74.4659C33.1991 73.3329 33.1975 72.1998 33.1904 71.0667C33.1889 70.848 33.1716 70.6292 33.1621 70.4105C33.2353 70.2728 33.3462 70.1705 33.4737 70.0847C33.7082 70.2106 33.6704 70.4396 33.6688 70.641C33.6594 71.767 33.7137 72.8938 33.6311 74.019C33.5233 74.281 33.4139 74.5431 33.3053 74.8043Z" fill="#ED9723"/>
<path d="M41.6323 57.7445C42.4491 57.3093 43.2651 56.8734 44.0826 56.4383C44.6381 56.1424 45.1929 55.845 45.7523 55.5554C45.816 55.5224 45.9057 55.5389 45.9836 55.5326C46.0647 55.4563 46.156 55.4453 46.2559 55.4909C46.2701 55.5043 46.2842 55.5184 46.2984 55.5326C45.8286 55.9465 45.2393 56.1582 44.7066 56.4635C43.9835 56.8773 43.2352 57.2456 42.4963 57.6304C42.3775 57.6925 42.2736 57.7641 42.2091 57.8845C41.9966 57.9191 41.8196 57.8098 41.6323 57.7445Z" fill="#C92227"/>
<path d="M72.7302 38.6969C72.6027 38.8464 72.4454 38.9549 72.266 39.0328C72.1534 38.9392 72.1401 38.8062 72.1409 38.6764C72.1464 37.8439 72.0905 37.0098 72.1786 36.1781C72.3022 35.9649 72.4257 35.7516 72.5492 35.5384C72.7916 35.5195 72.7774 35.7107 72.79 35.8547C72.8223 36.2324 72.8349 36.6133 72.8294 36.9902C72.8215 37.4733 72.7908 37.9556 72.8152 38.4395C72.8191 38.5348 72.7814 38.619 72.7302 38.6969Z" fill="#F07B23"/>
<path d="M74.47 36.7552C74.4668 34.7739 74.4653 32.7918 74.459 30.8105C74.4582 30.6602 74.5148 30.4957 74.3921 30.3612C74.4259 30.1204 74.4472 29.8772 74.5455 29.6506C74.7651 29.7049 74.6573 29.8867 74.6573 29.9984C74.6659 31.9333 74.6612 33.8682 74.6628 35.8031C74.6628 35.9463 74.5872 36.1273 74.8068 36.1941C74.6927 36.3798 74.6423 36.6041 74.47 36.7552Z" fill="#E7AD23"/>
<path d="M54.0076 51.2843C54.0312 51.2402 54.0422 51.1741 54.0792 51.1544C54.9455 50.6871 55.7992 50.1945 56.6892 49.7767C57.0621 49.6012 57.3903 49.3431 57.79 49.218C57.9356 49.1731 58.1189 49.0889 58.0984 48.8655C58.2558 48.9103 58.4132 48.956 58.5706 49.0008C58.4667 49.3628 58.0843 49.3651 57.8388 49.4887C57.3682 49.7255 56.9095 49.9852 56.45 50.2385C55.756 50.6202 55.0541 50.9806 54.3223 51.2851C54.2177 51.363 54.113 51.3811 54.0076 51.2843Z" fill="#C82227"/>
<path d="M35.4168 70.9512C35.2374 71.2124 35.058 71.4744 34.8786 71.7357C34.6874 71.7239 34.7031 71.5752 34.6992 71.4508C34.6803 70.7372 34.7 70.0227 34.6897 69.309C34.6882 69.1823 34.7393 69.084 34.8133 68.9911C34.9462 68.8511 35.1052 68.7527 35.2838 68.6819C35.4302 68.8298 35.3963 69.0202 35.4011 69.1996C35.416 69.7835 35.3853 70.3673 35.4168 70.9512Z" fill="#F16D24"/>
<path d="M33.6325 74.0199C33.5011 73.968 33.5404 73.8712 33.542 73.7626C33.553 72.6366 33.5538 71.5106 33.5506 70.3854C33.5506 70.2855 33.5019 70.1855 33.4751 70.0856C33.5813 69.9314 33.7064 69.7976 33.8717 69.7056C33.9755 69.8055 33.9889 69.9377 33.9873 70.0683C33.9771 71.1502 34.0401 72.2322 33.948 73.3133C33.8953 73.5714 33.7521 73.7901 33.6325 74.0199Z" fill="#ED8D23"/>
<path d="M72.7305 38.6971C72.5873 37.9448 72.7911 37.1855 72.6818 36.4254C72.6511 36.2114 72.6471 35.9462 72.6833 35.7054C72.6983 35.6071 72.6212 35.5725 72.5496 35.5378C72.6912 35.2805 72.832 35.0224 72.9737 34.7651C73.172 34.8013 73.1586 34.9721 73.161 35.1027C73.183 36.0682 73.1751 37.0336 73.1672 37.9991C73.1665 38.1471 73.0988 38.2761 73.0563 38.413C72.969 38.5326 72.8682 38.6365 72.7305 38.6971Z" fill="#EE8423"/>
<path d="M73.0563 38.414C73.0524 37.3344 73.0508 36.254 73.0429 35.1745C73.0421 35.0368 73.0933 34.8857 72.9729 34.7661C73.0484 34.5434 73.1389 34.327 73.2727 34.1311C73.4104 34.2413 73.3577 34.3955 73.3577 34.5316C73.3608 35.7292 73.3592 36.926 73.3585 38.1236C73.2577 38.2196 73.157 38.3164 73.0563 38.414Z" fill="#ED8D23"/>
<path d="M33.9472 73.3118C33.8261 73.2103 33.8693 73.071 33.8693 72.9467C33.867 71.8664 33.8693 70.7852 33.8709 69.7049C33.9488 69.5892 34.0495 69.5011 34.1794 69.4468C34.2769 69.531 34.2997 69.6482 34.2982 69.7647C34.2864 70.7884 34.3745 71.8136 34.2399 72.835C34.177 73.0152 34.0692 73.1678 33.9472 73.3118Z" fill="#EE8523"/>
<path d="M53.0634 56.7122C53.0374 56.7649 53.0107 56.8168 52.9847 56.8695C52.2561 57.3645 51.4417 57.7028 50.6784 58.1324C49.9805 58.5251 49.2416 58.8445 48.5807 59.3025C48.4666 59.3174 48.3541 59.3214 48.2651 59.2285C49.0158 58.7438 49.8286 58.3724 50.61 57.9428C51.3355 57.5439 52.0735 57.1677 52.8029 56.7759C52.8879 56.7303 52.9713 56.7122 53.0634 56.7122Z" fill="#DC2327"/>
<path d="M34.2392 72.8348C34.1244 72.6396 34.1873 72.4264 34.1857 72.2234C34.1771 71.298 34.1802 70.3727 34.1786 69.4465C34.2266 69.3537 34.3077 69.301 34.4029 69.2664C34.5776 69.3411 34.6098 69.5016 34.6083 69.659C34.6036 70.5088 34.6681 71.3602 34.5674 72.2092C34.5162 72.4476 34.3533 72.6278 34.2392 72.8348Z" fill="#EF7E23"/>
<path d="M35.4169 70.951C35.2131 70.8896 35.2886 70.7189 35.2871 70.5906C35.28 69.9541 35.2839 69.3183 35.2839 68.6817C35.4216 68.5613 35.5751 68.4701 35.7497 68.4158C35.845 68.8721 35.7836 69.3348 35.8017 69.7943C35.8088 69.9737 35.7883 70.1547 35.8505 70.3286C35.7686 70.5796 35.5349 70.7244 35.4169 70.951Z" fill="#F06124"/>
<path d="M75.6453 33.7549C75.4659 32.1937 75.6146 30.6279 75.5713 29.0652C75.9081 30.6232 75.9907 32.1859 75.6453 33.7549Z" fill="#E4C125"/>
<path d="M35.8509 70.3289C35.7887 70.3195 35.7211 70.3274 35.7227 70.2274C35.7305 69.6239 35.6786 69.0188 35.751 68.4161C35.8666 68.3138 36.0051 68.2579 36.1499 68.2139C36.3333 68.3618 36.3293 68.5742 36.3372 68.778C36.3474 69.0605 36.3301 69.3446 36.4033 69.6223C36.2404 69.8749 36.0634 70.1157 35.8509 70.3289Z" fill="#F05825"/>
<path d="M72.1775 36.1782C72.3065 36.2923 72.2546 36.445 72.2554 36.5811C72.2624 37.3986 72.2624 38.2154 72.2648 39.0329C72.172 39.1242 72.0893 39.2312 71.9422 39.2367C71.7958 39.0896 71.8273 38.8992 71.8257 38.7213C71.8187 38.0588 71.8305 37.3971 71.8108 36.7345C71.9335 36.5488 72.0555 36.3639 72.1775 36.1782Z" fill="#F27124"/>
<path d="M71.1517 37.6717C71.2658 37.5151 71.3791 37.3594 71.4932 37.2028C71.6112 37.132 71.6859 37.213 71.6891 37.3019C71.7158 38.0242 71.8126 38.7489 71.6285 39.465C71.4727 39.5539 71.3169 39.6436 71.1611 39.7325C71.0675 39.0472 71.1163 38.3594 71.1517 37.6717Z" fill="#F06224"/>
<path d="M34.5681 72.2092C34.4493 72.0888 34.5004 71.937 34.4988 71.7985C34.4941 71.1186 34.4949 70.4388 34.498 69.7589C34.4988 69.5866 34.4941 69.419 34.4028 69.2664C34.5397 69.1743 34.6767 69.083 34.8136 68.991C34.7467 69.8636 34.7876 70.737 34.7955 71.6096C34.7963 71.6521 34.8498 71.693 34.8781 71.7355C34.8159 71.9197 34.6948 72.066 34.5681 72.2092Z" fill="#F17723"/>
<path d="M31.2635 74.2266C31.2643 75.79 31.2651 77.3543 31.2659 78.9178C30.9346 77.3535 30.8897 75.79 31.2635 74.2266Z" fill="#E3C225"/>
<path d="M71.6285 39.4659C71.6285 38.7789 71.6277 38.092 71.6285 37.4043C71.6285 37.3044 71.612 37.2202 71.4932 37.2029C71.5994 37.0463 71.7056 36.8905 71.8118 36.7339C71.9779 36.837 71.9432 37.0038 71.9432 37.1572C71.9448 37.8497 71.9432 38.5429 71.9432 39.2353C71.8347 39.3085 71.778 39.4509 71.6285 39.4659Z" fill="#F16A24"/>
<path d="M36.4032 69.6219C36.1939 69.592 36.2309 69.4299 36.2293 69.2922C36.2238 68.931 36.2545 68.5675 36.1506 68.2134C36.3167 68.0922 36.5016 68.0143 36.7006 67.9663C36.9556 68.3031 36.8557 68.691 36.8604 69.0648C36.7313 69.2709 36.5795 69.4566 36.4032 69.6219Z" fill="#F04C25"/>
<path d="M36.6885 56.6391C37.5375 56.1969 38.3857 55.7508 39.2379 55.314C39.433 55.2141 39.6431 55.1441 39.8461 55.0607C40.0027 55.0048 40.1121 54.8081 40.3182 54.9033C40.0342 55.248 39.603 55.3526 39.2347 55.5556C38.5163 55.9522 37.7641 56.2858 37.0795 56.743C36.9489 56.7107 36.8041 56.7304 36.6885 56.6391Z" fill="#991F22"/>
<path d="M71.1518 37.6716C71.3178 37.8652 71.2352 38.0965 71.2289 38.3058C71.2147 38.7819 71.317 39.2642 71.1612 39.7332C71.0778 39.8276 70.9668 39.8693 70.8472 39.8929C70.6301 39.3453 70.7489 38.7795 70.7544 38.2193C70.8874 38.0375 71.0196 37.855 71.1518 37.6716Z" fill="#F15A25"/>
<path d="M55.7438 48.3581C55.3811 48.8074 54.8366 48.975 54.3558 49.2362C53.6185 49.636 52.8403 49.9601 52.1416 50.4323C52.033 50.5054 51.9197 50.4929 51.8032 50.4984C51.8119 50.33 51.9598 50.3079 52.0692 50.2497C53.1889 49.6525 54.3086 49.0553 55.4322 48.4643C55.507 48.425 55.5699 48.399 55.5794 48.3093C55.6431 48.2967 55.7013 48.3022 55.7438 48.3581Z" fill="#B22125"/>
<path d="M36.8587 69.065C36.6628 68.7195 36.8241 68.3222 36.699 67.9665C36.9106 67.8445 37.1333 67.7533 37.3749 67.7131C37.6361 67.854 37.6471 67.9185 37.4874 68.3584C37.2781 68.5944 37.0688 68.8297 36.8587 69.065Z" fill="#EE4025"/>
<path d="M70.0553 40.2544C69.9003 40.3126 69.7453 40.3716 69.591 40.4299C69.2212 40.4503 69.1535 40.352 69.27 39.9585C69.5029 39.6934 69.7358 39.429 69.9695 39.1638C70.2835 39.2881 70.145 39.5659 70.1717 39.7831C70.1922 39.9491 70.1623 40.1143 70.0553 40.2544Z" fill="#EE3F25"/>
<path d="M70.056 40.2541C70.012 39.8922 70.1505 39.5153 69.9695 39.1643C70.1245 38.9794 70.2795 38.7953 70.4345 38.6104C70.5352 38.5939 70.5927 38.6623 70.6013 38.7379C70.6525 39.1754 70.7469 39.6168 70.5297 40.0401C70.3936 40.1589 70.2268 40.2109 70.056 40.2541Z" fill="#EF4924"/>
<path d="M70.5303 40.0402C70.5295 39.6814 70.5311 39.3226 70.5263 38.9638C70.5248 38.8403 70.5641 38.7026 70.4351 38.6105C70.5137 38.4578 70.6152 38.3233 70.7545 38.2202C70.9261 38.4114 70.8261 38.6412 70.8379 38.8521C70.8568 39.1983 70.8458 39.5461 70.8474 39.8931C70.7569 39.9757 70.6546 40.0308 70.5303 40.0402Z" fill="#F05225"/>
<path d="M50.4568 59.722C50.5607 59.441 50.8557 59.434 51.065 59.3112C51.427 59.0988 51.7834 58.8674 52.1981 58.7581C52.1997 58.8297 52.2201 58.8918 52.291 58.9249C52.0761 59.0508 51.8613 59.1759 51.6457 59.301C51.364 59.3883 51.1036 59.5221 50.8549 59.6803C50.7385 59.7149 50.6228 59.7495 50.5064 59.7841C50.4906 59.7637 50.4741 59.7424 50.4568 59.722Z" fill="#C92427"/>
<path d="M37.488 68.3593C37.4432 68.1453 37.5879 67.8982 37.3755 67.7133C37.6501 67.5787 37.9247 67.445 38.3166 67.5008C38.016 67.8124 37.7524 68.0862 37.488 68.3593Z" fill="#ED3529"/>
<path d="M69.2705 39.9592C69.2768 40.1851 69.2547 40.4298 69.5915 40.4306C69.2539 40.6045 68.8983 40.7123 68.5159 40.754C68.7755 40.4809 69.0226 40.2197 69.2705 39.9592Z" fill="#ED372A"/>
<path d="M53.8495 48.0567C53.7315 48.155 53.6056 48.2329 53.4419 48.2077C53.5316 48.0559 53.6968 48.0323 53.84 47.9717C53.8432 48 53.8463 48.0283 53.8495 48.0567Z" fill="#E9B69D"/>
<path d="M74.847 27.8186C74.8391 27.9579 74.9044 28.109 74.784 28.2309C74.7801 28.0901 74.7785 27.9492 74.847 27.8186Z" fill="#E4B923"/>
<path d="M46.321 51.2829C46.2108 51.4064 46.0534 51.4348 45.9094 51.4899C45.9795 51.2884 46.1471 51.2798 46.321 51.2829Z" fill="#D58D81"/>
<path d="M46.916 50.9932C46.8263 51.1372 46.6902 51.1891 46.5281 51.1883C46.6233 51.0553 46.7563 50.9979 46.916 50.9932Z" fill="#DB8C7A"/>
<path d="M39.7678 54.667C40.3139 54.2082 41.0032 54.0076 41.6067 53.6519C42.141 53.3364 42.6973 53.0578 43.2434 52.762C43.2497 52.7588 43.2505 52.736 43.2465 52.725C43.2426 52.714 43.23 52.7053 43.2206 52.6959C43.1977 52.6613 43.2056 52.6369 43.2449 52.6227C43.5125 52.5936 43.684 52.3591 43.9366 52.297C43.9877 52.293 44.0381 52.2891 44.0892 52.2852C44.1624 52.2088 44.2474 52.1475 44.3347 52.0884C44.4119 52.079 44.489 52.0688 44.5661 52.0593C44.7235 51.9885 44.8808 51.9177 45.0374 51.8477C45.0264 52.0633 44.832 52.1231 44.6951 52.1876C43.1537 52.9076 41.6822 53.7605 40.1731 54.5426C40.0464 54.608 39.9213 54.6827 39.7678 54.667Z" fill="#821C21"/>
<path d="M42.5316 52.9368C42.4718 53.0328 42.36 53.032 42.2727 53.0776C42.2814 52.9226 42.3506 52.8392 42.5166 52.8675C42.5182 52.8911 42.5237 52.914 42.5316 52.9368Z" fill="#D0918C"/>
<path d="M43.2458 52.6228C43.2371 52.6472 43.2293 52.6716 43.2214 52.696C43.1427 52.7172 43.064 52.7385 42.9854 52.7605C43.0082 52.5937 43.1018 52.5599 43.2458 52.6228Z" fill="#D69189"/>
<path d="M40.3181 54.9031C40.1607 54.9558 40.0033 55.0077 39.8459 55.0605C40.0726 54.7685 40.4243 54.671 40.7288 54.5073C42.1727 53.733 43.626 52.9769 45.0738 52.2112C45.8213 51.8155 46.5649 51.4142 47.3085 51.0113C47.3494 50.9893 47.4627 50.9971 47.399 50.8885C47.377 50.8649 47.373 50.846 47.3856 50.8319C47.3966 50.8193 47.4076 50.813 47.4179 50.813C47.4383 50.8146 47.458 50.8106 47.4769 50.8028C47.6004 50.787 47.6539 50.632 47.7916 50.6438C48.0623 50.5793 48.3015 50.4542 48.5085 50.2677C48.7146 50.2103 48.9216 50.1536 49.1277 50.0962C49.4149 49.9718 49.7021 49.8467 49.9893 49.7224C49.9767 49.9813 49.7478 50.001 49.5825 50.0883C48.6202 50.5966 47.6673 51.123 46.6924 51.6046C45.5892 52.1491 44.5167 52.7526 43.423 53.3136C42.5276 53.7724 41.6164 54.2224 40.7579 54.7591C40.6265 54.8401 40.4864 54.9204 40.3181 54.9031Z" fill="#991E22"/>
<path d="M50.3792 49.4902C50.3052 49.6657 50.151 49.6909 49.9873 49.6964C49.9889 49.6751 49.992 49.6539 49.9967 49.6334C50.1242 49.5862 50.2517 49.5382 50.3792 49.4902Z" fill="#E6A48C"/>
<path d="M51.8045 50.4975C51.6605 50.7336 51.4418 50.8209 51.175 50.8122C51.3489 50.6352 51.5378 50.4881 51.8045 50.4975Z" fill="#B22125"/>
<path d="M45.6037 51.5991C45.5337 51.6864 45.4526 51.7352 45.3401 51.6754C45.4109 51.5928 45.488 51.5291 45.6037 51.5991Z" fill="#D48678"/>
<path d="M53.3916 48.2213C53.2634 48.3786 53.0918 48.4408 52.8936 48.4431C52.9274 48.2614 53.1288 48.3047 53.2201 48.1992C53.2768 48.2063 53.3342 48.2142 53.3916 48.2213Z" fill="#E6B4A2"/>
<path d="M52.2763 52.3852C51.9757 52.7621 51.4934 52.8377 51.1094 53.0777C50.642 53.3696 50.136 53.6001 49.656 53.874C49.5325 53.944 49.416 53.9574 49.287 53.9582C49.2768 53.9416 49.2658 53.9251 49.2555 53.9086C49.2453 53.8346 49.2776 53.7827 49.3421 53.752C49.9487 53.4616 50.5129 53.0887 51.1251 52.8117C51.4084 52.6834 51.6523 52.4907 51.9395 52.3718C52.041 52.3301 52.1299 52.2924 52.2346 52.3435C52.2479 52.3577 52.2621 52.3719 52.2763 52.3852Z" fill="#C92227"/>
<path d="M48.9725 54.1164C48.8246 54.4099 48.4957 54.4335 48.2541 54.5807C47.7403 54.8946 47.1926 55.1527 46.6678 55.4486C46.5451 55.5178 46.4278 55.5328 46.298 55.532C46.2193 55.4265 46.276 55.3644 46.3688 55.318C47.1446 54.9261 47.8992 54.4933 48.6672 54.0873C48.7546 54.0409 48.8395 54.0338 48.9292 54.0747C48.9434 54.0881 48.9576 54.1023 48.9725 54.1164Z" fill="#C92227"/>
<path d="M54.0074 51.2844C54.112 51.2844 54.2175 51.2844 54.3221 51.2844C54.3206 51.297 54.3229 51.3175 54.3158 51.3222C53.6753 51.7518 53.0159 52.146 52.2771 52.386C52.1874 52.2554 52.2787 52.2035 52.3778 52.1547C52.9325 51.8856 53.4574 51.5614 54.0074 51.2844Z" fill="#C92227"/>
<path d="M49.2877 53.959C49.2617 54.1699 49.0965 54.1014 48.9729 54.1164C48.9423 53.7937 49.1209 53.8882 49.2877 53.959Z" fill="#C92227"/>
<path d="M49.2872 53.959C49.1636 53.9739 48.9984 53.9054 48.9724 54.1163C48.6002 54.0589 48.3374 54.3414 48.0675 54.4901C47.5152 54.7946 46.9486 55.0731 46.397 55.3808C46.3309 55.4178 46.3066 55.4658 46.2979 55.5327C46.1932 55.5327 46.0878 55.5327 45.9832 55.5327C46.1862 55.2187 46.5568 55.166 46.8463 54.9897C48.088 54.2351 49.4225 53.6537 50.687 52.9384C51.6769 52.3782 52.721 51.9123 53.7038 51.3332C53.7856 51.2852 53.9052 51.2994 54.0067 51.2844C53.5504 51.6967 52.9642 51.8927 52.4496 52.209C52.3709 52.257 52.278 52.2711 52.2764 52.386C52.0624 52.3325 51.9011 52.471 51.7359 52.5568C50.9482 52.9652 50.17 53.3916 49.3863 53.8079C49.3186 53.8433 49.2958 53.8929 49.2872 53.959Z" fill="#C82227"/>
<path d="M51.1059 49.2371C50.9847 49.3268 50.8612 49.4118 50.6975 49.3858C50.7518 49.3347 50.8061 49.2836 50.8604 49.2316C50.9414 49.267 51.0264 49.1199 51.1059 49.2371Z" fill="#E2AB9C"/>
<path d="M51.6467 48.9229C51.6514 48.9488 51.6561 48.9748 51.66 49C51.5365 49.0905 51.4114 49.177 51.2454 49.1503C51.3366 48.9984 51.5074 48.9882 51.6467 48.9229Z" fill="#E5AA97"/>
<path d="M52.3435 48.6784C52.3443 48.6548 52.3482 48.632 52.3553 48.6091C52.5182 48.5627 52.6527 48.4289 52.8392 48.4573C52.7118 48.6154 52.541 48.6776 52.3435 48.6784Z" fill="#E6B09F"/>
<path d="M41.2584 53.5482C41.1782 53.5529 41.1026 53.6324 41.0168 53.5647C41.1003 53.4616 41.2104 53.4215 41.3402 53.427C41.3127 53.4679 41.2852 53.5081 41.2584 53.5482Z" fill="#CD7C76"/>
<path d="M40.6436 53.7346C40.5562 53.8369 40.472 53.9455 40.3115 53.8794C40.3178 53.8574 40.3218 53.8346 40.3241 53.8117C40.4303 53.7866 40.5366 53.7606 40.6436 53.7346Z" fill="#C86E68"/>
<path d="M39.7809 54.1265C39.692 54.2272 39.6086 54.3405 39.4465 54.272C39.5331 54.1682 39.6503 54.1328 39.7809 54.1265Z" fill="#C86C67"/>
<path d="M42.139 53.094C42.0541 53.2034 41.9392 53.2412 41.8054 53.2341C41.8959 53.1381 41.9777 53.0201 42.139 53.094Z" fill="#DC9188"/>
<path d="M44.3351 52.0886C44.3296 52.2491 44.1864 52.2381 44.0896 52.2853C44.1022 52.1334 44.1667 52.0469 44.3351 52.0886Z" fill="#D18A80"/>
<path d="M52.8271 58.4433C52.8531 58.2324 53.0184 58.3008 53.1419 58.2859C53.0821 58.4291 52.9617 58.4503 52.8271 58.4433Z" fill="#C92427"/>
<path d="M52.1978 58.7582C52.2576 58.615 52.3779 58.5937 52.5125 58.6008C52.4865 58.8117 52.3213 58.7432 52.1978 58.7582Z" fill="#C92427"/>
<path d="M52.5132 58.6005C52.573 58.4572 52.6934 58.436 52.8279 58.4431C52.7681 58.5863 52.6477 58.6075 52.5132 58.6005Z" fill="#C92427"/>
<path d="M53.1421 58.2858C53.1681 58.0749 53.3333 58.1434 53.4568 58.1284C53.3766 58.2307 53.2664 58.2732 53.1421 58.2858Z" fill="#C92427"/>
<path d="M52.1138 48.687C52.1469 48.713 52.1799 48.7382 52.213 48.7641C52.0879 48.8538 51.962 48.9396 51.7952 48.9144C51.855 48.7728 52.0281 48.7909 52.1138 48.687Z" fill="#E6AE9B"/>
<path d="M47.4193 50.8121C47.4138 50.8372 47.4075 50.8624 47.3996 50.8876C47.2949 50.9073 47.1911 50.9277 47.0864 50.9474C47.173 50.8428 47.2603 50.7397 47.4193 50.8121Z" fill="#DB8E7C"/>
<defs>
<linearGradient id="paint0_linear_1334_8" x1="53.5" y1="-3.8147e-06" x2="53.5" y2="107" gradientUnits="userSpaceOnUse">
<stop stop-color="#000622"/>
<stop offset="1" stop-color="#000622" stop-opacity="0"/>
</linearGradient>
</defs>
</svg>
