<svg width="107" height="107" viewBox="0 0 107 107" fill="none" xmlns="http://www.w3.org/2000/svg">
<circle cx="53.5" cy="53.5" r="53.5" transform="rotate(-180 53.5 53.5)" fill="url(#paint0_linear_1334_7)"/>
<path fill-rule="evenodd" clip-rule="evenodd" d="M82.0023 53.5209C81.9968 37.8161 69.2161 25.0011 53.5578 25C37.8331 24.9989 25.0823 37.7088 25.0004 53.3339C24.9196 68.8938 37.4636 81.9444 53.4604 81.992C69.1509 82.0396 82.0079 69.2113 82.0023 53.5209ZM80.6747 53.1945C80.8152 68.3638 68.715 80.5947 53.5478 80.6987C38.4991 80.6411 26.4685 68.6958 26.3125 53.803C26.1532 38.6403 38.2026 26.5721 52.9969 26.321C68.3775 26.061 80.5375 38.3361 80.6747 53.1945ZM73.707 58.0111V58.0111V58.011V58.011V58.0109V58.0108V58.0108C73.721 56.7086 73.7351 55.4012 73.6079 54.067L73.5676 54.0858C72.7862 54.4502 72.0591 54.7892 72.0623 55.8062C72.0695 57.4054 72.0717 59.0046 72.0739 60.6038V60.6074C72.0754 61.7154 72.0769 62.8234 72.08 63.9313C72.0804 64.0463 72.0917 64.1625 72.1028 64.2785V64.2785C72.122 64.4774 72.1411 64.6753 72.1055 64.864C71.9619 65.615 71.416 66.0613 70.8776 66.5015L70.8775 66.5016C70.7354 66.6178 70.5938 66.7335 70.4603 66.8544C70.2048 67.0856 70.0775 66.8012 70.0786 66.5092C70.0831 65.4039 70.0808 64.2987 70.0631 63.1934C70.0554 62.7442 70.1727 62.4001 70.5378 62.0893C71.2967 61.442 71.4417 60.3633 70.8907 59.663C70.3973 59.0357 69.739 58.7458 68.9413 58.9262C68.0883 59.1187 67.565 59.7017 67.3492 60.5171C67.1523 61.2617 67.5805 61.8005 68.1359 62.2087C68.4479 62.4378 68.5364 62.7022 68.5375 63.0507C68.539 63.442 68.5396 63.8334 68.5401 64.2249V64.2253C68.5418 65.4914 68.5434 66.7577 68.5806 68.0227C68.5972 68.5913 68.397 69.025 68.0418 69.4078C67.8142 69.6525 67.5648 69.8772 67.3155 70.1018C67.2085 70.1982 67.1016 70.2945 66.9963 70.3925C66.9012 70.4821 66.7994 70.5706 66.6555 70.5076C66.5169 70.4465 66.5176 70.3206 66.5183 70.1996L66.5184 70.1745C66.5167 69.6032 66.5138 69.0318 66.5109 68.4604C66.5041 67.0979 66.4972 65.7353 66.5073 64.3728C66.5105 63.9274 66.5189 63.4816 66.5273 63.0357L66.5273 63.0353C66.5512 61.7669 66.5751 60.4979 66.4785 59.2348C66.4055 58.2823 66.6644 57.5322 67.3382 56.9082C68.3991 55.9251 69.4057 54.8881 70.4122 53.8512L70.4123 53.8511L70.4123 53.8511L70.4124 53.851L70.4124 53.851L70.4125 53.851L70.4125 53.8509C71.2795 52.9577 72.1465 52.0645 73.0481 51.206C73.5139 50.7623 73.7009 50.26 73.6953 49.636C73.6879 48.7708 73.6855 47.9056 73.6832 47.0403C73.6799 45.8422 73.6766 44.6441 73.6599 43.446L73.6585 43.3549L73.6572 43.2845C73.6432 42.5258 73.6296 41.7864 74.3569 41.2708C74.3884 41.2485 74.4094 41.21 74.43 41.1721C74.4369 41.1593 74.4437 41.1467 74.451 41.1348C74.9699 40.2818 74.7818 39.1876 74.0173 38.6023C73.2827 38.0392 72.132 38.1697 71.4594 38.8933C70.7801 39.6257 70.7701 40.6004 71.528 41.3638C72.0468 41.886 72.1973 42.4646 72.1531 43.1616C72.028 45.1298 72.0291 47.1003 72.1011 49.0718C72.1199 49.604 71.9937 50.0874 71.5955 50.4802C71.0428 51.0256 70.4954 51.5752 69.9477 52.125C69.7422 52.3313 69.5366 52.5376 69.3307 52.7438C68.9624 53.1128 68.5942 53.482 68.226 53.8512L68.2259 53.8514C67.2681 54.8118 66.3103 55.7724 65.3489 56.7289C65.0823 56.9934 65.0082 57.3031 64.9695 57.6682C64.7965 59.3154 64.835 60.9645 64.8735 62.6129C64.8921 63.4115 64.9107 64.2099 64.9053 65.0078C64.8939 66.7142 64.9155 68.4212 64.937 70.1286C64.9532 71.4047 64.9693 72.6809 64.9717 73.9572C64.9719 73.9866 64.9683 74.0179 64.9646 74.0495L64.9646 74.0496C64.9529 74.1491 64.9409 74.252 65.0491 74.309C65.1963 74.3864 65.2872 74.2859 65.3725 74.1915C65.3872 74.1752 65.4018 74.1591 65.4164 74.1442C65.7128 73.8434 65.999 73.5333 66.2852 73.2232L66.2853 73.2231C66.7233 72.7485 67.1613 72.274 67.6358 71.833C68.523 71.0085 69.3712 70.1447 70.2193 69.2809C71.1638 68.3189 72.1082 67.357 73.1067 66.4494C73.5006 66.0921 73.7329 65.6506 73.7097 65.0864C73.6457 63.511 73.6648 61.935 73.6838 60.3589C73.6901 59.8374 73.6965 59.316 73.6998 58.7945C73.7014 58.5365 73.7042 58.2784 73.707 58.0201L73.707 58.0187L73.707 58.0172L73.707 58.0157L73.707 58.0142L73.707 58.0126L73.707 58.0111ZM72.9164 41.22C72.2947 41.2299 71.8057 40.7398 71.8079 40.1092C71.8112 39.4896 72.1962 39.1411 72.8799 39.1422C73.5294 39.1433 73.9841 39.5394 73.9863 40.107C73.9885 40.6867 73.484 41.2111 72.9164 41.22ZM69.2887 61.8149C68.7023 61.8226 68.2974 61.3414 68.2907 60.6289C68.2863 60.152 68.7897 59.7084 69.3274 59.7172C69.8728 59.725 70.3818 60.2029 70.3862 60.7096C70.3906 61.2285 69.8153 61.8082 69.2887 61.8149ZM40.4788 72.6777L40.4771 72.6761C39.4023 71.6909 38.3318 70.7096 37.275 69.7133C36.3961 68.8839 35.535 68.0349 34.6739 67.1858C34.3427 66.8593 34.0116 66.5327 33.6794 66.2073C33.4603 65.9927 33.3386 65.7304 33.3397 65.4196L33.3423 63.4206C33.3462 60.4204 33.3502 57.4201 33.3475 54.419C33.3475 54.1247 33.4293 54.0805 33.6937 54.1668C34.4804 54.4256 34.8953 54.9467 34.8986 55.8152C34.9085 58.7073 34.913 61.6004 34.8875 64.4924C34.8831 65.0113 34.986 65.4129 35.3887 65.7559C35.607 65.9418 35.8037 66.1525 36.0006 66.3634L36.0006 66.3634C36.106 66.4764 36.2114 66.5893 36.3202 66.6985C36.4375 66.8158 36.5703 66.9397 36.755 66.8667C36.919 66.8019 36.9189 66.6288 36.9188 66.4951L36.9188 66.485C36.9182 65.8106 36.9131 65.1363 36.908 64.4619C36.9037 63.8839 36.8993 63.3058 36.8978 62.7278C36.8969 62.485 36.7462 62.3569 36.5959 62.2291C36.5538 62.1933 36.5117 62.1576 36.4729 62.1193C35.9784 61.6325 35.59 61.087 35.8334 60.3602C36.0868 59.6045 36.6035 59.0713 37.4056 58.8754C38.0417 58.7205 39.0397 59.2505 39.4358 59.9375C39.8175 60.6003 39.7367 61.2497 39.1182 61.8283C38.6182 62.2963 38.4411 62.8539 38.4434 63.5078C38.4467 65.0733 38.45 66.6399 38.4334 68.2054C38.429 68.576 38.5208 68.8526 38.7675 69.148C38.9614 69.3803 39.1806 69.5836 39.3995 69.7865C39.5841 69.9576 39.7684 70.1285 39.9369 70.3163C40.0476 70.4391 40.1958 70.5586 40.3717 70.4911C40.5344 70.429 40.5272 70.2823 40.5204 70.1433C40.519 70.1141 40.5176 70.0851 40.5178 70.0574C40.52 67.9315 40.5212 65.8055 40.5225 63.6792L40.5244 60.494C40.5244 60.3156 40.5239 60.1372 40.5233 59.9586V59.9585C40.5218 59.4739 40.5202 58.9891 40.53 58.5048C40.5399 58.0169 40.3983 57.6086 40.0387 57.2679C39.0604 56.3373 38.1187 55.3697 37.177 54.4022L37.1769 54.4021L37.1769 54.4021L37.1769 54.4021L37.1769 54.4021L37.1769 54.4021C36.0889 53.2842 35.0009 52.1664 33.8564 51.1055C33.4758 50.7525 33.3386 50.3255 33.3408 49.821C33.3442 48.9524 33.3448 48.0838 33.3455 47.2152C33.3464 45.8358 33.3474 44.4565 33.3596 43.0777C33.3652 42.3663 33.2092 41.7567 32.7058 41.2146C32.1249 40.5895 32.0917 39.8571 32.5144 39.1855C32.9503 38.4918 33.7546 38.1256 34.497 38.2838C35.3411 38.4631 36.0094 39.0981 36.0614 39.856C36.1134 40.6017 35.7505 41.2102 35.236 41.7102C34.9749 41.9647 34.8908 42.2236 34.8864 42.5776C34.8763 43.3394 34.885 44.1011 34.8938 44.8627V44.8627V44.8628V44.8629V44.8629V44.863C34.908 46.1088 34.9223 47.3545 34.8543 48.6006C34.7913 49.7579 35.3754 50.6662 36.2351 51.3621C37.4443 52.3413 38.4976 53.4709 39.5442 54.6071C39.8568 54.9459 40.1937 55.2596 40.5307 55.5732C40.9604 55.9732 41.3901 56.3732 41.7691 56.8253C41.9704 57.0654 42.0899 57.2867 42.0877 57.6075C42.0819 58.3999 42.0743 59.1923 42.0667 59.9847C42.0424 62.5257 42.018 65.0666 42.0534 67.6068C42.0678 68.6481 42.0493 69.688 42.0308 70.7278C42.0152 71.6025 41.9996 72.4771 42.0036 73.3522C42.0031 73.3952 42.0056 73.4387 42.008 73.483C42.0167 73.6394 42.026 73.8054 41.9096 73.9916C41.4324 73.5518 40.9552 73.1144 40.4788 72.6777ZM35.2227 40.1115C35.2238 39.5838 34.747 39.1424 34.1684 39.1357C33.5909 39.1291 33.0664 39.6104 33.0664 40.1447C33.0675 40.6813 33.6174 41.2179 34.1805 41.2323C34.7525 41.2467 35.2227 40.7399 35.2227 40.1115ZM37.6667 59.7163C37.1644 59.6986 36.661 60.1721 36.6544 60.6688C36.6455 61.3105 37.0814 61.7852 37.7109 61.8217C38.2553 61.8526 38.7576 61.3327 38.7686 60.7242C38.7775 60.2307 38.2376 59.7362 37.6667 59.7163ZM65.8874 53.3106C66.6087 52.5173 66.7183 51.6543 66.3753 50.6166C65.9304 51.0614 65.4892 51.5014 65.0509 51.9384L65.0504 51.9389C64.074 52.9125 63.1122 53.8715 62.1578 54.8373C61.6247 55.377 61.0986 55.9243 60.5724 56.4716L60.5724 56.4717L60.5723 56.4717L60.5723 56.4718L60.5722 56.4718C59.582 57.5019 58.5917 58.5321 57.5543 59.5117C56.4025 60.5993 55.2829 61.7167 54.1666 62.8397C53.5902 63.4183 53.4087 63.4371 52.8168 62.8463C51.1097 61.1425 49.4026 59.4376 47.6966 57.7327C47.3057 57.3421 46.9147 56.9516 46.5237 56.5612C45.3509 55.39 44.178 54.2188 43.0089 53.0439C42.2909 52.3237 41.7986 51.526 42.0763 50.4318C42.1935 49.9693 42.0862 49.5146 41.7488 49.144C41.3936 48.7546 41.0053 48.4027 40.5163 48.0421C40.5163 48.3948 40.5218 48.7405 40.5272 49.081V49.081C40.5393 49.8437 40.551 50.5805 40.4997 51.3125C40.4333 52.2496 40.7221 52.9034 41.397 53.5894C42.864 55.0804 44.3554 56.5472 45.8468 58.0139C48.2685 60.3956 50.6901 62.7772 53.0071 65.2626C53.4054 65.6896 53.63 65.704 54.0051 65.2482C54.7325 64.363 55.5586 63.5775 56.3847 62.792L56.3849 62.7918C56.7586 62.4365 57.1322 62.0812 57.4967 61.7167C58.1229 61.09 58.7531 60.467 59.3833 59.844L59.3839 59.8433C60.1285 59.1072 60.8732 58.371 61.6113 57.6287C62.0615 57.176 62.5173 56.7287 62.9731 56.2814L62.9731 56.2813L62.9732 56.2813L62.9732 56.2812L62.9733 56.2812C63.9632 55.3095 64.9533 54.3378 65.8874 53.3106ZM40.6099 43.2655C41.3688 43.8054 41.9696 44.4549 42.5648 45.101C43.1427 45.7285 43.7545 46.3215 44.3665 46.9147L44.3665 46.9148L44.3665 46.9148L44.3666 46.9148C44.9555 47.4857 45.5447 48.0568 46.104 48.659C46.6905 49.2905 47.3105 49.8908 47.9307 50.4913C48.6047 51.1438 49.279 51.7967 49.911 52.4904C50.3967 53.0232 50.9266 53.5103 51.4567 53.9976C51.9965 54.4939 52.5364 54.9902 53.0299 55.5351C53.4149 55.9599 53.6362 55.909 54.0864 55.462C58.0107 51.571 61.9372 47.6821 65.8637 43.7932C65.9776 43.6801 66.0965 43.5725 66.2299 43.452L66.2302 43.4517C66.2936 43.3943 66.3603 43.3341 66.4312 43.2688C66.5267 43.5812 66.5158 43.8727 66.5053 44.1547V44.1547V44.1547V44.1548C66.5011 44.2683 66.497 44.3802 66.4998 44.4914L66.5062 44.7532C66.5286 45.6598 66.5511 46.5677 66.4401 47.4719C66.3914 47.868 65.4875 48.8914 65.1412 48.9478C64.9465 48.9799 64.9448 48.828 64.9437 48.7252L64.9435 48.709L64.9432 48.6955C64.9355 48.468 64.9432 48.24 64.9508 48.0118V48.0118V48.0117V48.0116C64.9543 47.9092 64.9577 47.8067 64.9598 47.7042L64.9607 47.6625C64.9651 47.49 64.9698 47.3057 64.7805 47.2208C64.588 47.1334 64.4232 47.2396 64.2882 47.3768C64.0996 47.5681 63.9119 47.7605 63.7241 47.953L63.7237 47.9534L63.7233 47.9538L63.7224 47.9547L63.7223 47.9548L63.7221 47.955L63.722 47.9551C63.4479 48.2361 63.1737 48.5171 62.8964 48.7951C61.9262 49.7672 60.9553 50.7388 59.9845 51.7103C58.6903 53.0054 57.3961 54.3005 56.1033 55.597C55.7677 55.9333 55.4367 56.2743 55.1057 56.6152L55.1055 56.6155C54.7951 56.9352 54.4848 57.2549 54.1705 57.5708C53.6472 58.0963 53.4625 58.0919 52.9425 57.5663C51.927 56.5421 50.9137 55.5157 49.9004 54.4893L49.8993 54.4882L49.8982 54.4871L49.8971 54.4859L49.897 54.4859L49.897 54.4858L49.8969 54.4857C47.0939 51.6464 44.2911 48.8074 41.4429 46.0137C40.611 45.195 40.3465 44.3918 40.6099 43.2655ZM61.7842 65.6607C62.9083 65.6519 63.6949 64.8276 63.6839 63.7025C63.6739 62.761 62.7058 61.8725 61.7367 61.9157C60.6558 61.9611 59.7474 62.9767 59.9145 64.0432C59.9853 64.4946 59.8492 64.7745 59.5593 65.0655C57.6984 66.9297 55.8387 68.795 53.991 70.6725C53.6403 71.0288 53.3715 71.0177 53.0241 70.6659C51.1499 68.7674 49.2691 66.8744 47.3706 65.0002C47.084 64.717 47.0187 64.4493 47.0752 64.0753C47.2278 63.0619 46.5939 62.1502 45.617 61.9312C44.7828 61.7442 43.6908 62.418 43.4031 63.2986C43.0403 64.4094 43.9231 65.6862 45.0726 65.6607C45.7166 65.6474 46.2642 65.8731 46.6348 66.3389C46.9758 66.7669 47.3678 67.1398 47.7589 67.5119L47.759 67.5119L47.759 67.5119C48.0189 67.7592 48.2785 68.006 48.5223 68.2684C49.1826 68.9785 49.8809 69.6505 50.5792 70.3224C51.4334 71.1445 52.2875 71.9664 53.0716 72.8576C53.3814 73.2094 53.6447 73.1718 53.9412 72.8476C55.065 71.6198 56.2561 70.4589 57.4472 69.2982L57.4473 69.2981C58.4841 68.2876 59.5208 67.2772 60.513 66.2228C60.8549 65.8599 61.2676 65.664 61.7842 65.6607ZM45.2607 62.7432C45.8028 62.7355 46.2775 63.1958 46.2863 63.7412C46.2952 64.2977 45.8205 64.8741 45.3315 64.8995C44.7684 64.9294 44.1356 64.3353 44.1367 63.7777C44.1367 63.2035 44.6279 62.7521 45.2607 62.7432ZM60.7476 63.7832C60.7675 63.1471 61.2167 62.709 61.8373 62.7189C62.4071 62.7278 62.8862 63.2256 62.8707 63.7921C62.8541 64.3309 62.2644 64.915 61.7599 64.894C61.2576 64.873 60.731 64.2955 60.7476 63.7832ZM36.9329 43.2681L36.9327 41.7203C36.9324 40.6885 36.9322 39.6566 36.9329 38.6247C36.9329 38.2275 36.8743 37.8824 36.5047 37.6168C35.5599 36.9364 35.665 35.6763 36.1474 35.06C36.7869 34.2424 38.1466 34.0732 38.921 34.6971C39.7619 35.3742 39.9831 36.5746 39.1888 37.317C38.4525 38.0049 38.4636 38.7492 38.476 39.5774L38.476 39.5776C38.4769 39.6405 38.4779 39.7038 38.4785 39.7676C38.4929 41.2557 38.4801 42.7442 38.4672 44.2329C38.4604 45.0287 38.4535 45.8246 38.4508 46.6204C38.4483 47.262 38.4524 47.9036 38.4565 48.5455C38.4595 49.0093 38.4625 49.4732 38.463 49.9373C38.463 49.9647 38.4646 49.9935 38.4663 50.0227L38.4663 50.0228C38.4742 50.1619 38.4826 50.3108 38.3181 50.3721C38.195 50.4187 38.1199 50.335 38.046 50.2527L38.046 50.2527C38.0182 50.2217 37.9906 50.191 37.9607 50.1674C37.2106 49.5788 36.8875 48.79 36.8853 47.8551C36.8837 46.7091 36.8839 45.5631 36.8841 44.4171V44.4154L36.8842 43.2681H36.9329ZM38.7639 36.1332C38.7562 35.5269 38.3247 35.133 37.6852 35.1485C37.1132 35.1618 36.6607 35.6165 36.6751 36.1642C36.6895 36.7284 37.236 37.3082 37.7494 37.3048C38.2838 37.3026 38.7717 36.7384 38.7639 36.1332ZM68.5255 42.7208C68.5264 43.2146 68.5273 43.7083 68.5273 44.202H68.5671V49.8898C68.5674 49.9243 68.5671 49.959 68.5669 49.9937C68.5662 50.0881 68.5654 50.1829 68.576 50.2759C68.5892 50.3954 68.6357 50.485 68.7906 50.4219C69.3416 50.1962 70.0828 49.0722 70.0817 48.4427C70.081 47.7724 70.0807 47.1021 70.0804 46.4318C70.0793 43.918 70.0781 41.4042 70.0563 38.8903C70.0518 38.3228 70.1581 37.9068 70.6305 37.5196C71.2921 36.9774 71.3861 35.7936 70.9281 35.1486C70.3871 34.3874 69.3593 34.0887 68.5339 34.4505C67.2273 35.0247 66.9839 36.5404 68.0615 37.5749C68.3967 37.8957 68.5417 38.2199 68.5361 38.6812C68.5207 40.0275 68.5231 41.3743 68.5255 42.7208ZM69.3095 37.2983C68.743 37.2817 68.264 36.7562 68.2728 36.1609C68.2828 35.5425 68.732 35.132 69.3847 35.1486C69.9622 35.163 70.3904 35.6078 70.3705 36.1709C70.3483 36.775 69.8416 37.3138 69.3095 37.2983Z" fill="url(#paint1_linear_1334_7)"/>
<defs>
<linearGradient id="paint0_linear_1334_7" x1="53.5" y1="-3.8147e-06" x2="53.5" y2="107" gradientUnits="userSpaceOnUse">
<stop stop-color="#000622"/>
<stop offset="1" stop-color="#000622" stop-opacity="0"/>
</linearGradient>
<linearGradient id="paint1_linear_1334_7" x1="69.2975" y1="34.2976" x2="68.2034" y2="77.9394" gradientUnits="userSpaceOnUse">
<stop stop-color="#BF26DD"/>
<stop offset="0.484375" stop-color="#5144F4"/>
<stop offset="1" stop-color="#14CEE1"/>
</linearGradient>
</defs>
</svg>
