<svg width="107" height="107" viewBox="0 0 107 107" fill="none" xmlns="http://www.w3.org/2000/svg">
<circle cx="53.5" cy="53.5" r="53.5" transform="rotate(-180 53.5 53.5)" fill="url(#paint0_linear_1334_10)"/>
<path d="M62.7831 55.3046C58.4766 52.5927 54.1128 49.9764 49.835 47.2168C48.7422 46.5086 47.9361 45.4358 47.5602 44.1891C47.1843 42.9424 47.2628 41.6027 47.7819 40.4085C48.3185 39.1595 49.2611 38.1283 50.4569 37.4819C51.6527 36.8355 53.0318 36.6117 54.3706 36.8468C55.2665 37.0153 56.1085 37.3975 56.825 37.9611C57.5415 38.5247 58.1114 39.2529 58.4861 40.0839V39.9883L58.9636 40.8669V40.9432C58.5912 40.8764 58.2092 40.8 57.8273 40.7427L54.1032 40.1507C53.6527 40.0554 53.184 40.0951 52.756 40.2649C52.3279 40.4348 51.9595 40.7273 51.697 41.1056C51.4534 41.4415 51.3001 41.8342 51.2516 42.2462C51.2032 42.6583 51.2613 43.0758 51.4203 43.459C51.5793 43.8422 51.834 44.1782 52.16 44.4349C52.4859 44.6916 52.8722 44.8604 53.282 44.9251L64.0721 46.6534C64.3934 46.7034 64.7215 46.6891 65.0372 46.6112C65.3529 46.5334 65.65 46.3935 65.9112 46.1998C66.1724 46.0061 66.3925 45.7624 66.5587 45.483C66.725 45.2035 66.834 44.8938 66.8795 44.5718C66.9941 43.7697 67.1277 42.9676 67.2519 42.1655C67.7039 39.3773 68.1495 36.589 68.5887 33.8008C68.6805 33.173 68.5246 32.5341 68.154 32.0191C67.7834 31.5042 67.227 31.1534 66.6026 31.0412C66.2797 30.9811 65.948 30.9868 65.6273 31.0578C65.3066 31.1288 65.0036 31.2637 64.7362 31.4544C64.4689 31.6452 64.2427 31.8878 64.0711 32.1679C63.8996 32.448 63.7863 32.7598 63.7379 33.0846L62.9931 37.7731C62.9931 37.8399 62.9931 37.9067 62.9263 38.0309L62.5062 37.4484L62.3342 37.2097C61.8078 36.2874 61.1446 35.4504 60.3672 34.727C58.5399 33.0512 56.1909 32.0565 53.7159 31.9104C51.2408 31.7643 48.7911 32.4757 46.7793 33.9249C44.8301 35.3464 43.4134 37.3801 42.7557 39.7013C42.0979 42.0224 42.2371 44.497 43.1508 46.7298C44.4972 49.8331 46.4452 51.329 49.1952 53C53.0815 55.3681 57.5885 58.0355 61.3985 60.5182C62.3447 61.1695 63.0627 62.1013 63.4516 63.1821C63.8404 64.263 63.8805 65.4386 63.5661 66.5434C63.2578 67.6753 62.6253 68.6923 61.7465 69.4693C60.8677 70.2463 59.7809 70.7495 58.6198 70.9168C57.247 71.1415 55.8391 70.8707 54.6475 70.1529L53.6926 69.0548C53.0268 68.1994 52.4297 67.2926 51.907 66.343C50.9521 67.4506 49.9973 68.4437 49.1952 69.4845C49.1049 69.6138 49.0481 69.7634 49.0297 69.9201C49.0114 70.0767 49.0321 70.2354 49.0901 70.3821C50.152 72.3029 51.7606 73.8649 53.7117 74.87C54.1955 75.1013 54.7226 75.2282 55.2586 75.2424C55.4878 75.3092 55.717 75.3665 55.9557 75.4143C57.3622 75.7011 58.8125 75.699 60.2182 75.408C61.6239 75.117 62.9558 74.5433 64.1329 73.7216C65.31 72.9 66.3077 71.8476 67.0655 70.6284C67.8233 69.4092 68.3252 68.0486 68.5409 66.6294C69.1616 61.5113 66.9177 57.921 62.7831 55.3046Z" fill="url(#paint1_linear_1334_10)"/>
<path d="M36.6956 70.6298C36.5237 67.7651 39.3979 62.8189 41.9761 61.5584C42.3163 61.3724 42.7104 61.3098 43.0915 61.3812C43.4726 61.4525 43.8173 61.6534 44.0672 61.9499C44.6211 62.5133 45.1081 63.1531 45.6905 63.8597C46.5786 62.8189 47.4666 61.8258 48.3069 60.785C48.3651 60.6593 48.3952 60.5225 48.3952 60.384C48.3952 60.2455 48.3651 60.1086 48.3069 59.9829C46.5499 56.6599 42.9596 55.6 39.799 57.6721C37.7215 58.989 35.9554 60.7421 34.6231 62.8098C33.2908 64.8775 32.4243 67.2102 32.0835 69.6462C31.8992 70.6187 32.0217 71.6244 32.4339 72.5243C32.8462 73.4241 33.5279 74.1735 34.3848 74.6689C35.3216 75.2636 36.3943 75.6099 37.502 75.675C38.6096 75.7402 39.7157 75.5221 40.7157 75.0413L39.6748 74.6784C38.8015 74.4261 38.0361 73.8925 37.4973 73.1603C36.9586 72.4282 36.6767 71.5386 36.6956 70.6298Z" fill="url(#paint2_linear_1334_10)"/>
<path d="M55.5357 58.3982C54.5809 58.3218 53.6929 58.3982 52.7762 58.3123C52.4387 58.2739 52.0971 58.3263 51.7866 58.4639C51.4761 58.6015 51.2078 58.8195 51.0096 59.0953C49.2622 61.2246 47.5243 63.3731 45.6814 65.4165C43.3992 67.9374 41.2222 70.6397 37.5459 71.1458C38.2812 74.0104 41.1267 75.1181 43.3802 73.4471C48.5365 69.6276 52.2032 64.4426 56.1469 59.5059C56.672 58.8947 56.271 58.4555 55.5357 58.3982Z" fill="url(#paint3_linear_1334_10)"/>
<defs>
<linearGradient id="paint0_linear_1334_10" x1="53.5" y1="-3.8147e-06" x2="53.5" y2="107" gradientUnits="userSpaceOnUse">
<stop stop-color="#000622"/>
<stop offset="1" stop-color="#000622" stop-opacity="0"/>
</linearGradient>
<linearGradient id="paint1_linear_1334_10" x1="42.3469" y1="53.3697" x2="68.6426" y2="53.3697" gradientUnits="userSpaceOnUse">
<stop stop-color="#04FD93"/>
<stop offset="1" stop-color="#00A5F9"/>
</linearGradient>
<linearGradient id="paint2_linear_1334_10" x1="32" y1="66.172" x2="48.3949" y2="66.172" gradientUnits="userSpaceOnUse">
<stop stop-color="#04FD93"/>
<stop offset="1" stop-color="#00A5F9"/>
</linearGradient>
<linearGradient id="paint3_linear_1334_10" x1="37.5459" y1="66.2855" x2="56.3856" y2="66.2855" gradientUnits="userSpaceOnUse">
<stop stop-color="#04FD93"/>
<stop offset="1" stop-color="#00A5F9"/>
</linearGradient>
</defs>
</svg>
