<svg width="107" height="107" viewBox="0 0 107 107" fill="none" xmlns="http://www.w3.org/2000/svg">
<circle cx="53.5" cy="53.5" r="53.5" transform="rotate(-180 53.5 53.5)" fill="url(#paint0_linear_1334_9)"/>
<path d="M24.1364 19.0079C30.1628 25.6039 36.1945 32.196 42.2144 38.7972C44.2302 41.0086 46.2184 43.2449 48.229 45.4615C48.4679 45.7239 48.5479 45.9917 48.544 46.3408C48.523 48.2542 47.4915 49.4563 45.8497 50.2438C44.9126 50.6939 43.8955 50.8238 42.8876 50.9997C41.486 51.2438 40.7865 51.8711 40.7038 53.2727C40.5385 56.0642 39.776 58.6535 38.4885 61.1273C37.7142 62.6156 37.4846 64.1957 38.3612 65.7587C38.8757 66.6747 39.6736 67.3244 40.5017 67.9386C41.0621 68.3546 41.6212 68.7732 42.1881 69.1814C44.2459 70.667 44.0793 73.5332 42.4965 75.0149C40.8718 76.5359 38.9282 77.406 36.8415 78.0216C36.1538 78.225 35.4517 78.3772 34.7522 78.5386C34.4123 78.6174 34.1748 78.6056 34.0514 78.1423C33.7548 77.0307 33.0396 76.1212 32.4385 75.1619C31.3558 73.4335 30.6615 71.5922 30.5762 69.5265C30.4935 67.5055 31.1405 65.7666 32.3873 64.2075C33.6131 62.6746 34.8664 61.1628 35.9084 59.4895C37.0266 57.6928 37.5712 55.7321 37.8179 53.6455C38.0003 52.0995 38.4256 50.623 39.5398 49.4222C40.3219 48.5784 40.3298 48.3448 39.7747 47.3329C37.793 43.7213 35.7955 40.1188 33.806 36.5111C33.68 36.284 33.5671 36.0491 33.4477 35.8181C33.3847 35.6619 33.4661 35.6423 33.5921 35.6633C35.7286 38.9298 37.8625 42.1989 40.0043 45.4615C40.4466 46.136 40.8902 46.8145 41.3876 47.4484C42.4506 48.8015 44.9166 48.7857 46.0072 47.4458C46.3786 46.9891 46.3549 46.4851 45.889 45.9037C44.4415 44.0992 42.9913 42.2986 41.528 40.5072C37.4964 35.5714 33.4582 30.6408 29.4213 25.7089C27.6247 23.5133 25.8228 21.3229 24.0222 19.1299C23.9618 18.9974 24.0327 18.9882 24.1364 19.0079Z" fill="#ED1E7B"/>
<path d="M81.9058 67.697C81.8401 65.3282 80.659 63.6903 78.8256 62.4619C77.9384 61.8674 76.9961 61.3635 76.0171 60.9356C73.626 59.8897 71.2178 58.8818 68.8358 57.8174C67.341 57.1494 65.9289 56.3318 64.6572 55.2819C62.4891 53.4931 61.6768 51.182 61.9694 48.4142C62.0403 48.4195 62.1217 48.3998 62.1584 48.4326C64.1007 50.1321 66.5286 50.4747 68.9382 50.8723C71.6587 51.3212 74.4226 51.5889 76.9843 52.7228C80.1235 54.1126 82.4031 56.3095 83.2063 59.7361C83.8205 62.3582 83.5764 64.9279 82.2706 67.34C82.2299 67.4161 82.1853 67.4923 82.1341 67.5618C82.1079 67.592 82.0606 67.6051 81.9058 67.697Z" fill="#ED1E7B"/>
<path d="M46.0229 33.3429C47.0046 33.0385 47.8262 33.2616 48.6201 33.3718C51.4116 33.7603 53.6702 35.196 55.6453 37.1292C56.1912 37.6633 56.7385 38.2027 57.228 38.788C57.5587 39.1817 57.917 39.2539 58.3777 39.1607C59.5785 38.9179 60.8003 38.8129 62.0195 38.8261C65.4973 38.8641 68.7809 39.6437 71.8177 41.4101C72.6012 41.8668 73.0107 42.4338 73.0592 43.3078C73.134 44.6622 73.2207 46.0153 72.5251 47.2699C72.2666 47.7371 72.403 48.1754 72.7823 48.5009C73.1878 48.8487 73.6419 48.892 74.096 48.5429C74.8651 47.9497 75.1813 47.0914 75.4648 46.2161C75.6092 45.7712 75.7168 45.3131 75.869 44.7567C77.8533 47.01 79.2983 49.4156 79.7773 52.3291C79.6395 52.3645 79.5804 52.3068 79.5384 52.2333C78.3219 50.1414 76.3795 49.3618 74.0855 49.1623C71.8925 48.9707 69.6917 48.9091 67.5066 48.5901C63.6613 48.0284 60.8108 45.9536 58.5338 42.9167C57.3698 41.3642 56.1663 39.8366 54.9104 38.3588C52.9471 36.0478 50.5953 34.301 47.5597 33.6409C47.107 33.5411 46.6463 33.4624 46.0229 33.3429Z" fill="#ED1E7B"/>
<path d="M75.0345 82.2236C75.419 81.2656 75.8298 80.4099 75.9886 79.4493C76.272 77.73 75.8416 76.1644 75.0922 74.6591C73.9413 72.348 72.3913 70.2836 71.0068 68.1169C70.1564 66.7874 69.4332 65.4029 69.0999 63.8464C68.8466 62.6587 68.844 61.4684 69.1773 60.2938C69.239 60.0786 69.26 59.6954 69.6747 59.9539C72.2089 61.5327 74.9728 62.7243 77.3666 64.5407C79.3548 66.0499 80.7551 67.9673 81.1331 70.4595C81.8588 75.247 79.9887 79.8456 75.3193 82.2C75.2668 82.2236 75.1946 82.2105 75.0345 82.2236Z" fill="#ED1E7B"/>
<path d="M52.9064 80.1082C52.4589 78.8838 53.5075 77.6882 54.9078 77.8273C56.2149 77.9572 57.2071 78.7709 57.3409 79.8247C57.5706 81.6437 56.8895 82.9928 55.3658 83.5073C53.703 84.0677 52.2358 83.5965 50.9615 82.4482C50.0533 81.6293 49.2462 80.7053 48.3144 79.9061C47.0795 78.8457 45.624 78.3273 44.0584 78.0425C43.4796 77.9375 42.8982 77.8483 42.2302 77.7381C42.8352 77.0661 43.519 76.5753 44.1988 76.0923C46.3314 74.5752 48.6346 73.3836 51.2187 72.8849C54.1479 72.3179 56.9932 72.4859 59.5575 74.255C61.3699 75.507 62.1784 77.3457 62.576 79.4205C62.8057 80.6161 62.9671 81.8274 63.2283 83.0164C63.8372 85.8 65.5433 86.8027 68.42 86.237C68.9896 86.1255 69.5408 85.9247 70.1261 85.7567C69.5867 86.4759 67.8675 87.2528 66.7572 87.3486C64.4251 87.5494 62.845 86.4011 61.681 84.5309C60.8962 83.2697 60.3935 81.8655 59.7373 80.5374C59.009 79.0636 58.0168 77.8601 56.4813 77.1829C55.4655 76.7354 54.4104 76.6645 53.3579 77.0163C51.9326 77.4926 51.0993 79.0058 51.4877 80.3379C51.8972 81.7395 53.619 82.7356 55.0062 82.3707C56.1191 82.0781 56.8147 80.8326 56.5049 79.6869C56.2503 78.7473 55.0403 78.1265 54.0337 78.4205C53.3211 78.6292 53.0153 79.1016 53.0363 79.9691C53.0928 80.1069 53.0298 80.1358 52.9064 80.1082Z" fill="#ED1E7B"/>
<path d="M52.6715 46.4142C51.489 46.3302 50.5152 45.7633 49.6333 45.0323C47.4981 43.2605 46.4692 40.8799 45.9324 38.2302C45.7395 37.2774 45.7762 36.322 45.788 35.3627C45.7933 34.9899 45.8208 34.8338 46.2959 34.9388C49.0624 35.5464 50.4549 36.9953 51.0428 39.9835C51.4313 41.9587 51.9536 43.88 53.1597 45.5441C53.2961 45.7318 53.4983 45.9339 53.325 46.1872C53.1754 46.4063 52.9221 46.4234 52.6715 46.4142Z" fill="#ED1E7B"/>
<path d="M51.3645 70.6329C52.7399 69.6328 54.2491 68.9373 55.908 68.5987C57.7164 68.2286 59.5393 67.9228 61.3464 67.5475C64.3557 66.9241 66.886 64.6156 66.6576 60.9777C66.6025 60.1102 66.3768 59.2716 66.1392 58.4133C66.9372 58.9593 67.7285 60.7179 67.8335 61.8793C68.2194 66.1564 65.0014 68.4268 62.1824 69.0961C60.664 69.4557 59.1154 69.4872 57.576 69.5856C55.467 69.7195 53.3869 69.9701 51.3645 70.6329Z" fill="#ED1E7B"/>
<path d="M47.6423 54.236C47.641 52.9 48.7828 51.4446 49.9639 51.2766C51.5007 51.0587 53.0428 51.9761 53.4864 53.3738C53.7081 54.072 53.5034 54.7071 52.8 55.1875C51.6543 55.9683 50.3498 56.2098 48.998 56.0523C48.0046 55.9355 47.6423 55.3751 47.6423 54.236Z" fill="#ED1E7B"/>
<path d="M73.8743 47.1375C74.2523 45.5823 74.1486 44.1334 74.0331 42.682C73.9321 41.4063 73.3034 40.4942 72.243 39.8105C71.1459 39.1018 69.9634 38.5585 68.8164 37.9377C70.0592 38.17 71.2391 38.5952 72.4163 39.0309C73.2877 39.3538 73.3782 39.3052 73.4334 38.3708C73.4911 37.3904 73.5646 36.418 73.8691 35.477C73.9478 35.2316 74.0174 34.9809 74.289 34.7053C74.0607 35.7316 74.0331 36.6608 74.0961 37.6149C74.1906 39.023 74.7274 40.1569 75.7339 41.1228C76.755 42.1032 77.7209 43.1413 78.5227 44.3382C77.9086 43.829 77.297 43.3145 76.6762 42.8106C76.3718 42.5625 76.0594 42.325 75.7379 42.1006C75.1106 41.6622 74.873 41.7698 74.8153 42.552C74.7575 43.3342 74.814 44.1243 74.6735 44.9025C74.5384 45.6492 74.373 46.3868 73.8743 47.1375Z" fill="#ED1F7C"/>
<path d="M33.5933 35.6619C33.5447 35.713 33.4962 35.7655 33.4489 35.8167C33.1366 35.3836 32.8833 34.9204 32.7888 34.3547C33.0565 34.7904 33.3256 35.2262 33.5933 35.6619Z" fill="#EF5598"/>
<path d="M33.8727 68.1682C34.5709 68.1669 35.0315 68.5383 35.2257 69.2614C35.3767 69.8258 35.0682 70.541 34.5394 70.8205C34.1811 71.0108 33.8202 71.0187 33.5052 70.7352C33.2047 70.4662 33.2887 70.1525 33.4462 69.8402C33.5708 69.5935 33.7756 69.3402 33.4671 69.0843C33.2755 68.9241 32.9619 68.8257 33.1351 68.4819C33.2874 68.1827 33.5813 68.1682 33.8727 68.1682Z" fill="#FAF8F9"/>
<path d="M50.6608 51.6939C51.4561 51.6899 52.1057 52.144 52.1044 52.7031C52.1018 53.2267 51.3905 53.7477 50.6648 53.7543C49.9954 53.7609 49.191 53.1874 49.2028 52.7136C49.2172 52.1676 49.8878 51.6991 50.6608 51.6939Z" fill="#F8F6F7"/>
<defs>
<linearGradient id="paint0_linear_1334_9" x1="53.5" y1="-3.8147e-06" x2="53.5" y2="107" gradientUnits="userSpaceOnUse">
<stop stop-color="#000622"/>
<stop offset="1" stop-color="#000622" stop-opacity="0"/>
</linearGradient>
</defs>
</svg>
