<svg width="77" height="43" viewBox="0 0 77 43" fill="none" xmlns="http://www.w3.org/2000/svg">
<g filter="url(#filter0_d_1_2401)">
<path d="M52.782 0.000631008C47.7869 1.33332 43.7384 3.97851 40.914 8.3577C38.6878 11.8081 37.87 15.6143 38.1981 19.6729C38.7004 25.8947 43.3169 33.7116 53.2641 35.9555C52.7113 35.9555 52.1611 35.9555 51.6083 35.9555C44.4148 35.9555 37.2213 35.958 30.0278 35.958C29.6063 35.958 29.1823 35.9782 28.7683 35.9227C27.4104 35.7384 26.3907 34.59 26.4563 33.3582C26.5245 32.0584 27.5492 30.9932 28.9299 30.9528C30.9895 30.8948 33.0516 30.9301 35.1138 30.9251C35.7902 30.9226 36.4742 30.9074 37.0573 30.5111C38.0543 29.8322 38.5464 28.8806 38.2436 27.6867C37.9483 26.5181 37.1153 25.8392 35.924 25.6625C35.5126 25.6019 35.0835 25.6398 34.6645 25.6398C28.0187 25.6398 21.3729 25.6347 14.7246 25.6448C13.5636 25.6473 12.6675 25.2182 12.1779 24.143C11.7286 23.1612 11.9507 22.25 12.6448 21.4499C13.1421 20.8769 13.768 20.6497 14.5454 20.6523C18.4955 20.6624 22.4431 20.6295 26.3932 20.6245C27.3145 20.622 28.1575 20.4402 28.7709 19.6957C30.1111 18.0702 29.1899 15.7001 27.0848 15.3695C26.6734 15.3038 26.2443 15.3316 25.8253 15.3316C19.5582 15.3291 13.291 15.3341 7.02128 15.3291C5.18379 15.3291 4.00506 14.3472 4.00002 12.8505C3.99497 11.3335 5.1636 10.3264 6.98595 10.3264C16.1558 10.3189 25.3256 10.3239 34.4979 10.3214C34.9598 10.3214 35.4267 10.3466 35.8861 10.3012C37.2617 10.17 38.3041 9.03667 38.3168 7.69641C38.3294 6.38896 37.4056 5.31877 36.0376 5.10927C35.5832 5.0386 35.1163 5.04365 34.6544 5.04365C30.8254 5.0386 26.999 5.0487 23.17 5.03608C21.272 5.03103 20.0529 3.99365 20.0882 2.46156C20.1235 1.00015 21.3452 0.00567907 23.165 0.00315504C33.039 -0.00189302 42.9105 0.000631008 52.782 0.000631008Z" fill="#6145DF"/>
<path d="M56.5759 2.1208C65.5766 2.16371 72.7827 9.27643 72.7095 18.0424C72.6338 26.8387 65.3797 33.8252 56.3816 33.7696C47.5273 33.7141 40.3943 26.5585 40.4574 17.7875C40.5155 9.10985 47.7494 2.07789 56.5759 2.1208ZM57.6512 10.6293C58.2443 10.8893 58.6027 11.1089 58.7138 11.4698C59.0924 12.7015 59.9304 12.7546 60.9652 12.4643C61.2858 12.3759 61.629 12.3406 61.9622 12.3381C62.6942 12.333 62.8078 11.9696 62.6084 11.3588C61.9723 9.41021 60.7027 8.13557 58.6911 7.64338C58.1307 7.50456 57.53 7.48942 57.6158 6.60853C57.6789 5.975 57.0984 6.0482 56.7021 6.06839C56.2882 6.0911 55.5815 5.85132 55.6092 6.53281C55.6471 7.47427 55.0413 7.48942 54.4406 7.65096C52.1589 8.25925 50.5914 10.0235 50.3491 12.2371C50.0765 14.7233 51.066 17.2448 53.2442 17.997C55.5209 18.7845 55.8238 20.1878 55.5613 22.149C55.5335 22.356 55.5815 22.573 55.5512 22.7775C55.4754 23.2924 55.8414 24.1102 55.319 24.2591C54.751 24.4232 54.481 23.5726 54.0822 23.1637C53.9964 23.0753 53.903 22.9592 53.8878 22.8456C53.6884 21.4574 52.7697 21.5458 51.75 21.7603C51.3436 21.8461 50.917 21.8587 50.498 21.8815C49.867 21.9168 49.7307 22.2222 49.8872 22.8053C50.5561 25.2939 51.914 27.1289 54.5516 27.7347C55.2584 27.8962 55.69 28.1638 55.5663 28.9816C55.4351 29.8473 56.0585 29.7615 56.6163 29.7741C57.2069 29.7867 57.7597 29.7766 57.6411 28.9462C57.5199 28.0981 57.9212 27.8306 58.7213 27.6362C61.5003 26.9649 63.1611 24.8548 63.358 21.9345C63.5322 19.3398 62.3433 17.5401 59.683 16.4094C59.2211 16.2125 58.7441 16.0408 58.2569 15.9146C57.8253 15.8036 57.6335 15.6017 57.6411 15.1372C57.6663 13.6859 57.6512 12.2296 57.6512 10.6293Z" fill="#6145DF"/>
<path d="M57.6739 22.1997C57.6739 21.7403 57.6638 21.2809 57.6765 20.8215C57.6865 20.501 57.4821 20.0492 57.7951 19.8927C58.1888 19.6958 58.6103 19.981 58.9359 20.2385C59.6932 20.8367 59.9355 21.657 59.8143 22.5884C59.6906 23.5424 59.1126 24.1709 58.2772 24.5823C57.896 24.7691 57.631 24.7186 57.6386 24.2063C57.6462 23.5374 57.6411 22.8685 57.6411 22.1997C57.6512 22.1997 57.6613 22.1997 57.6739 22.1997Z" fill="#6145DF"/>
<path d="M55.5583 10.5713C55.5583 11.9065 55.5482 13.0777 55.5634 14.2488C55.571 14.9606 55.2807 14.9252 54.8138 14.5971C53.3498 13.5724 53.6325 11.5885 55.5583 10.5713Z" fill="#6145DF"/>
</g>
<defs>
<filter id="filter0_d_1_2401" x="0.548204" y="0" width="75.6136" height="42.865" filterUnits="userSpaceOnUse" color-interpolation-filters="sRGB">
<feFlood flood-opacity="0" result="BackgroundImageFix"/>
<feColorMatrix in="SourceAlpha" type="matrix" values="0 0 0 0 0 0 0 0 0 0 0 0 0 0 0 0 0 0 127 0" result="hardAlpha"/>
<feOffset dy="3.4518"/>
<feGaussianBlur stdDeviation="1.7259"/>
<feComposite in2="hardAlpha" operator="out"/>
<feColorMatrix type="matrix" values="0 0 0 0 0.380392 0 0 0 0 0.270588 0 0 0 0 0.87451 0 0 0 0.25 0"/>
<feBlend mode="normal" in2="BackgroundImageFix" result="effect1_dropShadow_1_2401"/>
<feBlend mode="normal" in="SourceGraphic" in2="effect1_dropShadow_1_2401" result="shape"/>
</filter>
</defs>
</svg>
