<svg width="43" height="54" viewBox="0 0 43 54" fill="none" xmlns="http://www.w3.org/2000/svg">
<path d="M20.3028 53.7564C17.0068 53.6044 14.4304 52.1998 12.6871 49.3463C12.4216 48.9134 12.3985 48.6902 12.9661 48.4208C15.0153 47.4491 15.9428 45.7924 15.6657 43.5181C15.5714 42.7504 16.1294 43.1698 16.3468 43.1679C18.7597 43.1506 20.6569 41.5824 21.0744 39.2138C21.1956 38.5308 22.1558 37.5437 22.8311 37.3801C24.5128 36.9722 25.7289 35.9794 26.233 34.3188C26.7525 32.6063 26.4504 30.9978 25.1112 29.7202C19.106 23.9959 13.0931 18.2793 7.06674 12.5761C6.03155 11.5968 5.28499 10.5231 5.66597 9.03382C6.29901 6.55554 9.1448 5.73394 11.0535 7.49452C13.4318 9.68803 15.7638 11.9335 18.1151 14.1559C20.4895 16.4013 22.86 18.6487 25.2325 20.8942C25.9579 21.5811 26.7467 22.1795 27.6723 22.572C29.5406 23.3647 30.9183 23.0684 32.2055 21.4906C33.5639 19.8224 34.4702 17.856 35.6266 16.055C37.241 13.544 40.9083 13.6036 42.3187 16.1916C43.0268 17.4923 43.0018 18.8392 42.2322 20.1245C40.1464 23.613 38.078 27.113 35.9249 30.561C35.3919 31.4134 35.4207 32.058 35.8498 32.9161C36.7638 34.7421 37.824 36.5123 38.305 38.5269C39.1882 42.2289 37.4276 46.362 34.0565 48.0995C30.645 49.8562 27.1604 51.4744 23.6816 53.0926C22.6368 53.5755 21.4939 53.8237 20.3028 53.7564Z" fill="url(#paint0_linear_1_2407)"/>
<path d="M7.21878 26.5743C8.06732 26.5147 8.80427 26.8745 9.42961 27.4613C12.5101 30.3494 15.5868 33.2414 18.6481 36.1488C20.0681 37.4976 20.1528 39.4121 18.904 40.7782C17.6861 42.1097 15.683 42.1655 14.2746 40.8514C11.1652 37.9517 8.07117 35.0328 4.98679 32.1062C3.97085 31.1422 3.71109 29.7472 4.23638 28.4965C4.74435 27.2901 5.84111 26.5743 7.21878 26.5743Z" fill="url(#paint1_linear_1_2407)"/>
<path d="M9.39146 24.4076C9.44149 22.6874 10.0803 21.7273 11.2963 21.1674C12.6125 20.5613 13.817 20.8441 14.8368 21.7966C17.621 24.3961 20.3744 27.0264 23.1394 29.647C23.4646 29.9549 23.7917 30.2627 24.1053 30.5821C25.4426 31.9444 25.5003 33.8358 24.2477 35.1385C22.997 36.4411 20.992 36.4738 19.5913 35.1654C17.2304 32.9565 14.8964 30.7207 12.5509 28.4964C11.8774 27.8576 11.2001 27.2226 10.5228 26.5857C9.79168 25.895 9.34913 25.0772 9.39146 24.4076Z" fill="url(#paint2_linear_1_2407)"/>
<path d="M11.0307 47.4474C10.2322 47.4955 9.50876 47.1107 8.88534 46.5219C6.28007 44.0648 3.67094 41.6096 1.09068 39.1275C-0.310083 37.7806 -0.356262 35.8276 0.92136 34.4961C2.18359 33.1819 4.12696 33.1723 5.55274 34.5076C8.14262 36.934 10.7229 39.3719 13.2954 41.8174C14.3787 42.8468 14.6654 44.0975 14.1555 45.4983C13.7207 46.6912 12.4989 47.4513 11.0307 47.4474Z" fill="url(#paint3_linear_1_2407)"/>
<path d="M26.1525 5.89193C26.1563 6.62887 25.6484 7.31194 24.9576 7.31386C24.1937 7.31771 23.6703 6.90402 23.5741 6.12283C23.3817 4.56813 23.2143 3.00958 23.0758 1.44911C23.0065 0.68331 23.3394 0.117615 24.1533 0.0156362C24.9903 -0.0882669 25.5194 0.329269 25.6253 1.16049C25.8215 2.71519 25.9735 4.27566 26.1525 5.89193Z" fill="url(#paint4_linear_1_2407)"/>
<path d="M29.1885 8.18565C28.2861 8.1818 27.6858 7.43331 28.0263 6.54821C28.6324 4.97427 29.3116 3.42535 30.0524 1.91106C30.3353 1.33382 30.9491 1.09715 31.6187 1.38577C32.2729 1.66669 32.5596 2.22277 32.3479 2.86543C31.8015 4.53172 31.0164 6.10374 30.2583 7.68153C30.0582 8.09521 29.6195 8.16833 29.1885 8.18565Z" fill="url(#paint5_linear_1_2407)"/>
<path d="M21.9119 7.40251C21.883 7.96436 21.6232 8.37419 21.0922 8.582C20.5169 8.80712 19.98 8.67244 19.6241 8.20295C18.6389 6.90801 17.6768 5.59575 16.7552 4.25271C16.3126 3.60812 16.4319 2.92891 17.0958 2.49405C17.6884 2.1073 18.3561 2.14194 18.814 2.73457C19.7876 3.99872 20.717 5.29751 21.6502 6.59245C21.8176 6.82335 21.9292 7.0985 21.9119 7.40251Z" fill="url(#paint6_linear_1_2407)"/>
<path d="M32.5463 11.2081C31.9825 11.1543 31.5919 10.9349 31.3591 10.452C31.0993 9.91705 31.1898 9.38022 31.6073 9.05119C32.9869 7.96598 34.3915 6.90386 35.8481 5.9264C36.358 5.58391 36.9737 5.79172 37.3797 6.31893C37.7818 6.84422 37.8434 7.4811 37.3624 7.89094C35.9828 9.07428 34.5166 10.1556 32.96 11.1042C32.831 11.1812 32.656 11.1812 32.5463 11.2081Z" fill="url(#paint7_linear_1_2407)"/>
<defs>
<linearGradient id="paint0_linear_1_2407" x1="8.81927" y1="15.3964" x2="55.5003" y2="55.8994" gradientUnits="userSpaceOnUse">
<stop stop-color="#EA1F25"/>
<stop offset="1" stop-color="#EA1F25" stop-opacity="0"/>
</linearGradient>
<linearGradient id="paint1_linear_1_2407" x1="5.35228" y1="29.4221" x2="20.4418" y2="46.6297" gradientUnits="userSpaceOnUse">
<stop stop-color="#EA1F25"/>
<stop offset="1" stop-color="#EA1F25" stop-opacity="0"/>
</linearGradient>
<linearGradient id="paint2_linear_1_2407" x1="10.765" y1="23.7105" x2="25.909" y2="40.878" gradientUnits="userSpaceOnUse">
<stop stop-color="#EA1F25"/>
<stop offset="1" stop-color="#EA1F25" stop-opacity="0"/>
</linearGradient>
<linearGradient id="paint3_linear_1_2407" x1="1.25756" y1="36.1197" x2="15.0712" y2="51.8026" gradientUnits="userSpaceOnUse">
<stop stop-color="#EA1F25"/>
<stop offset="1" stop-color="#EA1F25" stop-opacity="0"/>
</linearGradient>
<linearGradient id="paint4_linear_1_2407" x1="23.3364" y1="1.36982" x2="28.9122" y2="3.9557" gradientUnits="userSpaceOnUse">
<stop stop-color="#EA1F25"/>
<stop offset="1" stop-color="#EA1F25" stop-opacity="0"/>
</linearGradient>
<linearGradient id="paint5_linear_1_2407" x1="28.3215" y1="2.5593" x2="34.8564" y2="7.2152" gradientUnits="userSpaceOnUse">
<stop stop-color="#EA1F25"/>
<stop offset="1" stop-color="#EA1F25" stop-opacity="0"/>
</linearGradient>
<linearGradient id="paint6_linear_1_2407" x1="16.9661" y1="3.44752" x2="23.3863" y2="9.38041" gradientUnits="userSpaceOnUse">
<stop stop-color="#EA1F25"/>
<stop offset="1" stop-color="#EA1F25" stop-opacity="0"/>
</linearGradient>
<linearGradient id="paint7_linear_1_2407" x1="31.7801" y1="6.7794" x2="37.0308" y2="13.6527" gradientUnits="userSpaceOnUse">
<stop stop-color="#EA1F25"/>
<stop offset="1" stop-color="#EA1F25" stop-opacity="0"/>
</linearGradient>
</defs>
</svg>
