<svg width="57" height="57" viewBox="0 0 57 57" fill="none" xmlns="http://www.w3.org/2000/svg">
<path fill-rule="evenodd" clip-rule="evenodd" d="M57.0023 28.5209C56.9968 12.8161 44.2161 0.00110679 28.5578 7.21769e-08C12.8331 -0.00110593 0.0822586 12.7088 0.000387808 28.3339C-0.0803766 43.8938 12.4636 56.9444 28.4604 56.992C44.1509 57.0396 57.0079 44.2113 57.0023 28.5209ZM55.6747 28.1945C55.8152 43.3638 43.715 55.5947 28.5478 55.6987C13.4991 55.6411 1.46853 43.6958 1.31253 28.803C1.15322 13.6403 13.2026 1.57214 27.9969 1.321C43.3775 1.061 55.5375 13.3361 55.6747 28.1945ZM48.707 33.0111V33.0111V33.011V33.011V33.0109V33.0108V33.0108C48.721 31.7086 48.7351 30.4012 48.6079 29.067L48.5676 29.0858C47.7862 29.4502 47.0591 29.7892 47.0623 30.8062C47.0695 32.4054 47.0717 34.0046 47.0739 35.6038V35.6074C47.0754 36.7154 47.0769 37.8234 47.08 38.9313C47.0804 39.0463 47.0917 39.1625 47.1028 39.2785V39.2785C47.122 39.4774 47.1411 39.6753 47.1055 39.864C46.9619 40.615 46.416 41.0613 45.8776 41.5015L45.8775 41.5016C45.7354 41.6178 45.5938 41.7335 45.4603 41.8544C45.2048 42.0856 45.0775 41.8012 45.0786 41.5092C45.0831 40.4039 45.0808 39.2987 45.0631 38.1934C45.0554 37.7442 45.1727 37.4001 45.5378 37.0893C46.2967 36.442 46.4417 35.3633 45.8907 34.663C45.3973 34.0357 44.739 33.7458 43.9413 33.9262C43.0883 34.1187 42.565 34.7017 42.3492 35.5171C42.1523 36.2617 42.5805 36.8005 43.1359 37.2087C43.4479 37.4378 43.5364 37.7022 43.5375 38.0507C43.539 38.442 43.5396 38.8334 43.5401 39.2249V39.2253C43.5418 40.4914 43.5434 41.7577 43.5806 43.0227C43.5972 43.5913 43.397 44.025 43.0418 44.4078C42.8142 44.6525 42.5648 44.8772 42.3155 45.1018C42.2085 45.1982 42.1016 45.2945 41.9963 45.3925C41.9012 45.4821 41.7994 45.5706 41.6555 45.5076C41.5169 45.4465 41.5176 45.3206 41.5183 45.1996L41.5184 45.1745C41.5167 44.6032 41.5138 44.0318 41.5109 43.4604C41.5041 42.0979 41.4972 40.7353 41.5073 39.3728C41.5105 38.9274 41.5189 38.4816 41.5273 38.0357L41.5273 38.0353C41.5512 36.7669 41.5751 35.4979 41.4785 34.2348C41.4055 33.2823 41.6644 32.5322 42.3382 31.9082C43.3991 30.9251 44.4057 29.8881 45.4122 28.8512L45.4123 28.8511L45.4123 28.8511L45.4124 28.851L45.4124 28.851L45.4125 28.851L45.4125 28.8509C46.2795 27.9577 47.1465 27.0645 48.0481 26.206C48.5139 25.7623 48.7009 25.26 48.6953 24.636C48.6879 23.7708 48.6855 22.9056 48.6832 22.0403C48.6799 20.8422 48.6766 19.6441 48.6599 18.446L48.6585 18.3549L48.6572 18.2845C48.6432 17.5258 48.6296 16.7864 49.3569 16.2708C49.3884 16.2485 49.4094 16.21 49.43 16.1721C49.4369 16.1593 49.4437 16.1467 49.451 16.1348C49.9699 15.2818 49.7818 14.1876 49.0173 13.6023C48.2827 13.0392 47.132 13.1697 46.4594 13.8933C45.7801 14.6257 45.7701 15.6004 46.528 16.3638C47.0468 16.886 47.1973 17.4646 47.1531 18.1616C47.028 20.1298 47.0291 22.1003 47.1011 24.0718C47.1199 24.604 46.9937 25.0874 46.5955 25.4802C46.0428 26.0256 45.4954 26.5752 44.9477 27.125C44.7422 27.3313 44.5366 27.5376 44.3307 27.7438C43.9624 28.1128 43.5942 28.482 43.226 28.8512L43.2259 28.8514C42.2681 29.8118 41.3103 30.7724 40.3489 31.7289C40.0823 31.9934 40.0082 32.3031 39.9695 32.6682C39.7965 34.3154 39.835 35.9645 39.8735 37.6129C39.8921 38.4115 39.9107 39.2099 39.9053 40.0078C39.8939 41.7142 39.9155 43.4212 39.937 45.1286C39.9532 46.4047 39.9693 47.6809 39.9717 48.9572C39.9719 48.9866 39.9683 49.0179 39.9646 49.0495L39.9646 49.0496C39.9529 49.1491 39.9409 49.252 40.0491 49.309C40.1963 49.3864 40.2872 49.2859 40.3725 49.1915C40.3872 49.1752 40.4018 49.1591 40.4164 49.1442C40.7128 48.8434 40.999 48.5333 41.2852 48.2232L41.2853 48.2231C41.7233 47.7485 42.1613 47.274 42.6358 46.833C43.523 46.0085 44.3712 45.1447 45.2193 44.2809C46.1638 43.3189 47.1082 42.357 48.1067 41.4494C48.5006 41.0921 48.7329 40.6506 48.7097 40.0864C48.6457 38.511 48.6648 36.935 48.6838 35.3589C48.6901 34.8374 48.6965 34.316 48.6998 33.7945C48.7014 33.5365 48.7042 33.2784 48.707 33.0201L48.707 33.0187L48.707 33.0172L48.707 33.0157L48.707 33.0142L48.707 33.0126L48.707 33.0111ZM47.9164 16.22C47.2947 16.2299 46.8057 15.7398 46.8079 15.1092C46.8112 14.4896 47.1962 14.1411 47.8799 14.1422C48.5294 14.1433 48.9841 14.5394 48.9863 15.107C48.9885 15.6867 48.484 16.2111 47.9164 16.22ZM44.2887 36.8149C43.7023 36.8226 43.2974 36.3414 43.2907 35.6289C43.2863 35.152 43.7897 34.7084 44.3274 34.7172C44.8728 34.725 45.3818 35.2029 45.3862 35.7096C45.3906 36.2285 44.8153 36.8082 44.2887 36.8149ZM15.4788 47.6777L15.4771 47.6761C14.4023 46.6909 13.3318 45.7096 12.275 44.7133C11.3961 43.8839 10.535 43.0349 9.6739 42.1858C9.34273 41.8593 9.01156 41.5327 8.67936 41.2073C8.4603 40.9927 8.3386 40.7304 8.33971 40.4196L8.34227 38.4206C8.34622 35.4204 8.35017 32.4201 8.34745 29.419C8.34745 29.1247 8.42932 29.0805 8.69374 29.1668C9.48037 29.4256 9.89525 29.9467 9.89857 30.8152C9.90853 33.7073 9.91295 36.6004 9.88751 39.4924C9.88308 40.0113 9.98597 40.4129 10.3887 40.7559C10.607 40.9418 10.8037 41.1525 11.0006 41.3634L11.0006 41.3634C11.106 41.4764 11.2114 41.5893 11.3202 41.6985C11.4375 41.8158 11.5703 41.9397 11.755 41.8667C11.919 41.8019 11.9189 41.6288 11.9188 41.4951L11.9188 41.485C11.9182 40.8106 11.9131 40.1363 11.908 39.4619C11.9037 38.8839 11.8993 38.3058 11.8978 37.7278C11.8969 37.485 11.7462 37.3569 11.5959 37.2291C11.5538 37.1933 11.5117 37.1576 11.4729 37.1193C10.9784 36.6325 10.59 36.087 10.8334 35.3602C11.0868 34.6045 11.6035 34.0713 12.4056 33.8754C13.0417 33.7205 14.0397 34.2505 14.4358 34.9375C14.8175 35.6003 14.7367 36.2497 14.1182 36.8283C13.6182 37.2963 13.4411 37.8539 13.4434 38.5078C13.4467 40.0733 13.45 41.6399 13.4334 43.2054C13.429 43.576 13.5208 43.8526 13.7675 44.148C13.9614 44.3803 14.1806 44.5836 14.3995 44.7865C14.5841 44.9576 14.7684 45.1285 14.9369 45.3163C15.0476 45.4391 15.1958 45.5586 15.3717 45.4911C15.5344 45.429 15.5272 45.2823 15.5204 45.1433C15.519 45.1141 15.5176 45.0851 15.5178 45.0574C15.52 42.9315 15.5212 40.8055 15.5225 38.6792L15.5244 35.494C15.5244 35.3156 15.5239 35.1372 15.5233 34.9586V34.9585C15.5218 34.4739 15.5202 33.9891 15.53 33.5048C15.5399 33.0169 15.3983 32.6086 15.0387 32.2679C14.0604 31.3373 13.1187 30.3697 12.177 29.4022L12.1769 29.4021L12.1769 29.4021L12.1769 29.4021L12.1769 29.4021L12.1769 29.4021C11.0889 28.2842 10.0009 27.1664 8.85638 26.1055C8.47579 25.7525 8.3386 25.3255 8.34081 24.821C8.34423 23.9524 8.34485 23.0838 8.34546 22.2152C8.34643 20.8358 8.3474 19.4565 8.35962 18.0777C8.36515 17.3663 8.20916 16.7567 7.70576 16.2146C7.12492 15.5895 7.09173 14.8571 7.51436 14.1855C7.95027 13.4918 8.75459 13.1256 9.49696 13.2838C10.3411 13.4631 11.0094 14.0981 11.0614 14.856C11.1134 15.6017 10.7505 16.2102 10.236 16.7102C9.97491 16.9647 9.89083 17.2236 9.8864 17.5776C9.87633 18.3394 9.88505 19.1011 9.89377 19.8627V19.8627V19.8628V19.8629V19.8629V19.863C9.90803 21.1088 9.92229 22.3545 9.85432 23.6006C9.79125 24.7579 10.3754 25.6662 11.2351 26.3621C12.4443 27.3413 13.4976 28.4709 14.5442 29.6071C14.8568 29.9459 15.1937 30.2596 15.5307 30.5732C15.9604 30.9732 16.3901 31.3732 16.7691 31.8253C16.9704 32.0654 17.0899 32.2867 17.0877 32.6075C17.0819 33.3999 17.0743 34.1923 17.0667 34.9847C17.0424 37.5257 17.018 40.0666 17.0534 42.6068C17.0678 43.6481 17.0493 44.688 17.0308 45.7278C17.0152 46.6025 16.9996 47.4771 17.0036 48.3522C17.0031 48.3952 17.0056 48.4387 17.008 48.483C17.0167 48.6394 17.026 48.8054 16.9096 48.9916C16.4324 48.5518 15.9552 48.1144 15.4788 47.6777ZM10.2227 15.1115C10.2238 14.5838 9.747 14.1424 9.16837 14.1357C8.59085 14.1291 8.06644 14.6104 8.06644 15.1447C8.06754 15.6813 8.6174 16.2179 9.18054 16.2323C9.75253 16.2467 10.2227 15.7399 10.2227 15.1115ZM12.6667 34.7163C12.1644 34.6986 11.661 35.1721 11.6544 35.6688C11.6455 36.3105 12.0814 36.7852 12.7109 36.8217C13.2553 36.8526 13.7576 36.3327 13.7686 35.7242C13.7775 35.2307 13.2376 34.7362 12.6667 34.7163ZM40.8874 28.3106C41.6087 27.5173 41.7183 26.6543 41.3753 25.6166C40.9304 26.0614 40.4892 26.5014 40.0509 26.9384L40.0504 26.9389C39.074 27.9125 38.1122 28.8715 37.1578 29.8373C36.6247 30.377 36.0986 30.9243 35.5724 31.4716L35.5724 31.4717L35.5723 31.4717L35.5723 31.4718L35.5722 31.4718C34.582 32.5019 33.5917 33.5321 32.5543 34.5117C31.4025 35.5993 30.2829 36.7167 29.1666 37.8397C28.5902 38.4183 28.4087 38.4371 27.8168 37.8463C26.1097 36.1425 24.4026 34.4376 22.6966 32.7327C22.3057 32.3421 21.9147 31.9516 21.5237 31.5612C20.3509 30.39 19.178 29.2188 18.0089 28.0439C17.2909 27.3237 16.7986 26.526 17.0763 25.4318C17.1935 24.9693 17.0862 24.5146 16.7488 24.144C16.3936 23.7546 16.0053 23.4027 15.5163 23.0421C15.5163 23.3948 15.5218 23.7405 15.5272 24.081V24.081C15.5393 24.8437 15.551 25.5805 15.4997 26.3125C15.4333 27.2496 15.7221 27.9034 16.397 28.5894C17.864 30.0804 19.3554 31.5472 20.8468 33.0139C23.2685 35.3956 25.6901 37.7772 28.0071 40.2626C28.4054 40.6896 28.63 40.704 29.0051 40.2482C29.7325 39.363 30.5586 38.5775 31.3847 37.792L31.3849 37.7918C31.7586 37.4365 32.1322 37.0812 32.4967 36.7167C33.1229 36.09 33.7531 35.467 34.3833 34.844L34.3839 34.8433C35.1285 34.1072 35.8732 33.371 36.6113 32.6287C37.0615 32.176 37.5173 31.7287 37.9731 31.2814L37.9731 31.2813L37.9732 31.2813L37.9732 31.2812L37.9733 31.2812C38.9632 30.3095 39.9533 29.3378 40.8874 28.3106ZM15.6099 18.2655C16.3688 18.8054 16.9696 19.4549 17.5648 20.101C18.1427 20.7285 18.7545 21.3215 19.3665 21.9147L19.3665 21.9148L19.3665 21.9148L19.3666 21.9148C19.9555 22.4857 20.5447 23.0568 21.104 23.659C21.6905 24.2905 22.3105 24.8908 22.9307 25.4913C23.6047 26.1438 24.279 26.7967 24.911 27.4904C25.3967 28.0232 25.9266 28.5103 26.4567 28.9976C26.9965 29.4939 27.5364 29.9902 28.0299 30.5351C28.4149 30.9599 28.6362 30.909 29.0864 30.462C33.0107 26.571 36.9372 22.6821 40.8637 18.7932C40.9776 18.6801 41.0965 18.5725 41.2299 18.452L41.2302 18.4517C41.2936 18.3943 41.3603 18.3341 41.4312 18.2688C41.5267 18.5812 41.5158 18.8727 41.5053 19.1547V19.1547V19.1547V19.1548C41.5011 19.2683 41.497 19.3802 41.4998 19.4914L41.5062 19.7532C41.5286 20.6598 41.5511 21.5677 41.4401 22.4719C41.3914 22.868 40.4875 23.8914 40.1412 23.9478C39.9465 23.9799 39.9448 23.828 39.9437 23.7252L39.9435 23.709L39.9432 23.6955C39.9355 23.468 39.9432 23.24 39.9508 23.0118V23.0118V23.0117V23.0116C39.9543 22.9092 39.9577 22.8067 39.9598 22.7042L39.9607 22.6625C39.9651 22.49 39.9698 22.3057 39.7805 22.2208C39.588 22.1334 39.4232 22.2396 39.2882 22.3768C39.0996 22.5681 38.9119 22.7605 38.7241 22.953L38.7237 22.9534L38.7233 22.9538L38.7224 22.9547L38.7223 22.9548L38.7221 22.955L38.722 22.9551C38.4479 23.2361 38.1737 23.5171 37.8964 23.7951C36.9262 24.7672 35.9553 25.7388 34.9845 26.7103C33.6903 28.0054 32.3961 29.3005 31.1033 30.597C30.7677 30.9333 30.4367 31.2743 30.1057 31.6152L30.1055 31.6155C29.7951 31.9352 29.4848 32.2549 29.1705 32.5708C28.6472 33.0963 28.4625 33.0919 27.9425 32.5663C26.927 31.5421 25.9137 30.5157 24.9004 29.4893L24.8993 29.4882L24.8982 29.4871L24.8971 29.4859L24.897 29.4859L24.897 29.4858L24.8969 29.4857C22.0939 26.6464 19.2911 23.8074 16.4429 21.0137C15.611 20.195 15.3465 19.3918 15.6099 18.2655ZM36.7842 40.6607C37.9083 40.6519 38.6949 39.8276 38.6839 38.7025C38.6739 37.761 37.7058 36.8725 36.7367 36.9157C35.6558 36.9611 34.7474 37.9767 34.9145 39.0432C34.9853 39.4946 34.8492 39.7745 34.5593 40.0655C32.6984 41.9297 30.8387 43.795 28.991 45.6725C28.6403 46.0288 28.3715 46.0177 28.0241 45.6659C26.1499 43.7674 24.2691 41.8744 22.3706 40.0002C22.084 39.717 22.0187 39.4493 22.0752 39.0753C22.2278 38.0619 21.5939 37.1502 20.617 36.9312C19.7828 36.7442 18.6908 37.418 18.4031 38.2986C18.0403 39.4094 18.9231 40.6862 20.0726 40.6607C20.7166 40.6474 21.2642 40.8731 21.6348 41.3389C21.9758 41.7669 22.3678 42.1398 22.7589 42.5119L22.759 42.5119L22.759 42.5119C23.0189 42.7592 23.2785 43.006 23.5223 43.2684C24.1826 43.9785 24.8809 44.6505 25.5792 45.3224C26.4334 46.1445 27.2875 46.9664 28.0716 47.8576C28.3814 48.2094 28.6447 48.1718 28.9412 47.8476C30.065 46.6198 31.2561 45.4589 32.4472 44.2982L32.4473 44.2981C33.4841 43.2876 34.5208 42.2772 35.513 41.2228C35.8549 40.8599 36.2676 40.664 36.7842 40.6607ZM20.2607 37.7432C20.8028 37.7355 21.2775 38.1958 21.2863 38.7412C21.2952 39.2977 20.8205 39.8741 20.3315 39.8995C19.7684 39.9294 19.1356 39.3353 19.1367 38.7777C19.1367 38.2035 19.6279 37.7521 20.2607 37.7432ZM35.7476 38.7832C35.7675 38.1471 36.2167 37.709 36.8373 37.7189C37.4071 37.7278 37.8862 38.2256 37.8707 38.7921C37.8541 39.3309 37.2644 39.915 36.7599 39.894C36.2576 39.873 35.731 39.2955 35.7476 38.7832ZM11.9329 18.2681L11.9327 16.7203C11.9324 15.6885 11.9322 14.6566 11.9329 13.6247C11.9329 13.2275 11.8743 12.8824 11.5047 12.6168C10.5599 11.9364 10.665 10.6763 11.1474 10.06C11.7869 9.24242 13.1466 9.07315 13.921 9.69714C14.7619 10.3742 14.9831 11.5746 14.1888 12.317C13.4525 13.0049 13.4636 13.7492 13.476 14.5774L13.476 14.5776C13.4769 14.6405 13.4779 14.7038 13.4785 14.7676C13.4929 16.2557 13.4801 17.7442 13.4672 19.2329C13.4604 20.0287 13.4535 20.8246 13.4508 21.6204C13.4483 22.262 13.4524 22.9036 13.4565 23.5455C13.4595 24.0093 13.4625 24.4732 13.463 24.9373C13.463 24.9647 13.4646 24.9935 13.4663 25.0227L13.4663 25.0228C13.4742 25.1619 13.4826 25.3108 13.3181 25.3721C13.195 25.4187 13.1199 25.335 13.046 25.2527L13.046 25.2527C13.0182 25.2217 12.9906 25.191 12.9607 25.1674C12.2106 24.5788 11.8875 23.79 11.8853 22.8551C11.8837 21.7091 11.8839 20.5631 11.8841 19.4171V19.4154L11.8842 18.2681H11.9329ZM13.7639 11.1332C13.7562 10.5269 13.3247 10.133 12.6852 10.1485C12.1132 10.1618 11.6607 10.6165 11.6751 11.1642C11.6895 11.7284 12.236 12.3082 12.7494 12.3048C13.2838 12.3026 13.7717 11.7384 13.7639 11.1332ZM43.5255 17.7208C43.5264 18.2146 43.5273 18.7083 43.5273 19.202H43.5671V24.8898C43.5674 24.9243 43.5671 24.959 43.5669 24.9937C43.5662 25.0881 43.5654 25.1829 43.576 25.2759C43.5892 25.3954 43.6357 25.485 43.7906 25.4219C44.3416 25.1962 45.0828 24.0722 45.0817 23.4427C45.081 22.7724 45.0807 22.1021 45.0804 21.4318C45.0793 18.918 45.0781 16.4042 45.0563 13.8903C45.0518 13.3228 45.1581 12.9068 45.6305 12.5196C46.2921 11.9774 46.3861 10.7936 45.9281 10.1486C45.3871 9.38744 44.3593 9.08872 43.5339 9.4505C42.2273 10.0247 41.9839 11.5404 43.0615 12.5749C43.3967 12.8957 43.5417 13.2199 43.5361 13.6812C43.5207 15.0275 43.5231 16.3743 43.5255 17.7208ZM44.3095 12.2983C43.743 12.2817 43.264 11.7562 43.2728 11.1609C43.2828 10.5425 43.732 10.132 44.3847 10.1486C44.9622 10.163 45.3904 10.6078 45.3705 11.1709C45.3483 11.775 44.8416 12.3138 44.3095 12.2983Z" fill="url(#paint0_linear_1_2459)"/>
<defs>
<linearGradient id="paint0_linear_1_2459" x1="44.2975" y1="9.2976" x2="43.2034" y2="52.9394" gradientUnits="userSpaceOnUse">
<stop stop-color="#BF26DD"/>
<stop offset="0.484375" stop-color="#5144F4"/>
<stop offset="1" stop-color="#14CEE1"/>
</linearGradient>
</defs>
</svg>
