<svg width="26" height="25" viewBox="0 0 26 25" fill="none" xmlns="http://www.w3.org/2000/svg">
<path d="M25 12.5C25 18.964 19.5946 24.2424 12.8788 24.2424C6.16295 24.2424 0.757576 18.964 0.757576 12.5C0.757576 6.036 6.16295 0.757576 12.8788 0.757576C19.5946 0.757576 25 6.036 25 12.5Z" stroke="#828284" stroke-width="1.51515"/>
<g clip-path="url(#clip0_1014_721)">
<path d="M12.519 15.9761C11.2871 15.9761 10.0551 15.9761 8.82322 15.9761C8.795 15.9761 8.7666 15.9778 8.73857 15.9752C8.63097 15.9645 8.54839 15.9158 8.50381 15.8134C8.46092 15.715 8.4914 15.631 8.55592 15.5535C8.82077 15.2357 9.08488 14.9175 9.35011 14.5999C9.58863 14.3144 9.70488 13.9859 9.70413 13.6139C9.70281 12.8646 9.70864 12.1154 9.70263 11.3664C9.69378 10.2697 10.2226 9.5086 11.1629 9.00202C11.4041 8.87204 11.6642 8.78889 11.9334 8.73999C12.0015 8.72757 12.0124 8.69992 12.0094 8.64198C12.0043 8.54811 12.0056 8.45368 12.0352 8.36302C12.1129 8.12525 12.3487 7.97288 12.5882 8.00467C12.8508 8.03947 13.0293 8.23943 13.0485 8.51764C13.0532 8.58555 13.0186 8.67264 13.0662 8.71591C13.1106 8.75635 13.1949 8.75221 13.2611 8.76952C14.1205 8.99468 14.7723 9.47944 15.1523 10.2964C15.29 10.5925 15.3536 10.9074 15.3532 11.2349C15.3525 12.0279 15.3543 12.821 15.3528 13.6141C15.3523 13.9863 15.4681 14.3142 15.7074 14.5997C15.967 14.9097 16.2226 15.2228 16.483 15.532C16.5573 15.62 16.6039 15.7107 16.5492 15.8223C16.4935 15.9357 16.3946 15.9767 16.2708 15.9765C15.2584 15.9756 14.2458 15.9761 13.2334 15.9761C12.9955 15.9761 12.7573 15.9761 12.519 15.9761Z" fill="#828284"/>
<path d="M12.534 16.441C12.9353 16.441 13.3365 16.4427 13.7379 16.4395C13.8158 16.4389 13.8316 16.4568 13.815 16.5356C13.683 17.1595 13.1529 17.5941 12.519 17.5922C11.8969 17.5903 11.3662 17.1462 11.2396 16.5256C11.2252 16.4549 11.2443 16.4393 11.3115 16.4397C11.7189 16.4421 12.1264 16.441 12.534 16.441Z" fill="#828284"/>
<path d="M8 11.1665C8.04665 9.99139 8.50319 9.00401 9.36134 8.20116C9.47853 8.09149 9.60814 8.08905 9.70313 8.1878C9.79719 8.28543 9.78628 8.42614 9.66965 8.53505C9.08482 9.08113 8.69845 9.74045 8.53197 10.5252C8.4857 10.7433 8.46181 10.9641 8.46011 11.1872C8.45974 11.2276 8.4571 11.269 8.44789 11.3081C8.42437 11.4075 8.33841 11.4756 8.23833 11.4791C8.13393 11.4829 8.04308 11.4171 8.01185 11.3164C7.9968 11.2671 8.00132 11.2171 8 11.1665Z" fill="#828284"/>
<path d="M17.0558 11.1705C17.0594 11.3673 16.9815 11.4757 16.8346 11.4794C16.6841 11.4832 16.6013 11.3754 16.5961 11.1754C16.5682 10.1316 16.1504 9.26481 15.401 8.54925C15.3527 8.50298 15.3066 8.45764 15.2949 8.38842C15.278 8.28816 15.3205 8.19579 15.4048 8.14896C15.5015 8.09516 15.5903 8.10588 15.6796 8.18695C16.0427 8.51577 16.3406 8.89556 16.5712 9.32802C16.8786 9.90401 17.0391 10.5184 17.0558 11.1705Z" fill="#828284"/>
<path d="M8.78467 11.1413C8.82436 10.2671 9.15863 9.52185 9.76547 8.89583C9.80911 8.85087 9.85312 8.80591 9.90015 8.76453C10.0264 8.65355 10.1928 8.6575 10.2957 8.77149C10.4033 8.89056 10.3919 9.05553 10.266 9.17272C9.82792 9.58092 9.52995 10.0711 9.39696 10.6577C9.3552 10.8414 9.33225 11.0277 9.33056 11.2163C9.32887 11.4041 9.21807 11.5263 9.05254 11.5246C8.89039 11.5229 8.78429 11.4012 8.78467 11.2167C8.78467 11.1915 8.78467 11.1665 8.78467 11.1413Z" fill="#828284"/>
<path d="M16.2284 11.1794C16.2359 11.2699 16.2254 11.3498 16.1615 11.4117C16.0984 11.4727 16.0224 11.4975 15.937 11.4699C15.8545 11.4431 15.7913 11.3899 15.7809 11.2996C15.7662 11.1725 15.7657 11.0436 15.7501 10.9166C15.6643 10.2201 15.3494 9.6405 14.8439 9.16026C14.7777 9.09725 14.7224 9.03122 14.7343 8.93397C14.7452 8.84274 14.795 8.77521 14.8823 8.74473C14.9719 8.71351 15.0533 8.73213 15.1252 8.79797C15.3738 9.02614 15.5872 9.2831 15.76 9.5726C16.0569 10.0694 16.2137 10.6072 16.2284 11.1794Z" fill="#828284"/>
</g>
<defs>
<clipPath id="clip0_1014_721">
<rect width="9.05591" height="9.59221" fill="white" transform="translate(8 8)"/>
</clipPath>
</defs>
</svg>
