<svg width="115" height="31" viewBox="0 0 115 31" fill="none" xmlns="http://www.w3.org/2000/svg">
<path d="M105.359 13.2872C104.165 10.7992 103.008 8.62211 102.075 6.37043C101.602 5.22593 101.49 3.79531 102.846 3.11109C104.165 2.43932 105.384 3.18574 106.019 4.29292C108.681 8.958 111.256 13.6728 113.757 18.4374C114.69 20.2164 113.868 21.7714 112.239 22.6174C107.275 25.18 102.274 27.6556 97.2235 30.0566C95.9297 30.6786 94.2129 31.0518 93.3794 29.4346C92.5211 27.7552 93.9517 26.8346 95.2082 26.0384C95.5565 25.8145 95.9421 25.6279 96.2531 25.3791C98.6914 23.4135 104.003 23.7992 103.655 20.204C103.381 17.3676 98.567 16.4346 95.6684 15.1035C66.2971 1.60583 37.0252 1.22018 7.92757 16.136C5.60125 17.3303 2.36679 21.1494 0.525638 18.1016C-1.57676 14.6183 3.13808 13.225 5.67589 11.9312C37.2118 -4.19131 68.7478 -3.84299 100.222 12.18C101.602 12.8891 102.734 14.4815 105.359 13.2872Z" fill="white"/>
</svg>
