<svg width="26" height="25" viewBox="0 0 26 25" fill="none" xmlns="http://www.w3.org/2000/svg">
<path d="M25 12.5C25 18.964 19.5946 24.2424 12.8788 24.2424C6.16295 24.2424 0.757576 18.964 0.757576 12.5C0.757576 6.036 6.16295 0.757576 12.8788 0.757576C19.5946 0.757576 25 6.036 25 12.5Z" stroke="#828284" stroke-width="1.51515"/>
<g clip-path="url(#clip0_1_1437)">
<path d="M12.5195 15.976C11.2875 15.976 10.0556 15.976 8.82371 15.976C8.79549 15.976 8.76709 15.9777 8.73906 15.9751C8.63146 15.9644 8.54888 15.9156 8.5043 15.8133C8.46141 15.7149 8.49188 15.6308 8.55641 15.5533C8.82126 15.2356 9.08537 14.9173 9.3506 14.5998C9.58912 14.3143 9.70537 13.9858 9.70462 13.6137C9.7033 12.8645 9.70913 12.1153 9.70311 11.3662C9.69427 10.2696 10.223 9.50847 11.1634 9.0019C11.4046 8.87192 11.6647 8.78877 11.9339 8.73986C12.002 8.72745 12.0129 8.6998 12.0099 8.64186C12.0048 8.54799 12.0061 8.45356 12.0357 8.36289C12.1133 8.12513 12.3492 7.97276 12.5887 8.00455C12.8513 8.03935 13.0298 8.23931 13.049 8.51752C13.0537 8.58543 13.0191 8.67252 13.0667 8.71579C13.1111 8.75623 13.1953 8.75209 13.2616 8.7694C14.121 8.99456 14.7728 9.47932 15.1528 10.2963C15.2905 10.5924 15.3541 10.9072 15.3537 11.2347C15.3529 12.0278 15.3548 12.8209 15.3533 13.6139C15.3528 13.9862 15.4686 14.3141 15.7079 14.5996C15.9675 14.9096 16.2231 15.2226 16.4835 15.5319C16.5578 15.6199 16.6044 15.7106 16.5497 15.8221C16.494 15.9356 16.3951 15.9766 16.2713 15.9764C15.2589 15.9754 14.2463 15.976 13.2339 15.976C12.9959 15.976 12.7578 15.976 12.5195 15.976Z" fill="#828284"/>
<path d="M12.5343 16.4407C12.9355 16.4407 13.3367 16.4424 13.7382 16.4392C13.816 16.4387 13.8318 16.4565 13.8153 16.5353C13.6832 17.1593 13.1531 17.5938 12.5192 17.5919C11.8971 17.5901 11.3665 17.1459 11.2399 16.5254C11.2254 16.4546 11.2446 16.439 11.3117 16.4394C11.7192 16.4419 12.1266 16.4407 12.5343 16.4407Z" fill="#828284"/>
<path d="M8 11.1665C8.04665 9.99139 8.50319 9.00401 9.36134 8.20116C9.47853 8.09149 9.60814 8.08905 9.70313 8.1878C9.79719 8.28543 9.78628 8.42614 9.66965 8.53505C9.08482 9.08113 8.69845 9.74045 8.53197 10.5252C8.4857 10.7433 8.46181 10.9641 8.46011 11.1872C8.45974 11.2276 8.4571 11.269 8.44789 11.3081C8.42437 11.4075 8.33841 11.4756 8.23833 11.4791C8.13393 11.4829 8.04308 11.4171 8.01185 11.3164C7.9968 11.2671 8.00132 11.2171 8 11.1665Z" fill="#828284"/>
<path d="M17.0556 11.1705C17.0591 11.3673 16.9813 11.4757 16.8344 11.4794C16.6839 11.4832 16.6011 11.3754 16.5958 11.1754C16.568 10.1316 16.1502 9.26481 15.4008 8.54925C15.3524 8.50298 15.3063 8.45764 15.2947 8.38842C15.2778 8.28816 15.3203 8.19579 15.4045 8.14896C15.5012 8.09516 15.59 8.10588 15.6794 8.18695C16.0424 8.51577 16.3404 8.89556 16.571 9.32802C16.8784 9.90401 17.0388 10.5184 17.0556 11.1705Z" fill="#828284"/>
<path d="M8.78418 11.1412C8.82387 10.267 9.15814 9.52173 9.76498 8.89571C9.80862 8.85075 9.85264 8.80579 9.89966 8.76441C10.0259 8.65342 10.1924 8.65737 10.2953 8.77137C10.4029 8.89044 10.3914 9.05541 10.2655 9.1726C9.82743 9.5808 9.52947 10.071 9.39647 10.6575C9.35471 10.8413 9.33176 11.0275 9.33007 11.2162C9.32838 11.4039 9.21758 11.5262 9.05205 11.5245C8.8899 11.5228 8.7838 11.4011 8.78418 11.2166C8.78418 11.1914 8.78418 11.1664 8.78418 11.1412Z" fill="#828284"/>
<path d="M16.2282 11.1794C16.2357 11.2699 16.2252 11.3498 16.1612 11.4117C16.0982 11.4727 16.0222 11.4975 15.9368 11.4699C15.8542 11.4431 15.791 11.3899 15.7807 11.2996C15.766 11.1725 15.7654 11.0436 15.7498 10.9166C15.664 10.2201 15.3491 9.6405 14.8437 9.16026C14.7775 9.09725 14.7222 9.03122 14.734 8.93397C14.7449 8.84274 14.7948 8.77521 14.8821 8.74473C14.9716 8.71351 15.0531 8.73213 15.1249 8.79797C15.3736 9.02614 15.5869 9.2831 15.7598 9.5726C16.0566 10.0694 16.2135 10.6072 16.2282 11.1794Z" fill="#828284"/>
</g>
<defs>
<clipPath id="clip0_1_1437">
<rect width="9.05591" height="9.59221" fill="white" transform="translate(8 8)"/>
</clipPath>
</defs>
</svg>
