<svg width="152" height="45" viewBox="0 0 152 45" fill="none" xmlns="http://www.w3.org/2000/svg">
<path d="M53.4455 26.6325H48.146L47.4298 28.8669H43.8682L48.719 14.6011H52.8726L57.7234 28.8669H54.1235L53.4455 26.6325ZM52.4907 23.5674L50.8196 18.3347L49.1486 23.5674H52.4907Z" fill="white"/>
<path d="M58.8975 13.9902H61.9531V28.8672H58.8975V13.9902Z" fill="white"/>
<path d="M75.1309 23.7776C75.1669 24.451 75.0692 25.1249 74.8435 25.7603C74.6177 26.3957 74.2685 26.9802 73.8157 27.48C73.363 27.9798 72.8158 28.3849 72.2057 28.6722C71.5956 28.9594 70.9347 29.123 70.2611 29.1536C69.6945 29.1852 69.128 29.0903 68.6027 28.8755C68.0775 28.6608 67.6066 28.3317 67.2245 27.9123V32.9445H64.1689V18.6786H67.2245V19.6335C67.6066 19.214 68.0775 18.885 68.6027 18.6702C69.128 18.4555 69.6945 18.3605 70.2611 18.3922C70.9351 18.4239 71.5963 18.5887 72.2064 18.877C72.8166 19.1652 73.3637 19.5713 73.8163 20.0718C74.2689 20.5724 74.6181 21.1575 74.8437 21.7935C75.0693 22.4294 75.1669 23.1038 75.1309 23.7776ZM72.0753 23.7776C72.0985 23.4501 72.0522 23.1214 71.9394 22.813C71.8267 22.5046 71.65 22.2235 71.421 21.9882C71.192 21.7528 70.9158 21.5686 70.6106 21.4475C70.3054 21.3264 69.978 21.2711 69.6499 21.2854C69.3219 21.2711 68.9945 21.3264 68.6893 21.4475C68.3841 21.5686 68.1079 21.7528 67.8789 21.9882C67.6499 22.2235 67.4732 22.5046 67.3604 22.813C67.2476 23.1214 67.2013 23.4501 67.2245 23.7776C67.2027 24.1044 67.2501 24.4321 67.3635 24.7394C67.4769 25.0466 67.6538 25.3265 67.8827 25.5607C68.1115 25.795 68.3872 25.9784 68.6917 26.099C68.9962 26.2195 69.3227 26.2745 69.6499 26.2603C69.9755 26.2717 70.2999 26.2147 70.6021 26.0929C70.9043 25.9711 71.1777 25.7874 71.4044 25.5534C71.6312 25.3194 71.8064 25.0405 71.9186 24.7347C72.0309 24.4288 72.0778 24.1027 72.0562 23.7776H72.0753Z" fill="white"/>
<path d="M86.5894 22.6125V28.8669H83.5337V23.0804C83.5672 22.838 83.5474 22.5912 83.4756 22.3573C83.4039 22.1234 83.2818 21.908 83.1181 21.7261C82.9545 21.5442 82.753 21.4003 82.5279 21.3043C82.3028 21.2084 82.0595 21.1628 81.815 21.1706C80.6978 21.1706 79.9052 21.82 79.9052 23.2714V28.8287H76.8496V14.6011H79.9052V19.6333C80.2523 19.2167 80.6923 18.8874 81.1899 18.6718C81.6874 18.4562 82.2285 18.3604 82.7699 18.392C84.8801 18.392 86.5894 19.8625 86.5894 22.6125Z" fill="white"/>
<path d="M99.1834 18.6786V28.8671H96.1373V27.9123C95.7552 28.3317 95.2844 28.6608 94.7592 28.8755C94.2339 29.0903 93.6674 29.1852 93.1008 29.1536C92.4272 29.123 91.7663 28.9594 91.1562 28.6722C90.5461 28.3849 89.9989 27.9798 89.5461 27.48C89.0934 26.9802 88.7441 26.3957 88.5184 25.7603C88.2926 25.1249 88.1949 24.451 88.2309 23.7776C88.1949 23.1038 88.2926 22.4294 88.5182 21.7935C88.7438 21.1575 89.093 20.5724 89.5456 20.0718C89.9982 19.5713 90.5453 19.1652 91.1555 18.877C91.7656 18.5887 92.4267 18.4239 93.1008 18.3922C93.6674 18.3605 94.2339 18.4555 94.7592 18.6702C95.2844 18.885 95.7552 19.214 96.1373 19.6335V18.6786H99.1834ZM96.1278 23.7776C96.151 23.4501 96.1047 23.1214 95.9919 22.813C95.8791 22.5046 95.7025 22.2235 95.4734 21.9882C95.2444 21.7528 94.9683 21.5686 94.663 21.4475C94.3578 21.3264 94.0305 21.2711 93.7024 21.2854C93.3743 21.2711 93.047 21.3264 92.7418 21.4475C92.4365 21.5686 92.1604 21.7528 91.9314 21.9882C91.7023 22.2235 91.5257 22.5046 91.4129 22.813C91.3001 23.1214 91.2538 23.4501 91.277 23.7776C91.2552 24.1044 91.3026 24.4321 91.416 24.7394C91.5294 25.0466 91.7063 25.3265 91.9351 25.5607C92.164 25.795 92.4397 25.9784 92.7442 26.099C93.0487 26.2195 93.3752 26.2745 93.7024 26.2603C94.0304 26.2759 94.3579 26.2219 94.6636 26.102C94.9692 25.9821 95.2461 25.7989 95.476 25.5645C95.7059 25.3301 95.8837 25.0496 95.9977 24.7417C96.1116 24.4338 96.1592 24.1052 96.1373 23.7776H96.1278Z" fill="white"/>
<path d="M106.442 29.1344C105.236 29.1617 104.049 28.8293 103.033 28.1795C102.097 27.5723 101.394 26.6673 101.037 25.6109L102.67 24.656C102.901 25.4674 103.411 26.1714 104.109 26.6445C104.807 27.1177 105.65 27.3299 106.489 27.2437C107.283 27.2974 108.073 27.0858 108.733 26.6421C108.983 26.4577 109.184 26.2152 109.319 25.9357C109.453 25.6562 109.518 25.3481 109.507 25.038C109.524 24.7378 109.461 24.4385 109.325 24.1702C109.189 23.902 108.985 23.6743 108.733 23.5102C107.919 23.0451 107.05 22.6826 106.146 22.4312L104.79 21.9633C104.382 21.822 103.987 21.6495 103.606 21.4476C103.218 21.2619 102.863 21.0135 102.555 20.7124C102.302 20.4269 102.093 20.105 101.935 19.7575C101.748 19.3202 101.657 18.8482 101.667 18.3729C101.643 17.8159 101.748 17.2608 101.973 16.7508C102.198 16.2407 102.538 15.7894 102.966 15.4319C103.858 14.6922 104.988 14.302 106.146 14.3338C107.194 14.3107 108.224 14.6107 109.096 15.1932C109.932 15.7539 110.594 16.538 111.006 17.4562L109.421 18.4111C109.189 17.7439 108.748 17.1696 108.162 16.7738C107.577 16.378 106.88 16.1819 106.174 16.2149C105.491 16.1683 104.813 16.3682 104.265 16.7783C104.034 16.9631 103.849 17.199 103.724 17.4674C103.6 17.7359 103.54 18.0295 103.548 18.3252C103.533 18.6006 103.586 18.8754 103.703 19.1254C103.819 19.3753 103.996 19.5925 104.217 19.7575C104.942 20.2033 105.726 20.5441 106.547 20.7697L107.377 21.0657L108.151 21.3426C108.411 21.4291 108.667 21.5312 108.915 21.6482L109.574 21.9919C109.799 22.1071 110.007 22.2516 110.194 22.4216L110.672 22.9277C110.843 23.1009 110.979 23.305 111.073 23.5292C111.16 23.7563 111.23 23.9893 111.283 24.2263C111.345 24.5055 111.377 24.7903 111.378 25.0762C111.399 25.6463 111.286 26.2132 111.049 26.7321C110.812 27.2509 110.457 27.7073 110.013 28.0649C108.983 28.8248 107.72 29.2029 106.442 29.1344Z" fill="white"/>
<path d="M125.032 18.6782H126.694L123.724 28.8667H121.919L119.494 21.2277L117.078 28.8667H115.168L112.17 18.6782H114.022L116.266 26.4223L118.673 18.6782H120.42L122.817 26.4223L125.032 18.6782Z" fill="white"/>
<path d="M136.748 18.6787H138.525V28.8672H136.748V27.1197C136.345 27.7614 135.779 28.2855 135.109 28.6392C134.438 28.9929 133.686 29.1637 132.929 29.1346C132.246 29.1455 131.568 29.0126 130.94 28.7444C130.311 28.4763 129.746 28.0789 129.281 27.5781C128.786 27.0758 128.397 26.4785 128.137 25.8222C127.878 25.1659 127.754 24.464 127.773 23.7586C127.752 23.053 127.876 22.3506 128.135 21.694C128.394 21.0375 128.784 20.4405 129.281 19.9391C129.746 19.437 130.31 19.0382 130.939 18.7684C131.567 18.4986 132.245 18.3639 132.929 18.3731C133.687 18.3449 134.44 18.5172 135.11 18.8726C135.781 19.228 136.346 19.754 136.748 20.3974V18.6787ZM133.12 27.4253C133.6 27.4381 134.078 27.3514 134.524 27.1707C134.969 26.9899 135.372 26.719 135.708 26.375C136.049 26.0361 136.318 25.6307 136.497 25.184C136.676 24.7374 136.762 24.2587 136.748 23.7777C136.762 23.2966 136.676 22.818 136.497 22.3713C136.318 21.9246 136.049 21.5193 135.708 21.1804C135.373 20.8345 134.971 20.5624 134.525 20.3815C134.079 20.2006 133.601 20.1149 133.12 20.13C132.637 20.1122 132.155 20.1956 131.706 20.3748C131.258 20.5541 130.851 20.8252 130.513 21.1709C130.175 21.5119 129.909 21.9178 129.732 22.3641C129.555 22.8105 129.47 23.288 129.482 23.7681C129.47 24.2482 129.555 24.7258 129.732 25.1722C129.909 25.6185 130.175 26.0244 130.513 26.3654C130.851 26.7126 131.257 26.9861 131.705 27.1685C132.154 27.3509 132.636 27.4384 133.12 27.4253Z" fill="white"/>
<path d="M146.842 18.4118C147.526 18.4032 148.203 18.5382 148.832 18.8079C149.46 19.0777 150.025 19.4762 150.49 19.9778C150.985 20.4804 151.373 21.0777 151.633 21.734C151.892 22.3902 152.016 23.0919 151.998 23.7973C152.015 24.5024 151.889 25.2037 151.63 25.8597C151.371 26.5157 150.983 27.1132 150.49 27.6168C150.024 28.1171 149.459 28.5142 148.831 28.7823C148.203 29.0504 147.525 29.1836 146.842 29.1732C146.085 29.2015 145.333 29.0302 144.663 28.6766C143.992 28.323 143.427 27.7995 143.022 27.1585V32.9832H141.256V18.6792H143.022V20.4361C143.426 19.794 143.992 19.2692 144.662 18.9139C145.332 18.5587 146.084 18.3855 146.842 18.4118ZM146.613 27.4258C147.09 27.4371 147.565 27.3497 148.007 27.1689C148.449 26.9882 148.849 26.718 149.181 26.3755C149.523 26.0366 149.792 25.6312 149.971 25.1846C150.15 24.7379 150.235 24.2592 150.222 23.7782C150.235 23.2971 150.15 22.8185 149.971 22.3718C149.792 21.9251 149.523 21.5198 149.181 21.1809C148.85 20.837 148.45 20.5659 148.008 20.3851C147.565 20.2042 147.09 20.1175 146.613 20.1305C146.132 20.1172 145.654 20.2036 145.209 20.3844C144.763 20.5652 144.36 20.8364 144.025 21.1809C143.685 21.5212 143.418 21.9267 143.239 22.3731C143.06 22.8195 142.973 23.2974 142.984 23.7782C142.973 24.2589 143.06 24.737 143.239 25.1833C143.418 25.6297 143.685 26.0352 144.025 26.3755C144.362 26.7181 144.765 26.9881 145.21 27.1687C145.655 27.3494 146.132 27.4369 146.613 27.4258Z" fill="white"/>
<path d="M30.7831 24.3046C26.4766 21.5927 22.1129 18.9764 17.835 16.2168C16.7423 15.5086 15.9362 14.4358 15.5602 13.1891C15.1843 11.9424 15.2629 10.6027 15.782 9.40849C16.3186 8.15953 17.2611 7.12834 18.4569 6.48191C19.6527 5.83548 21.0318 5.61168 22.3707 5.84682C23.2666 6.01526 24.1085 6.39753 24.8251 6.9611C25.5416 7.52466 26.1114 8.25288 26.4862 9.08387V8.98834L26.9636 9.86687V9.94322C26.5912 9.87638 26.2093 9.80003 25.8273 9.74273L22.1033 9.15071C21.6527 9.05537 21.1841 9.09508 20.7561 9.26495C20.328 9.43481 19.9596 9.72726 19.697 10.1056C19.4535 10.4415 19.3001 10.8342 19.2517 11.2462C19.2033 11.6583 19.2613 12.0758 19.4204 12.459C19.5794 12.8422 19.8341 13.1782 20.16 13.4349C20.486 13.6916 20.8723 13.8604 21.2821 13.9251L32.0722 15.6534C32.3935 15.7034 32.7215 15.6891 33.0373 15.6112C33.353 15.5334 33.6501 15.3935 33.9113 15.1998C34.1725 15.0061 34.3926 14.7624 34.5588 14.483C34.725 14.2035 34.834 13.8938 34.8795 13.5718C34.9941 12.7697 35.1278 11.9676 35.2519 11.1655C35.7039 8.37725 36.1495 5.589 36.5888 2.80077C36.6806 2.17297 36.5247 1.53408 36.1541 1.01912C35.7834 0.504151 35.2271 0.153447 34.6026 0.0411598C34.2797 -0.0188678 33.948 -0.0131742 33.6274 0.0578281C33.3067 0.12883 33.0037 0.263703 32.7363 0.45443C32.4689 0.645158 32.2427 0.88782 32.0712 1.16791C31.8997 1.44799 31.7864 1.75976 31.738 2.08461L30.9932 6.77308C30.9932 6.83992 30.9932 6.90673 30.9263 7.03086L30.3343 6.20968C29.8079 5.28745 29.1447 4.4504 28.3673 3.72703C26.54 2.05122 24.191 1.05647 21.7159 0.910363C19.2409 0.76426 16.7911 1.47571 14.7794 2.9249C12.8301 4.3464 11.4135 6.38012 10.7557 8.70125C10.098 11.0224 10.2371 13.497 11.1509 15.7298C12.4973 18.8331 15.085 20.5901 17.835 22.2611C21.7214 24.6292 25.5886 27.0355 29.3985 29.5182C30.3447 30.1695 31.0628 31.1013 31.4516 32.1821C31.8404 33.263 31.8805 34.4386 31.5661 35.5434C31.2579 36.6753 30.6254 37.6923 29.7465 38.4693C28.8677 39.2463 27.7809 39.7495 26.6199 39.9168C25.2471 40.1415 23.8391 39.8707 22.6476 39.1529L21.6927 38.0548C21.0268 37.1994 20.4298 36.2926 19.9071 35.343C18.9522 36.4506 17.9974 37.4437 17.1953 38.4845C17.105 38.6138 17.0481 38.7634 17.0298 38.9201C17.0115 39.0767 17.0322 39.2354 17.0902 39.3821C18.1521 41.3029 19.7607 42.8649 21.7118 43.87C22.1956 44.1013 22.7226 44.2282 23.2587 44.2424C23.4879 44.3093 23.717 44.3665 23.9557 44.4143C25.3623 44.7011 26.8125 44.699 28.2182 44.408C29.6239 44.117 30.9558 43.5433 32.1329 42.7216C33.31 41.9 34.3078 40.8476 35.0656 39.6284C35.8233 38.4092 36.3253 37.0486 36.541 35.6294C37.1617 30.5113 34.9177 26.921 30.7831 24.3046Z" fill="url(#paint0_linear_1310_5)"/>
<path d="M4.69561 39.6298C4.52374 36.7652 7.39794 31.8189 9.97611 30.5585C10.3163 30.3725 10.7104 30.3099 11.0915 30.3812C11.4726 30.4526 11.8173 30.6535 12.0672 30.95C12.6211 31.5134 13.1081 32.1531 13.6905 32.8597C14.5786 31.8189 15.4666 30.8259 16.3069 29.7851C16.3651 29.6594 16.3952 29.5225 16.3952 29.384C16.3952 29.2455 16.3651 29.1086 16.3069 28.9829C14.5499 25.66 10.9596 24.6001 7.79896 26.6721C5.72149 27.9891 3.95536 29.7422 2.62308 31.8099C1.29081 33.8775 0.424253 36.2103 0.0835473 38.6463C-0.100812 39.6187 0.021656 40.6245 0.433933 41.5243C0.84621 42.4241 1.52795 43.1735 2.38483 43.6689C3.32156 44.2636 4.39433 44.6099 5.50199 44.6751C6.60965 44.7402 7.71567 44.5221 8.71566 44.0413L7.67482 43.6785C6.80154 43.4262 6.03607 42.8925 5.49733 42.1604C4.95858 41.4282 4.67673 40.5386 4.69561 39.6298Z" fill="url(#paint1_linear_1310_5)"/>
<path d="M23.5357 27.3983C22.5808 27.3219 21.6928 27.3983 20.7761 27.3124C20.4387 27.274 20.097 27.3264 19.7865 27.464C19.476 27.6017 19.2078 27.8196 19.0096 28.0954C17.2622 30.2247 15.5243 32.3732 13.6814 34.4166C11.3992 36.9375 9.22213 39.6398 5.54585 40.1459C6.28111 43.0105 9.12663 44.1182 11.3801 42.4472C16.5365 38.6277 20.2032 33.4427 24.1468 28.506C24.672 27.8948 24.2709 27.4556 23.5357 27.3983Z" fill="url(#paint2_linear_1310_5)"/>
<defs>
<linearGradient id="paint0_linear_1310_5" x1="5.5459" y1="35.2857" x2="24.3856" y2="35.2857" gradientUnits="userSpaceOnUse">
<stop stop-color="#04FD93"/>
<stop offset="1" stop-color="#00A5F9"/>
</linearGradient>
<linearGradient id="paint1_linear_1310_5" x1="5.5459" y1="35.2857" x2="24.3856" y2="35.2857" gradientUnits="userSpaceOnUse">
<stop stop-color="#04FD93"/>
<stop offset="1" stop-color="#00A5F9"/>
</linearGradient>
<linearGradient id="paint2_linear_1310_5" x1="5.5459" y1="35.2857" x2="24.3856" y2="35.2857" gradientUnits="userSpaceOnUse">
<stop stop-color="#04FD93"/>
<stop offset="1" stop-color="#00A5F9"/>
</linearGradient>
</defs>
</svg>
