<svg width="119" height="32" viewBox="0 0 119 32" fill="none" xmlns="http://www.w3.org/2000/svg">
<path d="M108.67 16.7511C101.21 20.828 93.5838 24.429 85.4429 26.834C57.3935 35.1292 30.5658 32.287 4.89554 18.3201C4.32967 18.0115 3.76379 17.6899 3.27508 17.2784C1.80894 16.0695 -0.24879 14.7577 1.26879 12.6356C2.56773 10.8094 4.39397 12.237 5.82152 13.06C13.2551 17.3556 21.0873 20.6737 29.3954 22.8857C56.146 29.9978 81.4432 26.1009 105.532 12.9314C106.779 12.2498 108.811 11.864 108.374 10.0249C108.155 9.09891 106.535 8.41728 105.442 7.81283C103.577 6.78396 101.596 5.97373 99.7313 4.932C98.2523 4.10891 96.2846 3.08004 97.4678 1.07375C98.5353 -0.726767 100.503 0.134908 102.098 0.803672C103.088 1.21522 104.014 1.74251 104.966 2.23122C123.923 11.9154 120.682 6.87398 111.396 25.6379C110.534 27.387 109.274 29.5476 107.101 28.2615C105.004 27.0269 106.342 24.8406 107.152 23.1172C107.949 21.4196 108.837 19.7477 109.673 18.0629C109.338 17.6128 109.004 17.1755 108.67 16.7511Z" fill="white"/>
</svg>
